<svg width="631" height="119" viewBox="0 0 631 119" fill="none" xmlns="http://www.w3.org/2000/svg">
<rect x="3" y="3" width="624.694" height="113" rx="17" fill="#006A4E"/>
<rect x="3" y="3" width="624.694" height="113" rx="17" stroke="white" stroke-width="6"/>
<path fill-rule="evenodd" clip-rule="evenodd" d="M73.7838 70.0225L73.6396 70.1667V70.455L73.4955 70.5991V71.0315L73.3514 71.1757V71.464L73.2072 71.6081V72.0405L73.0631 72.1847V72.473L72.9189 72.6171V72.9054H73.6396V72.6171L73.9279 72.3288H74.5045L74.6486 72.1847H74.7928L75.0811 72.473V72.6171L75.2252 72.7613H75.3694L75.5135 72.6171H75.9459V72.473L75.6577 72.1847V72.0405L75.5135 71.8964V71.7523L75.3694 71.6081V71.464L75.0811 71.1757V71.0315L74.9369 70.8874V70.7432L74.7928 70.5991V70.455L74.5045 70.1667V70.0225H73.7838ZM74.2162 70.8874L74.3604 71.0315V71.3198L74.5045 71.464V71.6081L74.3604 71.7523H74.0721L73.9279 71.6081V71.464L74.0721 71.3198V71.0315L74.2162 70.8874ZM70.036 69.5901V69.8784L69.8919 70.0225V70.5991L69.7477 70.7432V71.3198L69.6036 71.464V71.8964L69.4595 72.0405V72.473H70.1802V72.1847L70.3243 72.0405V71.6081L70.4685 71.464H70.7568L70.9009 71.6081H71.3333L71.4775 71.7523V72.0405L71.3333 72.1847V72.7613L71.4775 72.9054H71.9099V72.7613L72.0541 72.6171V72.0405L72.1982 71.8964V71.3198L72.3423 71.1757V70.5991L72.4865 70.455V70.0225H71.7658V70.455L71.6216 70.5991V70.8874L71.4775 71.0315H71.3333L71.1892 70.8874H70.7568L70.6126 70.7432V69.7342H70.4685L70.3243 69.5901H70.036ZM77.6757 69.1577H76.8108L76.6667 69.3018H76.3784L76.2342 69.4459H76.0901L75.9459 69.5901H75.6577V69.8784L75.8018 70.0225V70.1667L75.9459 70.3108V70.455L76.0901 70.5991V70.8874L76.2342 71.0315V71.1757L76.3784 71.3198V71.464L76.5225 71.6081V71.8964L76.6667 72.0405V72.1847L76.8108 72.3288H76.955L77.0991 72.1847H77.3874V71.7523L77.2432 71.6081V71.464L77.0991 71.3198V71.1757L77.2432 71.0315H77.3874L77.8198 71.464H77.964L78.1081 71.6081H78.5405L78.6847 71.464H78.8288V71.1757H78.6847L78.2523 70.7432H78.1081L77.964 70.5991V70.455L78.1081 70.3108V69.5901L77.6757 69.1577ZM77.0991 69.7342L77.3874 70.0225V70.3108L77.2432 70.455H77.0991L76.955 70.5991L76.6667 70.3108V70.1667L76.5225 70.0225L76.6667 69.8784H76.8108L76.955 69.7342H77.0991ZM79.2613 67.4279L78.5405 68.1486H78.3964L78.1081 68.4369V68.7252L78.3964 69.0135V69.1577L78.973 69.7342V69.8784L79.4054 70.3108V70.455L79.6937 70.7432H79.982L80.2703 70.455V70.3108L80.1261 70.1667V70.0225L79.8378 69.7342V69.5901L79.6937 69.4459L79.8378 69.3018H79.982L80.2703 69.0135V68.5811L80.1261 68.4369H79.982L79.6937 68.7252H79.5496L79.2613 69.0135L79.1171 68.8694V68.7252L78.973 68.5811L79.6937 67.8604V67.5721L79.5496 67.4279H79.2613ZM66.4324 67.4279V67.5721L66.2883 67.7162V68.0045L66.1441 68.1486V68.4369L66 68.5811V68.8694L65.8559 69.0135V69.1577L65.7117 69.3018V69.5901L65.5676 69.7342V69.8784L65.4234 70.0225V70.3108L65.5676 70.455H65.7117L65.8559 70.5991H66.1441L66.8649 69.8784H67.009L67.1532 69.7342L67.2973 69.8784V70.1667L67.1532 70.3108V70.5991L67.009 70.7432V71.0315L66.8649 71.1757V71.3198H67.009L67.1532 71.464H67.2973L67.4414 71.6081H67.5856L68.3063 70.8874H68.4505L69.4595 69.8784H69.6036L69.7477 69.7342V69.4459H69.6036L69.4595 69.3018H69.027L68.1622 70.1667L68.018 70.0225V69.7342L68.1622 69.5901V69.3018L68.3063 69.1577V68.7252H68.1622L67.8739 68.4369H67.7297L67.1532 69.0135H67.009L66.7207 69.3018L66.5766 69.1577V69.0135L66.7207 68.8694V68.5811L66.8649 68.4369V68.1486L67.009 68.0045V67.8604L66.5766 67.4279H66.4324ZM83.009 63.536L82.8649 63.6802H82.7207V63.8243L82.5766 63.9685V64.1126L82.4324 64.2568V64.4009L82.5766 64.545V64.6892L82.8649 64.9775H83.009L83.1532 65.1216H83.4414L83.5856 64.9775H83.7297L84.018 64.6892V63.9685L83.8739 63.8243V63.6802H83.7297L83.5856 63.536H83.009ZM62.3964 63.536L62.2523 63.6802H62.1081L61.964 63.8243V63.9685L61.8198 64.1126V64.545L62.2523 64.9775H62.3964L62.5405 65.1216H62.8288L62.973 64.9775H63.1171L63.2613 64.8333V64.6892L63.4054 64.545V63.9685L62.973 63.536H62.3964ZM84.8829 58.3468L84.4505 57.9144H84.3063L84.1622 57.7703H83.7297L83.5856 57.9144H83.4414L83.2973 58.0586V58.2027L83.1532 58.3468V59.0676L82.8649 59.3559H82.7207L82.5766 59.2117V59.0676L82.4324 58.9234V58.7793L82.5766 58.6351V58.3468L82.4324 58.2027H82.1441L81.8559 58.491V59.3559L82 59.5V59.6441L82.4324 60.0766H83.2973L83.5856 59.7883V59.6441L83.7297 59.5V58.7793L84.018 58.491L84.3063 58.7793V59.0676L84.1622 59.2117V59.5L84.3063 59.6441H84.7387L84.8829 59.5V58.3468ZM61.5315 57.6261L61.3874 57.7703V57.9144L61.2432 58.0586V58.491L61.0991 58.6351V59.0676L60.955 59.2117V59.3559L61.0991 59.5H61.3874L61.5315 59.6441H61.964L62.1081 59.7883H62.5405L62.6847 59.9324H63.1171L63.2613 60.0766H63.8378L63.982 59.9324V59.5H63.8378L63.6937 59.3559H63.2613L62.973 59.0676V58.7793L63.1171 58.6351V58.2027H62.973L62.8288 58.0586H62.5405V58.2027L62.3964 58.3468V58.7793L62.2523 58.9234H61.964L61.8198 58.7793V58.3468L61.964 58.2027V57.7703H61.8198L61.6757 57.6261H61.5315ZM84.1622 56.6171L84.018 56.473H83.7297L83.5856 56.6171H83.2973L83.1532 56.7613V56.9054L83.2973 57.0496H83.8739L84.018 56.9054H84.1622V56.6171ZM61.964 56.1847V56.3288L61.8198 56.473V56.7613H61.964L62.1081 56.9054H62.2523L62.3964 57.0496H62.5405L62.6847 57.1937H62.973L63.1171 57.3378H63.2613L63.4054 57.482H63.5495L63.6937 57.6261H63.8378L63.982 57.7703H64.1261L64.2703 57.9144H64.4144L64.5586 57.7703V57.6261L64.7027 57.482V57.3378L64.5586 57.1937H64.4144L64.2703 57.0496H64.1261L63.982 56.9054H63.8378L63.6937 56.7613H63.5495L63.4054 56.6171H63.1171L62.973 56.473H62.8288L62.6847 56.3288H62.5405L62.3964 56.1847H61.964ZM66 58.3468L65.7117 61.2297L67.009 62.6712L68.5946 63.3919L67.1532 63.9685L66.8649 64.545L67.009 65.6982H67.2973V64.8333L67.7297 64.4009L69.4595 64.2568V64.545L68.4505 65.1216V65.9865L69.1712 66.8514L70.9009 67.1396V66.8514L69.1712 65.6982L71.045 64.9775L72.4865 65.2658L74.9369 64.9775L76.6667 65.6982L75.0811 66.9955L75.6577 67.1396L76.955 66.7072L77.6757 65.8423L77.5315 65.1216L76.5225 64.545V64.2568H78.2523L78.6847 64.8333V65.6982L78.973 65.5541V64.1126L78.5405 63.6802L77.3874 63.3919L78.973 62.6712L79.982 61.6622L80.5586 59.5L79.8378 58.2027V60.3649L78.2523 61.9505L77.964 61.518L79.2613 59.6441V58.3468L78.1081 56.9054L76.5225 55.8964L74.7928 55.6081L73.9279 55.8964V56.1847H75.3694L75.8018 56.473L74.3604 56.6171L77.0991 57.7703L77.8198 58.9234L76.6667 59.7883L75.2252 59.3559L75.6577 58.7793L74.9369 58.491H73.9279L73.3514 59.0676H72.6306L72.1982 58.491H71.045L70.4685 58.7793L70.7568 59.3559L69.6036 59.7883L68.7387 59.5L68.1622 58.9234L68.8829 58.2027V57.7703L71.4775 56.7613L71.6216 56.473H70.3243L71.3333 56.0405L72.0541 56.1847L72.1982 55.8964L70.3243 55.6081L67.7297 57.0496L66.8649 58.3468V59.5L67.1532 60.509L68.018 61.518L67.8739 62.2387L66.8649 61.518L66.2883 60.3649V58.3468H66ZM63.6937 53.7342L63.5495 53.8784H63.4054L62.973 54.3108V54.455L62.8288 54.5991V55.0315L62.973 55.1757V55.3198L63.2613 55.6081H63.4054L63.5495 55.7523H63.982L64.2703 55.464H64.4144L64.7027 55.1757H64.8468L65.1351 55.464L64.991 55.6081V55.7523L64.8468 55.8964H64.7027L64.5586 56.0405H64.4144V56.473L64.5586 56.6171H64.8468L64.991 56.473H65.1351L65.5676 56.0405V55.8964L65.7117 55.7523V54.8874L65.4234 54.5991H65.2793L65.1351 54.455H64.7027L64.5586 54.5991H64.4144L64.2703 54.7432H64.1261L63.8378 55.0315H63.6937L63.5495 54.8874V54.7432L63.6937 54.5991V54.455L63.8378 54.3108H63.982L64.1261 54.1667V53.8784H63.982L63.8378 53.7342H63.6937ZM82 53.4459H81.8559L81.4234 53.8784H81.2793L80.991 54.1667H80.8468L80.5586 54.455H80.4144L79.982 54.8874H79.8378L79.6937 55.0315V55.1757L79.982 55.464H80.4144L80.8468 55.0315H80.991L81.2793 54.7432L81.4234 54.8874V55.0315L81.2793 55.1757V55.464L81.1351 55.6081V55.8964L80.991 56.0405V56.1847L80.8468 56.3288V56.6171L80.991 56.7613V56.9054L81.1351 57.0496H81.2793L81.4234 56.9054H81.5676L81.8559 56.6171H82L82.2883 56.3288H82.4324L82.7207 56.0405H82.8649L83.1532 55.7523H83.2973L83.4414 55.6081V55.3198L83.2973 55.1757V55.0315H82.8649L82.5766 55.3198H82.4324L82.1441 55.6081L82 55.464V55.1757L82.1441 55.0315V54.5991L82.2883 54.455V54.1667L82.4324 54.0225V53.8784L82 53.4459ZM79.8378 51.4279H79.5496L79.4054 51.5721H79.2613L78.8288 52.0045H78.6847L78.3964 52.2928H78.2523L77.964 52.5811H77.8198L77.3874 53.0135H77.2432V53.1577L77.3874 53.3018H77.5315L77.6757 53.4459H77.8198L77.964 53.3018H78.1081L78.2523 53.1577L78.3964 53.3018H78.5405L78.973 53.7342V54.455L79.2613 54.7432H79.5496V54.5991L79.6937 54.455V54.1667L79.8378 54.0225V53.5901L79.982 53.4459V52.8694L80.1261 52.7252V52.2928L80.2703 52.1486V51.7162L80.1261 51.5721H79.982L79.8378 51.4279ZM79.2613 52.4369L79.4054 52.5811V52.7252L79.1171 53.0135H78.973L78.8288 52.8694V52.7252L78.973 52.5811H79.1171L79.2613 52.4369ZM66.7207 51.1396H66.4324L66.2883 51.2838H66.1441V51.5721L66.2883 51.7162V51.8604L66.7207 52.2928L66.2883 52.7252H66.1441L66 52.8694H65.8559L65.2793 52.2928H64.8468L64.7027 52.4369V52.7252L65.1351 53.1577V53.3018L65.7117 53.8784V54.0225L66 54.3108V54.455L66.2883 54.7432V54.8874H66.4324L66.8649 54.455V54.3108L66.5766 54.0225V53.8784L66.2883 53.5901V53.4459L66.4324 53.3018H66.5766L67.009 52.8694H67.1532L67.2973 53.0135V53.1577L67.5856 53.4459V53.5901L67.7297 53.7342H67.8739L68.018 53.5901H68.1622L68.3063 53.4459V53.3018L68.1622 53.1577V53.0135L67.7297 52.5811V52.4369L67.1532 51.8604V51.7162L66.8649 51.4279V51.2838L66.7207 51.1396ZM69.6036 49.8423H69.1712L69.027 49.9865H68.7387L68.5946 50.1306H68.4505L68.3063 50.2748H68.018L67.8739 50.4189V50.5631L68.018 50.7072V50.8514L68.1622 50.9955V51.2838L68.3063 51.4279V51.5721L68.4505 51.7162V52.0045L68.5946 52.1486V52.4369L68.7387 52.5811V52.8694L68.8829 53.0135H69.3153L69.4595 52.8694H69.7477L69.8919 52.7252H70.1802L70.3243 52.5811H70.6126V52.1486L70.4685 52.0045H70.036L69.8919 52.1486H69.7477L69.6036 52.2928H69.4595L69.1712 52.0045V51.8604L69.4595 51.5721H69.7477L69.8919 51.4279H70.036V50.9955L69.8919 50.8514H69.7477L69.6036 50.9955H69.3153L69.1712 51.1396H69.027L68.8829 50.9955V50.7072L69.027 50.5631H69.1712L69.3153 50.4189H69.6036L69.7477 50.2748V49.9865L69.6036 49.8423ZM74.6486 49.4099L74.5045 49.5541V49.8423L74.3604 49.9865V50.2748L74.2162 50.4189V50.8514L74.0721 50.9955V51.1396L73.9279 51.2838V51.5721L73.7838 51.7162V52.1486L73.9279 52.2928H74.3604V52.1486L74.5045 52.0045V51.7162L74.6486 51.5721V51.4279L74.7928 51.2838V51.1396L74.9369 50.9955L75.0811 51.1396V52.0045L75.3694 52.2928H75.6577L76.2342 51.7162V51.5721L76.3784 51.4279L76.5225 51.5721V51.8604L76.3784 52.0045V52.4369L76.2342 52.5811V52.7252L76.3784 52.8694H76.5225L76.6667 53.0135H76.955V52.7252L77.0991 52.5811V52.1486L77.2432 52.0045V51.4279L77.3874 51.2838V50.7072L77.5315 50.5631V50.2748L77.3874 50.1306H77.2432L77.0991 49.9865H76.8108L76.3784 50.4189V50.5631L75.8018 51.1396L75.5135 50.8514V50.1306L75.3694 49.9865V49.5541H75.0811L74.9369 49.4099H74.6486ZM71.045 49.4099L70.9009 49.5541V50.5631L71.045 50.7072V52.2928L71.1892 52.4369H71.3333L71.4775 52.2928H71.7658V51.4279L71.9099 51.2838H72.0541L72.1982 51.4279V51.5721L72.4865 51.8604V52.0045L72.7748 52.2928H72.9189L73.0631 52.1486H73.3514V52.0045L73.2072 51.8604V51.7162L73.0631 51.5721V51.4279L72.7748 51.1396V50.9955L73.0631 50.7072V50.5631L73.2072 50.4189V50.1306L73.0631 49.9865V49.8423L72.6306 49.4099H71.045ZM71.6216 50.4189V50.1306L71.7658 49.9865H72.1982L72.4865 50.2748L72.0541 50.7072H71.9099L71.6216 50.4189ZM72.4865 45.6622V46.0946L72.0541 46.3829L69.3153 46.6712L65.8559 48.1126L65.1351 47.6802L64.7027 47.9685L64.8468 48.545L62.973 49.9865L60.0901 53.3018L59.5135 53.4459L59.3694 54.0225L59.6577 54.3108L58.3604 57.482L57.9279 60.509L57.3514 60.6532V61.6622L57.9279 61.8063L58.3604 64.6892L59.6577 67.8604L59.3694 68.1486L59.5135 68.7252L60.2342 69.0135L62.8288 72.0405L64.8468 73.482V74.3468L65.4234 74.491L65.8559 74.0586L68.3063 75.2117L70.7568 75.7883H72.0541L72.4865 76.0766V76.509H73.3514L73.6396 75.9324L77.0991 75.3559L80.1261 74.0586L80.5586 74.491L81.2793 74.0586L81.1351 73.482L83.2973 71.8964L85.7477 69.0135H86.1802L86.4685 68.5811L86.3243 67.7162L87.7658 63.6802L87.9099 61.8063L88.3423 61.6622V60.6532L87.9099 60.3649L87.4775 57.1937L86.1802 54.3108L86.4685 53.5901L86.1802 53.1577L85.7477 53.3018L84.5946 51.7162L81.1351 48.6892V47.9685L80.5586 47.6802L80.1261 48.1126L77.0991 46.8153L73.9279 46.3829L73.3514 45.6622H72.4865ZM72.0541 47.3919H73.7838L76.5225 47.8243L79.982 49.2658L81.8559 50.5631L83.8739 52.5811L85.3153 54.7432L86.3243 57.0496L86.9009 60.0766V62.0946L86.4685 64.545L85.1712 67.7162L83.8739 69.5901L82.2883 71.3198L79.8378 73.0496L77.964 73.9144L74.6486 74.7793H71.4775L69.7477 74.491L67.5856 73.7703L64.5586 72.0405L62.5405 70.1667L60.955 68.0045L59.8018 65.5541L59.0811 62.527V59.6441L59.6577 57.0496L60.955 54.1667L61.964 52.7252L64.4144 50.2748L66.4324 48.9775L69.4595 47.8243L72.0541 47.3919ZM72.1982 27.5L71.4775 28.0766V35.2838L68.8829 35.7162V43.0676L64.1261 44.7973L62.3964 41.7703L61.0991 41.6261L60.8108 42.491L62.8288 45.518L57.2072 51.2838L54.1802 49.5541L53.027 49.8423L53.4595 51.1396L56.3423 52.8694L54.3243 60.2207L50.5766 60.3649L50 61.3739L54.3243 62.0946L56.3423 69.5901L53.4595 71.1757L53.027 72.3288L54.036 72.7613L57.3514 71.0315L62.6847 76.509L60.955 79.536L61.2432 80.6892L62.5405 80.4009L64.1261 77.2297L69.027 79.2477V89.0496L66.2883 89.3378L64.8468 91.5H81.2793L79.5496 89.1937L77.0991 89.0496V79.2477L81.8559 77.3739L83.4414 80.4009L84.8829 80.545L83.1532 76.509L88.7748 70.8874L91.9459 72.7613L92.955 72.3288L92.5225 71.1757L89.4955 69.4459L91.5135 62.0946L95.5496 61.9505L95.6937 60.509L91.5135 60.2207L91.0811 56.6171L89.4955 52.7252L92.6667 50.9955L92.955 49.9865L91.6577 49.5541L88.7748 51.2838L83.1532 45.6622L85.027 42.491L84.5946 41.482L83.2973 42.0586L81.8559 44.7973L77.0991 43.0676V35.8604L74.3604 35.2838V27.9324L72.1982 27.5ZM70.1802 45.0856L74.6486 44.9414L77.5315 45.518L80.7027 46.8153L83.1532 48.4009L85.8919 51.1396L87.3333 53.3018L88.3423 55.464L89.2072 58.7793L89.3514 61.9505L88.7748 65.4099L87.9099 67.7162L86.036 70.8874L83.4414 73.6261L81.1351 75.2117L78.973 76.2207L75.2252 77.2297H70.9009L66.5766 76.0766L63.6937 74.491L60.3784 71.464L58.9369 69.4459L57.7838 67.1396L56.7748 63.6802L56.6306 59.5L57.2072 56.6171L58.7928 53.0135L59.9459 51.2838L62.3964 48.6892L63.982 47.536L66.7207 46.0946L70.1802 45.0856Z" fill="white"/>
<path d="M141.518 42.904H121.678V53.464H134.158V60.376H121.678V79H114.894V36.12H141.518V42.904ZM155.895 38.872C155.895 39.8533 155.554 40.6853 154.871 41.368C154.189 42.008 153.378 42.328 152.439 42.328C151.543 42.328 150.733 41.9867 150.007 41.304C149.325 40.5787 148.983 39.768 148.983 38.872C148.983 37.976 149.325 37.1867 150.007 36.504C150.733 35.7787 151.543 35.416 152.439 35.416C153.335 35.416 154.125 35.7787 154.807 36.504C155.533 37.1867 155.895 37.976 155.895 38.872ZM155.959 79H148.983V47.704H155.959V79ZM185.599 70.552C185.556 73.2827 184.49 75.5013 182.399 77.208C180.308 78.872 177.428 79.7253 173.759 79.768C169.578 79.7253 165.738 78.1253 162.239 74.968L166.719 70.488C169.322 72.536 171.668 73.5813 173.759 73.624C175.252 73.6667 176.511 73.368 177.535 72.728C178.602 72.0453 179.114 71.2133 179.071 70.232C179.114 69.2507 178.644 68.3333 177.663 67.48C176.682 66.6267 175.103 65.7733 172.927 64.92C169.77 63.8533 167.466 62.5307 166.015 60.952C164.564 59.3733 163.839 57.5387 163.839 55.448C163.711 53.3573 164.564 51.416 166.399 49.624C168.276 47.7893 170.73 46.872 173.759 46.872C178.367 46.9573 182.186 48.6 185.215 51.8L180.927 56.088C178.836 54.168 176.49 53.1653 173.887 53.08C172.82 53.08 171.967 53.3147 171.327 53.784C170.73 54.2107 170.41 54.808 170.367 55.576C170.324 56.2587 170.559 56.8133 171.071 57.24C171.626 57.6667 172.97 58.2853 175.103 59.096C178.132 60.0347 180.628 61.4 182.591 63.192C184.596 64.984 185.599 67.4373 185.599 70.552ZM190.194 38.744L196.85 35.416V49.304C198.728 47.7253 201.224 46.936 204.338 46.936C207.965 46.936 210.674 48.1733 212.466 50.648C214.258 53.1227 215.154 56.0027 215.154 59.288V79H208.562V59.416C208.648 57.7947 208.114 56.344 206.962 55.064C205.81 53.7413 204.36 53.1227 202.61 53.208C200.776 53.208 199.368 53.7413 198.386 54.808C197.448 55.8747 196.978 57.4107 196.978 59.416V79H190.194V38.744ZM245.849 66.2H227.417C227.417 68.2053 227.951 69.8693 229.017 71.192C230.084 72.472 231.471 73.0907 233.177 73.048C235.567 73.1333 237.401 72.088 238.681 69.912L244.761 72.408C242.628 77.1867 238.809 79.64 233.305 79.768C229.423 79.768 226.287 78.3387 223.897 75.48C221.551 72.6213 220.377 68.5253 220.377 63.192C220.377 58.7973 221.508 55 223.769 51.8C226.073 48.5573 229.252 46.936 233.305 46.936C237.103 46.936 240.132 48.4293 242.393 51.416C244.697 54.4027 245.849 59.3307 245.849 66.2ZM239.001 59.928C239.044 58.136 238.532 56.5787 237.465 55.256C236.441 53.9333 235.055 53.272 233.305 53.272C231.428 53.2293 229.935 53.9333 228.825 55.384C227.716 56.792 227.204 58.3067 227.289 59.928H239.001ZM269.44 49.112L267.2 55.32C265.92 54.04 264.619 53.4213 263.296 53.464C260.438 53.5493 258.923 55.5547 258.752 59.48V79H251.84V47.192H258.688V49.496C259.84 47.7893 261.504 46.936 263.68 46.936C265.856 46.9787 267.776 47.704 269.44 49.112ZM316.71 79H309.99V58.712C310.033 57.4747 309.499 56.2587 308.39 55.064C307.323 53.8267 306.001 53.2293 304.422 53.272C302.886 53.272 301.627 53.8267 300.646 54.936C299.707 56.0453 299.259 57.304 299.302 58.712V79H292.07V58.712C292.113 57.3893 291.601 56.152 290.534 55C289.467 53.8053 288.145 53.2293 286.566 53.272C285.158 53.3147 283.942 53.8907 282.918 55C281.937 56.0667 281.425 57.304 281.382 58.712V79H274.342V47.192H281.254V49.112C283.174 47.576 285.435 46.808 288.038 46.808C291.579 46.808 294.353 48.28 296.358 51.224C298.406 48.3227 301.243 46.872 304.87 46.872C307.985 46.872 310.715 48.0667 313.062 50.456C315.451 52.8453 316.667 55.64 316.71 58.84V79ZM347.519 79H340.927V77.976C339.263 79.1707 337.407 79.7893 335.359 79.832C331.946 79.7893 329.108 78.8293 326.847 76.952C324.628 75.032 323.519 72.2587 323.519 68.632C323.519 65.5173 324.543 62.9147 326.591 60.824C328.682 58.6907 331.498 57.6453 335.039 57.688C337.002 57.688 338.836 57.9227 340.543 58.392C340.628 55.2773 339.05 53.5707 335.807 53.272C333.034 53.1867 330.538 53.9547 328.319 55.576L324.927 50.392C327.999 48.216 331.562 47.064 335.615 46.936C338.943 46.936 341.738 47.896 343.999 49.816C346.303 51.6933 347.476 54.4453 347.519 58.072V79ZM340.351 71.768V64.728C338.474 64.216 336.596 63.96 334.719 63.96C333.226 63.96 331.988 64.4507 331.007 65.432C330.026 66.4133 329.556 67.5227 329.599 68.76C329.599 70.04 330.09 71.256 331.071 72.408C332.095 73.56 333.46 74.136 335.167 74.136C337.002 74.136 338.73 73.3467 340.351 71.768ZM353.382 47.32H360.038V49.304C361.915 47.7253 364.411 46.936 367.526 46.936C371.153 46.936 373.862 48.1733 375.654 50.648C377.446 53.1227 378.342 56.0027 378.342 59.288V79H371.75V59.416C371.835 57.7947 371.302 56.344 370.15 55.064C368.998 53.7413 367.547 53.1227 365.798 53.208C363.963 53.208 362.555 53.7413 361.574 54.808C360.635 55.8747 360.166 57.4107 360.166 59.416V79H353.382V47.32ZM391.053 39.576C391.053 41.9227 390.498 43.8427 389.389 45.336C388.28 46.8293 386.637 47.8533 384.461 48.408V47.384C386.509 46.1893 387.682 44.7387 387.981 43.032H387.597C386.701 43.032 385.89 42.6907 385.165 42.008C384.482 41.2827 384.141 40.472 384.141 39.576C384.141 38.68 384.482 37.8907 385.165 37.208C385.89 36.4827 386.701 36.12 387.597 36.12C388.493 36.12 389.282 36.4827 389.965 37.208C390.69 37.8907 391.053 38.68 391.053 39.576ZM419.474 70.552C419.431 73.2827 418.365 75.5013 416.274 77.208C414.183 78.872 411.303 79.7253 407.634 79.768C403.453 79.7253 399.613 78.1253 396.114 74.968L400.594 70.488C403.197 72.536 405.543 73.5813 407.634 73.624C409.127 73.6667 410.386 73.368 411.41 72.728C412.477 72.0453 412.989 71.2133 412.946 70.232C412.989 69.2507 412.519 68.3333 411.538 67.48C410.557 66.6267 408.978 65.7733 406.802 64.92C403.645 63.8533 401.341 62.5307 399.89 60.952C398.439 59.3733 397.714 57.5387 397.714 55.448C397.586 53.3573 398.439 51.416 400.274 49.624C402.151 47.7893 404.605 46.872 407.634 46.872C412.242 46.9573 416.061 48.6 419.09 51.8L414.802 56.088C412.711 54.168 410.365 53.1653 407.762 53.08C406.695 53.08 405.842 53.3147 405.202 53.784C404.605 54.2107 404.285 54.808 404.242 55.576C404.199 56.2587 404.434 56.8133 404.946 57.24C405.501 57.6667 406.845 58.2853 408.978 59.096C412.007 60.0347 414.503 61.4 416.466 63.192C418.471 64.984 419.474 67.4373 419.474 70.552ZM477.054 36.12L470.718 79H464.702L457.918 51.48L451.326 79H445.31L438.974 36.12H445.886L449.214 58.712L454.654 36.12H461.246L466.814 58.712L470.142 36.12H477.054ZM481.007 38.744L487.663 35.416V49.304C489.54 47.7253 492.036 46.936 495.151 46.936C498.778 46.936 501.487 48.1733 503.279 50.648C505.071 53.1227 505.967 56.0027 505.967 59.288V79H499.375V59.416C499.46 57.7947 498.927 56.344 497.775 55.064C496.623 53.7413 495.172 53.1227 493.423 53.208C491.588 53.208 490.18 53.7413 489.199 54.808C488.26 55.8747 487.791 57.4107 487.791 59.416V79H481.007V38.744ZM535.894 79H529.302V77.976C527.638 79.1707 525.782 79.7893 523.734 79.832C520.321 79.7893 517.483 78.8293 515.222 76.952C513.003 75.032 511.894 72.2587 511.894 68.632C511.894 65.5173 512.918 62.9147 514.966 60.824C517.057 58.6907 519.873 57.6453 523.414 57.688C525.377 57.688 527.211 57.9227 528.918 58.392C529.003 55.2773 527.425 53.5707 524.182 53.272C521.409 53.1867 518.913 53.9547 516.694 55.576L513.302 50.392C516.374 48.216 519.937 47.064 523.99 46.936C527.318 46.936 530.113 47.896 532.374 49.816C534.678 51.6933 535.851 54.4453 535.894 58.072V79ZM528.726 71.768V64.728C526.849 64.216 524.971 63.96 523.094 63.96C521.601 63.96 520.363 64.4507 519.382 65.432C518.401 66.4133 517.931 67.5227 517.974 68.76C517.974 70.04 518.465 71.256 519.446 72.408C520.47 73.56 521.835 74.136 523.542 74.136C525.377 74.136 527.105 73.3467 528.726 71.768ZM560.253 49.112L558.013 55.32C556.733 54.04 555.432 53.4213 554.109 53.464C551.25 53.5493 549.736 55.5547 549.565 59.48V79H542.653V47.192H549.501V49.496C550.653 47.7893 552.317 46.936 554.493 46.936C556.669 46.9787 558.589 47.704 560.253 49.112ZM578.338 53.912H573.794V79H566.882V53.912H562.85V47.704H566.882V42.904C566.882 41.0267 567.416 39.3413 568.482 37.848C569.592 36.312 571.128 35.5013 573.09 35.416C575.053 35.416 576.802 35.8 578.338 36.568V42.136C577.4 41.752 576.504 41.5387 575.65 41.496C574.456 41.5387 573.837 42.264 573.794 43.672V47.704H578.338V53.912Z" fill="white"/>
</svg>
