<svg width="605" height="119" viewBox="0 0 605 119" fill="none" xmlns="http://www.w3.org/2000/svg">
<rect x="3" y="3" width="599" height="113" rx="17" fill="#006A4E"/>
<rect x="3" y="3" width="599" height="113" rx="17" stroke="white" stroke-width="6"/>
<path d="M83.7999 78.9477C83.7125 79.8304 83.9666 80.1233 85.0128 80.4801C86.9438 81.1387 88.9275 80.5717 90.803 81.1775C91.8848 81.527 92.1653 81.9838 92.0743 83.0495C91.9676 84.2986 92.0646 85.5634 92.0613 86.8213C92.0604 87.1884 92.0577 87.5624 91.9884 87.9212C91.7778 89.012 92.1668 89.5467 93.3204 89.6324C93.8527 89.6719 94.468 89.4858 94.9045 89.6859C95.3584 89.894 95.642 90.4447 96 90.8456C95.6058 90.9971 95.2231 91.1988 94.814 91.2846C94.4745 91.3558 94.1041 91.2865 93.7473 91.2864C83.8253 91.2855 73.9032 91.2725 63.9812 91.2947C61.5744 91.3001 59.1683 91.446 56.7611 91.4829C54.5666 91.5166 52.3711 91.4901 50.2776 91.4901C49.7281 90.0073 49.9637 89.6583 51.2607 89.6435C52.1171 89.6337 52.974 89.652 53.8304 89.6395C54.9644 89.623 55.2725 89.3098 55.3191 88.2323C55.3767 86.9033 55.491 85.5758 55.5151 84.2466C55.5255 83.6705 55.7389 83.4703 56.3176 83.4348C57.0216 83.3915 57.7361 83.1213 58.4161 83.1973C59.2853 83.2943 59.3707 82.9201 59.3982 82.2779C59.4189 81.7947 59.5592 81.3162 59.7638 80.8805C60.2554 81.5723 60.6652 82.2034 60.9899 82.8725C61.1701 83.244 61.2085 83.6791 61.2305 84.0859C60.9896 84.0863 60.829 84.0861 60.6605 84.0288C60.5885 83.9066 60.5243 83.8416 60.4602 83.7765C60.4224 83.8186 60.3847 83.8607 60.3469 83.9027C60.4539 83.964 60.5609 84.0253 60.6677 84.1493C60.6687 84.2955 60.6697 84.3791 60.5715 84.478C57.2985 84.4956 57.2985 84.4956 57.0169 85.1277C58.3336 85.1277 59.5919 85.1277 60.8662 85.2222C60.8822 86.5944 60.8822 87.8721 60.8822 89.1498C61.0143 89.1507 61.1464 89.1516 61.2786 89.1525C61.2786 87.8035 61.2786 86.4545 61.3787 85.1079C61.8987 85.1103 62.3187 85.1103 62.9352 85.1103C62.9352 86.4885 62.9352 87.8068 62.9352 89.1252C63.0403 89.1204 63.1455 89.1156 63.2507 89.1108C63.2507 87.8047 63.2507 86.4986 63.2507 85.1563C64.0238 85.1563 64.6783 85.1563 65.4611 85.1563C65.4611 86.5281 65.4611 87.8487 65.4611 89.1693C65.5561 89.1697 65.6511 89.1701 65.7461 89.1706C65.7461 87.8385 65.7461 86.5065 65.7461 85.1673C66.4899 85.1673 67.0764 85.1673 67.8472 85.1673C67.8472 86.5491 67.8472 87.8864 67.8472 89.2237C67.95 89.2176 68.0527 89.2116 68.1555 89.2056C68.1555 87.8579 68.1555 86.5102 68.1555 85.1547C68.9107 85.1547 69.5432 85.1547 70.2853 85.1547C70.2853 86.5394 70.2853 87.8867 70.2853 89.2341C70.3674 89.232 70.4495 89.2299 70.5316 89.2278C70.5316 87.8862 70.5316 86.5445 70.5316 85.1784C71.4407 85.1784 72.2402 85.1784 73.2134 85.1784C73.2134 86.6229 73.2134 88.0076 73.2134 89.3923C73.3108 89.3882 73.4082 89.384 73.5056 89.3798C73.5056 87.9726 73.5056 86.5653 73.5056 85.1755C74.2832 85.1755 74.9421 85.1755 75.7259 85.1755C75.7259 86.4837 75.7259 87.7349 75.7259 88.9861C75.8256 88.9861 75.9253 88.9861 76.025 88.9861C76.025 87.72 76.025 86.4539 76.025 85.1341C77.566 85.1341 78.9372 85.1341 80.3935 85.1341C80.3935 86.4086 80.3935 87.6555 80.3935 88.8662C79.2395 88.9499 78.1171 89.0313 76.9948 89.1127C77.0086 89.2212 77.0223 89.3296 77.0361 89.438C78.463 89.438 79.8906 89.4646 81.3166 89.4305C82.7035 89.3973 84.1142 89.5851 85.4737 89.1864C85.2912 89.0451 85.1172 89.0215 84.9424 89.015C83.5071 88.9617 83.4938 88.9627 83.4879 87.6122C83.4775 85.2235 83.485 82.8347 83.485 80.3396C82.5915 80.3396 81.7911 80.3396 80.9115 80.3396C80.9528 79.8719 80.9837 79.5221 81.0198 79.1144C81.5538 79.1144 81.9584 79.1144 82.363 79.1144C82.3643 79.0722 82.3655 79.0301 82.3668 78.988C81.9174 78.9522 81.468 78.9164 80.9493 78.8751C80.9251 78.3519 80.9024 77.8613 80.8781 77.3343C81.3745 77.3091 81.8151 77.2868 82.2558 77.2645C82.2666 77.1895 82.2775 77.1145 82.2883 77.0395C81.8132 76.9552 81.3381 76.871 80.869 76.7878C80.869 76.2822 80.869 75.8051 80.869 75.2856C81.4082 75.2597 81.9282 75.2348 82.4481 75.2099C82.4579 75.1436 82.4676 75.0774 82.4774 75.0112C81.9542 74.9209 81.431 74.8307 80.8755 74.7348C80.8755 74.179 80.8755 73.6182 80.8755 73.0613C81.3522 73.0179 81.7661 72.9802 82.1801 72.9425C82.1798 72.9027 82.1795 72.863 82.1793 72.8232C81.7417 72.7893 81.3042 72.7555 80.8573 72.7209C80.8573 72.1714 80.8573 71.672 80.8573 71.1429C81.3939 71.1161 81.8852 71.0916 82.3765 71.067C82.3773 70.9677 82.3781 70.8683 82.3789 70.769C81.8845 70.7372 81.3902 70.7055 80.8546 70.6711C80.8546 70.1142 80.8546 69.617 80.8546 69.045C81.4042 69.045 81.9098 69.045 82.4155 69.045C82.4245 68.9709 82.4335 68.8968 82.4426 68.8227C81.9214 68.736 81.4002 68.6493 80.8515 68.5581C80.8515 68.045 80.8515 67.5459 80.8515 67.0228C81.3054 66.9901 81.7131 66.9607 82.1209 66.9314C82.118 66.8508 82.1151 66.7701 82.1122 66.6895C81.6898 66.6335 81.2673 66.5774 80.854 66.5226C80.854 65.9548 80.854 65.4502 80.854 64.8682C81.3284 64.8682 81.7588 64.8682 82.1891 64.8682C82.1945 64.7876 82.1998 64.7071 82.2052 64.6265C81.7561 64.5802 81.307 64.5338 80.8598 64.4876C80.8598 63.9322 80.8598 63.4343 80.8598 62.9405C81.3441 62.9132 81.7718 62.889 82.1994 62.8649C82.2014 62.8089 82.2035 62.753 82.2055 62.697C81.7674 62.6436 81.3293 62.5902 80.8432 62.531C80.8432 61.9767 80.8432 61.4198 80.8432 60.8752C81.2674 60.8491 81.6196 60.8275 81.9718 60.8059C81.9747 60.7515 81.9775 60.6971 81.9804 60.6427C81.5918 60.5823 81.2032 60.522 80.8458 60.4665C80.8458 59.8774 80.8458 59.3512 80.8458 58.7942C81.2829 58.7942 81.65 58.7942 82.0171 58.7942C80.6533 58.4365 80.6533 58.4365 80.8328 56.7713C81.2131 56.7463 81.5991 56.721 81.9851 56.6957C81.9865 56.6355 81.988 56.5754 81.9894 56.5152C81.5588 56.4252 81.1282 56.3352 80.6654 56.2384C80.6654 55.7353 80.6654 55.2372 80.6654 54.745C81.0211 54.6954 81.3211 54.6535 81.6211 54.6117C81.6176 54.567 81.6142 54.5222 81.6107 54.4775C81.2802 54.421 80.9498 54.3644 80.621 54.3081C80.621 53.7765 80.621 53.3033 80.621 52.836C81.0548 52.7598 81.4544 52.6897 81.8539 52.6195C81.8424 52.5604 81.8308 52.5013 81.8193 52.4422C81.4063 52.4132 80.9934 52.3842 80.5319 52.3518C80.5562 51.6093 80.1281 50.7929 80.9579 50.5979C80.7862 50.1778 80.478 49.7484 80.4831 49.3224C80.4865 49.0372 80.9349 48.757 81.1935 48.464C80.9999 48.4055 80.7049 48.3163 80.4143 48.2285C80.2297 45.072 80.2492 44.9468 80.7158 44.7723C80.5483 44.3063 80.3022 43.8869 80.2844 43.4589C80.2756 43.2476 80.6884 43.0202 80.7272 42.9817C80.5179 42.6114 80.2257 42.2988 80.1851 41.9586C80.152 41.6807 80.4194 41.3697 80.589 40.9948C79.5524 40.9938 80.0004 40.1679 79.9859 39.5171C80.2721 39.539 80.5084 39.5572 80.7446 39.5753C80.7556 39.5108 80.7666 39.4463 80.7776 39.3818C80.5076 39.308 80.2376 39.2342 80.0039 39.1704C79.6113 36.064 79.2309 32.9931 78.8181 29.9262C78.7911 29.7255 78.5286 29.4098 78.3549 29.3965C77.5934 29.3381 76.8243 29.3713 75.9934 29.3713C76.7653 29.9632 78.0305 29.0057 78.6096 30.4555C77.5511 30.4555 76.7378 30.4555 75.6937 30.4555C76.7463 31.0565 78.2003 30.2177 78.7882 31.8214C77.6156 31.8214 76.6752 31.8214 75.6353 31.8214C76.6737 32.5358 78.3239 31.2644 79.0515 33.1325C77.7727 33.1325 76.7505 33.1325 75.7283 33.1325C75.7263 33.2078 75.7243 33.2831 75.7222 33.3585C76.7583 33.4228 77.7943 33.4872 78.8172 33.5507C78.8974 34.3594 78.9728 35.1185 79.0534 35.9309C77.7806 35.9309 76.5422 35.9309 75.3039 35.9309C76.3049 36.1613 77.3046 36.2811 78.3058 36.2955C79.2726 36.3093 79.4611 36.7373 79.2235 37.4722C77.8491 37.4722 76.5105 37.4722 75.1719 37.4722C75.169 37.559 75.166 37.6459 75.1631 37.7327C76.5203 37.7327 77.8776 37.7327 79.2607 37.7327C79.3467 38.3236 79.4067 38.7362 79.4737 39.1963C77.9026 39.1293 76.4737 39.0684 75.0447 39.0074C75.0378 39.14 75.0308 39.2725 75.0239 39.4051C76.4998 39.4051 77.9758 39.4051 79.4383 39.4051C79.4383 40.0581 79.4383 40.4502 79.4383 40.764C77.8814 40.764 76.3985 40.764 74.9157 40.764C74.9113 40.853 74.9069 40.942 74.9025 41.031C76.435 41.031 77.9676 41.031 79.5134 41.031C79.5881 41.6473 79.6402 42.0762 79.7049 42.6101C78.0473 42.6101 76.4607 42.6101 74.8742 42.6101C74.8754 42.7056 74.8766 42.8011 74.8778 42.8967C76.4875 42.8967 78.0971 42.8967 79.6921 42.8967C79.6921 43.5165 79.6921 43.9477 79.6921 44.4339C78.0256 44.4339 76.4134 44.4339 74.8012 44.4339C74.7965 44.5256 74.7918 44.6174 74.7871 44.7092C76.4406 44.7092 78.094 44.7092 79.7493 44.7092C79.7493 45.3996 79.7493 45.8694 79.7493 46.3391C78.0228 46.3391 76.3426 46.3391 74.6625 46.3391C74.6594 46.4389 74.6564 46.5387 74.6534 46.6384C76.3597 46.6384 78.066 46.6384 79.8423 46.6384C79.8423 47.2912 79.8423 47.7497 79.8423 48.2821C78.0815 48.2821 76.3546 48.2821 74.6277 48.2821C74.6278 48.3605 74.6279 48.4389 74.6281 48.5173C76.3757 48.5949 78.1234 48.6726 79.8886 48.751C79.8886 49.2866 79.8886 49.7691 79.8886 50.2601C78.0729 50.2601 76.3377 50.2601 74.6025 50.2601C74.601 50.3626 74.5994 50.465 74.5979 50.5675C76.3716 50.5675 78.1453 50.5675 79.9308 50.5675C79.9308 51.2853 79.9308 51.8078 79.9308 52.3445C78.1018 52.3445 76.3544 52.3445 74.6069 52.3445C74.6074 52.4528 74.6079 52.5611 74.6084 52.6693C76.4352 52.6693 78.2619 52.6693 80.0798 52.6693C80.0798 53.315 80.0798 53.7762 80.0798 54.3333C78.2221 54.3333 76.4206 54.3333 74.6192 54.3333C74.6193 54.4255 74.6195 54.5176 74.6196 54.6098C76.4422 54.6098 78.2649 54.6098 80.1212 54.6098C80.1212 55.2797 80.1212 55.7708 80.1212 56.3498C78.2279 56.3498 76.3843 56.3498 74.5406 56.3498C74.5394 56.414 74.5382 56.4782 74.537 56.5424C76.4267 56.6231 78.3164 56.7038 80.1855 56.7836C80.1855 57.3627 80.1855 57.8323 80.1855 58.4131C78.298 58.4131 76.4449 58.4131 74.5919 58.4131C74.5898 58.5179 74.5877 58.6226 74.5856 58.7273C76.4219 58.7273 78.2583 58.7273 80.155 58.7273C80.1888 59.4158 80.2128 59.9044 80.242 60.5004C78.2836 60.5004 76.4431 60.5004 74.6027 60.5004C74.603 60.5878 74.6033 60.6753 74.6036 60.7627C76.4897 60.7627 78.3757 60.7627 80.2985 60.7627C80.2985 61.4239 80.2985 61.927 80.2985 62.5544C78.3989 62.5544 76.5293 62.5544 74.6597 62.5544C74.6615 62.6494 74.6633 62.7444 74.6651 62.8395C76.5317 62.8395 78.3984 62.8395 80.3036 62.8395C80.3036 63.4953 80.3036 63.9893 80.3036 64.4983C78.3674 64.5151 76.4755 64.1735 74.607 64.4745C74.6074 64.5991 74.6079 64.7236 74.6084 64.8481C76.5132 64.8481 78.418 64.8481 80.305 64.8481C80.305 65.5242 80.305 66.02 80.305 66.6377C78.3748 66.6377 76.5067 66.6377 74.6385 66.6377C74.6412 66.7249 74.6438 66.812 74.6465 66.8991C76.5241 66.8991 78.4018 66.8991 80.3006 66.8991C80.3006 67.5544 80.3006 68.0816 80.3006 68.6281C78.377 68.6281 76.5218 68.6281 74.6666 68.6281C74.6681 68.7348 74.6697 68.8415 74.6712 68.9481C76.5467 68.9481 78.4221 68.9481 80.3198 68.9481C80.3198 69.602 80.3198 70.0983 80.3198 70.6786C78.3877 70.6786 76.5067 70.6786 74.6257 70.6786C74.6263 70.7718 74.627 70.865 74.6276 70.9582C76.5123 70.9582 78.3969 70.9582 80.3158 70.9582C80.3158 71.6569 80.3158 72.1881 80.3158 72.7492C78.3951 72.7492 76.5271 72.7492 74.6592 72.7492C74.6602 72.8355 74.6613 72.9219 74.6623 73.0083C76.5348 73.0083 78.4073 73.0083 80.3065 73.0083C80.3065 73.6681 80.3065 74.2251 80.3065 74.8875C78.3709 74.8875 76.4995 74.8875 74.628 74.8875C74.6289 74.9848 74.6299 75.082 74.6309 75.1793C76.5306 75.1793 78.4302 75.1793 80.354 75.1793C80.354 75.8435 80.354 76.3362 80.354 76.9149C78.4452 76.9149 76.585 76.9149 74.7247 76.9149C74.7215 77.008 74.7183 77.1011 74.7151 77.1942C76.6031 77.1942 78.4911 77.1942 80.3926 77.1942C80.3926 77.8802 80.3926 78.3726 80.3926 78.8888C78.5383 78.8888 76.7423 78.8888 74.9463 78.8888C74.946 78.9818 74.9458 79.0749 74.9456 79.1679C76.7685 79.1679 78.5915 79.1679 80.4204 79.1679C80.4204 79.6232 80.4204 79.9405 80.4204 80.2601C77.3702 80.2601 74.3966 80.2601 71.3039 80.2601C71.5544 63.0952 70.6241 45.9658 73.674 28.994C73.5861 28.9759 73.4982 28.9577 73.4103 28.9395C73.081 30.3869 72.7518 31.8343 72.3613 33.2896C72.285 33.4317 72.2699 33.5658 72.2441 33.7825C72.2299 34.0817 72.2264 34.2984 72.1537 34.5256C72.0696 34.7372 72.0547 34.9382 72.0287 35.2272C72.0075 35.6659 71.9975 36.0166 71.9269 36.3756C71.8526 36.5174 71.839 36.6511 71.8143 36.8661C71.8012 37.1651 71.7992 37.3827 71.7217 37.6151C71.6346 37.9653 71.6232 38.3008 71.6006 38.7263C71.5822 39.2341 71.5748 39.6518 71.5073 40.0778C71.3823 40.1497 71.3174 40.2135 71.2525 40.2772C71.3533 40.344 71.454 40.4109 71.569 40.5619C71.5108 41.1393 71.4382 41.6326 71.2904 42.1407C71.2043 42.4908 71.1935 42.826 71.1716 43.2563C71.0876 44.9997 71.0148 46.648 70.8606 48.315C70.7712 48.9408 70.7632 49.548 70.7439 50.2498C70.7239 51.1705 70.7151 51.9967 70.6243 52.8447C70.4666 53.8121 70.3751 54.7569 70.3334 55.7038C70.3276 55.8342 70.5686 55.9746 70.7113 56.1767C70.7157 56.4674 70.7041 56.6919 70.6066 56.9496C70.5704 57.5145 70.6202 58.0463 70.6876 58.6734C70.6846 65.7521 70.656 72.7357 70.6655 79.7192C70.666 80.0835 70.9899 80.4473 71.1846 80.8902C72.068 81.2757 72.927 81.53 73.8056 80.8165C74.1857 80.8127 74.4902 80.8243 74.8133 80.9053C74.9423 80.9281 75.0525 80.8817 75.2387 80.8193C75.5731 80.814 75.8315 80.8246 76.1142 80.9129C76.2513 81.0585 76.3634 81.1846 76.4769 81.1857C78.0909 81.2021 79.7052 81.2129 81.3189 81.1894C81.5034 81.1867 81.6845 80.9691 81.9522 80.8343C82.2664 80.8314 82.4956 80.8455 82.725 80.9289C82.7255 81.137 82.7256 81.2757 82.6637 81.476C82.5717 83.6236 82.561 85.7104 82.4887 87.7951C82.4793 88.0692 82.155 88.3331 81.9765 88.6018C81.7983 88.3331 81.566 88.0835 81.4544 87.7914C81.2767 87.3263 81.1794 86.8329 81.0313 86.2613C81.0148 86.0034 80.9945 85.8329 81.0188 85.6686C81.1557 84.7444 80.7714 84.3751 79.7888 84.4822C79.2052 84.5459 78.6055 84.4732 77.9891 84.3839C77.8519 84.2372 77.739 84.1093 77.6252 84.1086C75.2934 84.0935 72.9614 84.0848 70.6298 84.1057C70.4499 84.1073 70.2722 84.3377 70.0083 84.4772C69.693 84.4825 69.4629 84.4722 69.2152 84.3915C68.5384 83.9985 67.8979 83.9073 67.2166 84.4771C66.6846 84.4823 66.2455 84.4721 65.7874 84.3904C65.3107 84.018 64.8671 83.8317 64.4369 84.4778C64.0491 84.4832 63.7499 84.4729 63.4337 84.3924C63.1433 84.2432 62.8699 84.1644 62.5975 84.0152C62.7403 83.7185 62.8822 83.4921 63.0892 83.2656C63.2408 83.2643 63.3275 83.2633 63.4322 83.3378C63.7139 83.4915 63.9776 83.5696 64.3438 83.6557C65.4406 83.671 66.5684 83.9946 67.0032 82.6694C67.0083 82.6537 67.0674 82.6543 67.117 82.7275C67.1422 83.7464 67.1585 83.7633 67.8511 83.4462C68.2087 82.6639 68.4903 81.9032 67.7557 81.126C68.0599 80.9181 68.38 80.7932 68.6295 80.6959C68.6295 77.5045 68.6388 74.3035 68.627 71.1025C68.6147 67.756 68.5823 64.4096 68.5587 61.0632C68.6066 60.3743 68.6513 59.6851 68.7032 58.9965C68.7782 58.0001 68.8564 57.004 68.9379 56.0082C68.9545 55.8056 69.0153 55.6048 69.0164 55.403C69.024 53.9373 68.9491 52.4674 69.0382 51.0066C69.1979 48.3897 69.4247 45.7755 69.6788 43.1652C69.9201 40.6863 70.194 38.209 70.5291 35.7404C70.7022 34.4656 71.0376 33.2109 71.303 31.9477C71.5189 30.9199 71.7036 29.8844 71.9688 28.8682C72.229 27.871 73.113 27.5846 74.0221 27.5364C75.3541 27.4656 76.6933 27.52 78.0295 27.5195C79.455 27.519 79.9354 27.7958 80.1715 29.126C80.7837 32.5747 81.4237 36.0248 81.8435 39.4976C82.3294 43.5165 82.6044 47.5594 82.9459 51.5938C83.1154 53.5952 83.2978 55.5993 83.3534 57.6052C83.4729 61.9106 83.5139 66.2181 83.5856 70.7171C83.5836 72.7884 83.5728 74.6675 83.5921 76.5462C83.5954 76.8673 83.7273 77.1873 83.7998 77.5078C83.7998 77.5078 83.8009 77.6074 83.7422 77.709C83.7224 78.1896 83.7612 78.5687 83.7999 78.9477ZM87.7764 84.511C87.3159 84.6199 86.6283 84.214 86.264 85.1868C87.18 85.1868 88.0252 84.9598 88.5365 85.259C88.9411 85.4958 88.9358 86.3786 89.1266 87.0221C89.9596 85.404 89.5235 84.5 87.7764 84.511Z" fill="white"/>
<path d="M63.0242 83.2656C62.8823 83.492 62.7403 83.7184 62.5057 84.0157C62.0455 84.0862 61.6782 84.0858 61.3108 84.0854C61.2085 83.6789 61.1702 83.2439 60.9899 82.8724C60.6652 82.2032 60.2554 81.5722 59.8467 80.8605C59.8123 80.0359 59.8123 79.276 59.8645 78.3773C59.8818 77.9253 59.847 77.6121 59.8122 77.2989C59.812 77.2076 59.8118 77.1163 59.8132 76.8784C59.9157 76.4481 60.0043 76.1597 60.12 75.8817C60.3308 75.3752 60.1439 75.1086 59.6006 75.037C59.6004 74.8819 59.6001 74.7269 59.6586 74.4512C60.395 73.7034 60.07 73.0316 59.8123 72.3627C59.8121 72.2711 59.812 72.1795 59.8119 71.9332C60.0888 71.0276 60.3074 70.2505 60.6563 69.5318C61.1737 68.466 60.9087 67.6598 59.8076 67.3776C60.1701 65.9232 61.0699 64.4845 60.0689 62.7846C60.5503 62.5444 61.0818 62.2251 61.6558 62.0116C62.0419 61.868 62.4884 61.874 62.9078 61.813C62.8328 62.2511 62.8271 62.7142 62.6682 63.1223C62.3433 63.9566 61.5642 64.6023 61.8614 65.6794C62.142 66.6964 62.1549 67.7791 62.3683 68.8172C62.4204 69.0705 62.7964 69.2623 63.0239 69.5788C63.0243 74.2053 63.0242 78.7355 63.0242 83.2656Z" fill="white"/>
<path d="M63.0234 69.4828C62.7964 69.2627 62.4205 69.0709 62.3684 68.8177C62.155 67.7796 62.1421 66.6968 61.8614 65.6799C61.5642 64.6028 62.3434 63.9571 62.6683 63.1227C62.8271 62.7147 62.8328 62.2516 62.9078 61.8134C62.4884 61.8744 62.042 61.8684 61.6559 62.0121C61.0818 62.2256 60.5504 62.5448 60.069 62.785C61.0699 64.4849 60.1701 65.9236 59.8076 67.378C60.9087 67.6603 61.1738 68.4664 60.6563 69.5323C60.3074 70.2509 60.0889 71.028 59.8122 71.8649C59.6701 71.6501 59.4147 71.3529 59.4049 71.0483C59.3605 69.666 59.3853 68.2816 59.3853 66.898C59.3853 66.3855 59.3856 65.8731 59.3856 65.3606C59.3854 62.4044 59.3849 62.4035 62.0845 61.0291C62.2369 60.9515 62.4089 60.855 62.5706 60.857C64.1844 60.8769 65.7979 60.9157 67.4673 61.1057C67.5324 62.3524 67.5419 63.4425 67.4842 64.5919C67.3804 66.9474 67.3437 69.2436 67.223 71.5198C67.0527 71.2949 66.892 71.0903 66.8915 70.8853C66.8861 68.8973 66.8998 66.9092 66.9257 64.9213C66.9339 64.2894 66.8616 63.7503 66.0237 63.6596C66.0227 63.5107 66.0218 63.4256 66.0825 63.3049C66.1033 63.0741 66.0626 62.8789 66.0027 62.6073C65.3926 62.1986 64.8127 61.9917 64.2217 62.6806C63.3281 62.5159 63.4588 63.0884 63.3324 63.5428C63.1759 63.8779 63.0396 64.1893 63.0354 64.5023C63.0131 66.1622 63.024 67.8226 63.0234 69.4828ZM66.307 61.5396C66.2497 61.6769 66.1925 61.8142 66.1352 61.9515C66.2549 61.9655 66.3746 61.9795 66.4943 61.9936C66.4735 61.86 66.4526 61.7264 66.307 61.5396Z" fill="white"/>
<path d="M67.5515 64.5323C67.542 63.4422 67.5326 62.352 67.5267 61.1673C67.816 61.0671 68.1016 61.0615 68.4731 61.0596C68.5825 64.4096 68.6149 67.756 68.6272 71.1024C68.639 74.3034 68.6298 77.5045 68.6298 80.6958C68.3802 80.7932 68.0601 80.9181 67.7411 81.2192C67.7518 82.0863 67.7615 82.7772 67.7711 83.4681C67.1587 83.7632 67.1424 83.7463 67.147 82.638C67.1473 81.8457 67.1337 81.2232 67.1674 80.5894C67.275 80.5053 67.3353 80.4323 67.4289 80.3461C67.4622 80.3328 67.493 80.2701 67.5615 80.2217C67.6665 80.013 67.7345 79.8527 67.7347 79.6923C67.7399 74.849 67.7407 70.0058 67.73 65.1625C67.7295 64.9523 67.6136 64.7424 67.5515 64.5323Z" fill="#006A4E"/>
<path d="M83.8003 77.4111C83.7273 77.1873 83.5954 76.8674 83.592 76.5462C83.5727 74.6675 83.5835 72.7885 83.5898 70.8135C83.6671 71.037 83.7979 71.3562 83.8007 71.6765C83.8173 73.5556 83.804 75.435 83.8003 77.4111Z" fill="white"/>
<path d="M59.7302 72.3823C60.0698 73.032 60.3949 73.7038 59.6593 74.3741C59.617 73.7453 59.6327 73.0734 59.7302 72.3823Z" fill="white"/>
<path d="M59.5996 75.1242C60.1436 75.1086 60.3304 75.3753 60.1197 75.8818C60.004 76.1598 59.9154 76.4482 59.8131 76.81C59.7408 76.3292 59.6699 75.7703 59.5996 75.1242Z" fill="white"/>
<path d="M59.7443 77.3101C59.847 77.6125 59.8818 77.9256 59.8649 78.2829C59.7677 77.9916 59.7221 77.6562 59.7443 77.3101Z" fill="white"/>
<path d="M83.8004 78.859C83.7613 78.5686 83.7225 78.1896 83.742 77.7588C83.8004 78.0615 83.8006 78.4159 83.8004 78.859Z" fill="white"/>
<path d="M60.85 85.1277C59.5916 85.1277 58.3333 85.1277 57.0166 85.1277C57.2982 84.4955 57.2982 84.4955 60.6695 84.4914C61.728 84.4805 62.5892 84.4716 63.4504 84.4626C63.7496 84.4729 64.0488 84.4831 64.5273 84.4912C65.0731 84.48 65.4396 84.4709 65.8061 84.4619C66.2452 84.4721 66.6843 84.4822 67.3117 84.4904C68.0774 84.4795 68.655 84.4707 69.2325 84.4619C69.4626 84.4721 69.6927 84.4824 70.1074 84.4907C72.8655 84.4798 75.4391 84.4708 78.0127 84.4618C78.6052 84.4732 79.2049 84.5458 79.7885 84.4822C80.7711 84.375 81.1554 84.7444 81.0185 85.6686C80.9942 85.8329 81.0145 86.0033 81.0165 86.356C81.0188 87.35 81.0188 88.1589 81.0188 88.99C81.6128 88.99 82.1014 88.99 82.847 88.99C83.0064 86.4685 82.9341 83.9419 82.907 81.3498C82.8583 81.1421 82.7914 81.0008 82.7244 80.8595C82.4953 80.8454 82.2661 80.8314 81.8529 80.8189C79.809 80.8254 77.9493 80.8302 76.0896 80.8351C75.8312 80.8245 75.5728 80.8139 75.1776 80.806C74.9586 80.8177 74.8764 80.8268 74.7943 80.8359C74.4899 80.8243 74.1854 80.8126 73.7077 80.8028C72.744 80.8068 71.9535 80.809 71.163 80.8113C70.9896 80.4472 70.6657 80.0834 70.6652 79.7192C70.6558 72.7357 70.6843 65.7521 70.7045 58.5924C70.7 57.9163 70.6961 57.4163 70.6922 56.9164C70.7038 56.6918 70.7154 56.4673 70.7251 56.0815C70.7175 54.8878 70.7117 53.8553 70.706 52.8228C70.7148 51.9966 70.7236 51.1705 70.8212 50.2057C70.9206 49.4768 70.9311 48.8866 70.9416 48.2964C71.0145 46.648 71.0874 44.9996 71.2457 43.2193C71.3426 42.7668 71.354 42.4463 71.3654 42.1258C71.438 41.6325 71.5105 41.1392 71.5842 40.4946C71.5794 40.2519 71.5733 40.1607 71.5672 40.0695C71.5746 39.6517 71.5819 39.234 71.6742 38.6885C71.7718 38.2406 71.7844 37.9205 71.797 37.6003C71.7989 37.3826 71.8009 37.165 71.8757 36.8417C71.9614 36.6131 71.9743 36.4902 71.9872 36.3673C71.9972 36.0166 72.0073 35.6659 72.096 35.1969C72.1907 34.8908 72.2067 34.7029 72.2227 34.515C72.2262 34.2983 72.2296 34.0817 72.3055 33.758C72.3927 33.5279 72.4075 33.4047 72.4223 33.2816C72.7515 31.8342 73.0807 30.3868 73.41 28.9395C73.4979 28.9576 73.5858 28.9758 73.6737 28.994C70.6238 45.9657 71.5542 63.0951 71.3036 80.2601C74.3963 80.2601 77.3699 80.2601 80.4201 80.2601C80.4201 79.9404 80.4201 79.6231 80.4201 79.1678C78.5912 79.1678 76.7682 79.1678 74.9453 79.1678C74.9455 79.0748 74.9457 78.9817 74.946 78.8887C76.742 78.8887 78.538 78.8887 80.3923 78.8887C80.3923 78.3725 80.3923 77.8802 80.3923 77.1941C78.4908 77.1941 76.6028 77.1941 74.7148 77.1941C74.718 77.101 74.7212 77.0079 74.7244 76.9148C76.5847 76.9148 78.4449 76.9148 80.3537 76.9148C80.3537 76.3361 80.3537 75.8435 80.3537 75.1792C78.4299 75.1792 76.5303 75.1792 74.6306 75.1792C74.6296 75.082 74.6287 74.9847 74.6277 74.8874C76.4992 74.8874 78.3707 74.8874 80.3062 74.8874C80.3062 74.225 80.3062 73.668 80.3062 73.0082C78.407 73.0082 76.5345 73.0082 74.662 73.0082C74.661 72.9219 74.6599 72.8355 74.6589 72.7491C76.5268 72.7491 78.3948 72.7491 80.3155 72.7491C80.3155 72.1881 80.3155 71.6568 80.3155 70.9582C78.3966 70.9582 76.512 70.9582 74.6273 70.9582C74.6267 70.8649 74.626 70.7717 74.6254 70.6785C76.5064 70.6785 78.3874 70.6785 80.3196 70.6785C80.3196 70.0983 80.3196 69.6019 80.3196 68.9481C78.4218 68.9481 76.5464 68.9481 74.6709 68.9481C74.6694 68.8414 74.6678 68.7347 74.6663 68.628C76.5215 68.628 78.3767 68.628 80.3003 68.628C80.3003 68.0816 80.3003 67.5543 80.3003 66.8991C78.4015 66.8991 76.5238 66.8991 74.6462 66.8991C74.6435 66.8119 74.6409 66.7248 74.6382 66.6376C76.5064 66.6376 78.3745 66.6376 80.3047 66.6376C80.3047 66.02 80.3047 65.5242 80.3047 64.8481C78.4177 64.8481 76.5129 64.8481 74.6081 64.8481C74.6076 64.7235 74.6071 64.599 74.6067 64.4745C76.4752 64.1734 78.3671 64.5151 80.3033 64.4982C80.3033 63.9892 80.3033 63.4952 80.3033 62.8394C78.3981 62.8394 76.5314 62.8394 74.6648 62.8394C74.663 62.7444 74.6612 62.6493 74.6594 62.5543C76.529 62.5543 78.3986 62.5543 80.2982 62.5543C80.2982 61.9269 80.2982 61.4239 80.2982 60.7626C78.3754 60.7626 76.4894 60.7626 74.6033 60.7626C74.603 60.6752 74.6027 60.5878 74.6024 60.5003C76.4429 60.5003 78.2833 60.5003 80.2418 60.5003C80.2125 59.9043 80.1885 59.4157 80.1547 58.7273C78.258 58.7273 76.4216 58.7273 74.5853 58.7273C74.5874 58.6225 74.5895 58.5178 74.5916 58.4131C76.4446 58.4131 78.2977 58.4131 80.1853 58.4131C80.1853 57.8323 80.1853 57.3626 80.1853 56.7835C78.3161 56.7037 76.4264 56.623 74.5367 56.5423C74.5379 56.4781 74.5391 56.4139 74.5403 56.3497C76.384 56.3497 78.2276 56.3497 80.1209 56.3497C80.1209 55.7707 80.1209 55.2796 80.1209 54.6097C78.2646 54.6097 76.4419 54.6097 74.6193 54.6097C74.6192 54.5176 74.619 54.4254 74.6189 54.3333C76.4204 54.3333 78.2218 54.3333 80.0795 54.3333C80.0795 53.7761 80.0795 53.3149 80.0795 52.6693C78.2616 52.6693 76.4349 52.6693 74.6081 52.6693C74.6076 52.561 74.6071 52.4527 74.6066 52.3445C76.3541 52.3445 78.1016 52.3445 79.9305 52.3445C79.9305 51.8077 79.9305 51.2852 79.9305 50.5674C78.145 50.5674 76.3713 50.5674 74.5976 50.5674C74.5992 50.465 74.6007 50.3625 74.6022 50.2601C76.3374 50.2601 78.0726 50.2601 79.8883 50.2601C79.8883 49.769 79.8883 49.2865 79.8883 48.751C78.1231 48.6725 76.3754 48.5949 74.6278 48.5172C74.6277 48.4388 74.6275 48.3604 74.6274 48.282C76.3543 48.282 78.0812 48.282 79.842 48.282C79.842 47.7496 79.842 47.2911 79.842 46.6384C78.0657 46.6384 76.3594 46.6384 74.6531 46.6384C74.6561 46.5386 74.6592 46.4388 74.6622 46.339C76.3423 46.339 78.0225 46.339 79.749 46.339C79.749 45.8694 79.749 45.3995 79.749 44.7091C78.0937 44.7091 76.4403 44.7091 74.7868 44.7091C74.7915 44.6173 74.7962 44.5256 74.8009 44.4338C76.4131 44.4338 78.0253 44.4338 79.6918 44.4338C79.6918 43.9477 79.6918 43.5164 79.6918 42.8966C78.0968 42.8966 76.4872 42.8966 74.8775 42.8966C74.8763 42.8011 74.8751 42.7056 74.8739 42.61C76.4604 42.61 78.047 42.61 79.7046 42.61C79.6399 42.0761 79.5878 41.6472 79.5131 41.031C77.9673 41.031 76.4347 41.031 74.9022 41.031C74.9066 40.942 74.911 40.853 74.9154 40.764C76.3983 40.764 77.8812 40.764 79.438 40.764C79.438 40.4502 79.438 40.0581 79.438 39.405C77.9755 39.405 76.4995 39.405 75.0236 39.405C75.0305 39.2725 75.0375 39.1399 75.0444 39.0073C76.4734 39.0683 77.9023 39.1292 79.4734 39.1963C79.4064 38.7361 79.3464 38.3236 79.2604 37.7326C77.8773 37.7326 76.52 37.7326 75.1628 37.7326C75.1657 37.6458 75.1687 37.559 75.1716 37.4721C76.5102 37.4721 77.8488 37.4721 79.2232 37.4721C79.4608 36.7372 79.2723 36.3093 78.3055 36.2954C77.3043 36.281 76.3047 36.1613 75.3036 35.9308C76.5419 35.9308 77.7803 35.9308 79.0531 35.9308C78.9725 35.1185 78.8971 34.3594 78.8169 33.5507C77.794 33.4871 76.758 33.4228 75.7219 33.3584C75.724 33.2831 75.726 33.2078 75.728 33.1325C76.7502 33.1325 77.7724 33.1325 79.0512 33.1325C78.3236 31.2643 76.6734 32.5357 75.635 31.8214C76.6749 31.8214 77.6153 31.8214 78.7879 31.8214C78.2 30.2177 76.746 31.0565 75.6934 30.4555C76.7376 30.4555 77.5509 30.4555 78.6093 30.4555C78.0302 29.0057 76.765 29.9631 75.9931 29.3712C76.824 29.3712 77.5931 29.338 78.3546 29.3964C78.5283 29.4097 78.7908 29.7254 78.8178 29.9261C79.2306 32.993 79.611 36.064 80.0036 39.1703C80.2373 39.2342 80.5073 39.308 80.7773 39.3818C80.7663 39.4462 80.7553 39.5107 80.7443 39.5752C80.5081 39.5571 80.2718 39.539 79.9856 39.517C80.0001 40.1678 79.5521 40.9937 80.5888 40.9947C80.4191 41.3696 80.1517 41.6806 80.1848 41.9586C80.2254 42.2988 80.5176 42.6113 80.7269 42.9817C80.6881 43.0201 80.2753 43.2475 80.2841 43.4588C80.3019 43.8869 80.5481 44.3062 80.7155 44.7722C80.2489 44.9467 80.2294 45.072 80.414 48.2284C80.7046 48.3163 80.9996 48.4054 81.1932 48.4639C80.9346 48.7569 80.4862 49.0372 80.4828 49.3223C80.4777 49.7483 80.7859 50.1778 80.9576 50.5978C80.1278 50.7929 80.5559 51.6093 80.5317 52.3518C80.9931 52.3842 81.406 52.4131 81.819 52.4421C81.8305 52.5012 81.8421 52.5603 81.8536 52.6195C81.4541 52.6896 81.0545 52.7597 80.6207 52.8359C80.6207 53.3032 80.6207 53.7765 80.6207 54.3081C80.9495 54.3643 81.2799 54.4209 81.6104 54.4774C81.6139 54.5222 81.6173 54.5669 81.6208 54.6116C81.3208 54.6535 81.0209 54.6953 80.6651 54.7449C80.6651 55.2371 80.6651 55.7353 80.6651 56.2383C81.1279 56.3351 81.5585 56.4251 81.9891 56.5151C81.9877 56.5753 81.9863 56.6355 81.9848 56.6956C81.5988 56.7209 81.2128 56.7463 80.8325 56.7712C80.653 58.4365 80.653 58.4365 82.0168 58.7941C81.6497 58.7941 81.2826 58.7941 80.8455 58.7941C80.8455 59.3511 80.8455 59.8773 80.8455 60.4665C81.2029 60.5219 81.5915 60.5823 81.9801 60.6426C81.9773 60.697 81.9744 60.7514 81.9715 60.8058C81.6193 60.8274 81.2671 60.8491 80.8429 60.8751C80.8429 61.4197 80.8429 61.9766 80.8429 62.5309C81.329 62.5902 81.7671 62.6436 82.2052 62.697C82.2032 62.7529 82.2011 62.8088 82.1991 62.8648C81.7715 62.8889 81.3438 62.9131 80.8595 62.9405C80.8595 63.4342 80.8595 63.9321 80.8595 64.4876C81.3067 64.5337 81.7558 64.5801 82.2049 64.6264C82.1995 64.707 82.1942 64.7876 82.1889 64.8681C81.7585 64.8681 81.3281 64.8681 80.8537 64.8681C80.8537 65.4501 80.8537 65.9547 80.8537 66.5226C81.267 66.5774 81.6895 66.6334 82.1119 66.6894C82.1148 66.77 82.1177 66.8507 82.1206 66.9313C81.7128 66.9607 81.3051 66.99 80.8512 67.0227C80.8512 67.5458 80.8512 68.0449 80.8512 68.558C81.3999 68.6493 81.9211 68.736 82.4423 68.8226C82.4332 68.8967 82.4242 68.9708 82.4152 69.0449C81.9095 69.0449 81.4039 69.0449 80.8543 69.0449C80.8543 69.6169 80.8543 70.1141 80.8543 70.671C81.3899 70.7054 81.8842 70.7372 82.3786 70.7689C82.3778 70.8683 82.377 70.9676 82.3762 71.067C81.8849 71.0915 81.3936 71.116 80.857 71.1428C80.857 71.6719 80.857 72.1713 80.857 72.7209C81.3039 72.7554 81.7414 72.7893 82.179 72.8231C82.1792 72.8629 82.1795 72.9027 82.1798 72.9424C81.7658 72.9801 81.3519 73.0178 80.8752 73.0612C80.8752 73.6182 80.8752 74.1789 80.8752 74.7348C81.4308 74.8306 81.9539 74.9208 82.4771 75.0111C82.4673 75.0773 82.4576 75.1436 82.4479 75.2098C81.9279 75.2347 81.4079 75.2597 80.8687 75.2855C80.8687 75.805 80.8687 76.2821 80.8687 76.7877C81.3378 76.8709 81.8129 76.9552 82.288 77.0394C82.2772 77.1144 82.2663 77.1894 82.2555 77.2644C81.8148 77.2867 81.3742 77.309 80.8778 77.3342C80.9021 77.8612 80.9248 78.3518 80.949 78.875C81.4677 78.9164 81.9171 78.9521 82.3665 78.9879C82.3653 79.0301 82.364 79.0722 82.3627 79.1143C81.9581 79.1143 81.5535 79.1143 81.0195 79.1143C80.9834 79.5221 80.9525 79.8719 80.9112 80.3395C81.7908 80.3395 82.5912 80.3395 83.4847 80.3395C83.4847 82.8347 83.4772 85.2234 83.4876 87.6121C83.4935 88.9627 83.5068 88.9616 84.9421 89.015C85.1169 89.0215 85.2909 89.045 85.4734 89.1863C84.1139 89.585 82.7032 89.3972 81.3163 89.4304C79.8903 89.4645 78.4627 89.438 77.0358 89.438C77.022 89.3295 77.0083 89.2211 76.9945 89.1126C78.1168 89.0312 79.2392 88.9498 80.3932 88.8661C80.3932 87.6555 80.3932 86.4086 80.3932 85.1341C78.9369 85.1341 77.5657 85.1341 76.0247 85.1341C76.0247 86.4538 76.0247 87.7199 76.0247 88.986C75.925 88.986 75.8253 88.986 75.7256 88.986C75.7256 87.7348 75.7256 86.4837 75.7256 85.1754C74.9418 85.1754 74.2829 85.1754 73.5053 85.1754C73.5053 86.5653 73.5053 87.9725 73.5053 89.3798C73.4079 89.3839 73.3105 89.3881 73.2131 89.3923C73.2131 88.0076 73.2131 86.6228 73.2131 85.1784C72.2399 85.1784 71.4404 85.1784 70.5313 85.1784C70.5313 86.5445 70.5313 87.8861 70.5313 89.2278C70.4492 89.2298 70.3671 89.2319 70.2851 89.234C70.2851 87.8867 70.2851 86.5394 70.2851 85.1546C69.5429 85.1546 68.9104 85.1546 68.1552 85.1546C68.1552 86.5102 68.1552 87.8578 68.1552 89.2055C68.0524 89.2115 67.9497 89.2176 67.8469 89.2236C67.8469 87.8863 67.8469 86.5491 67.8469 85.1672C67.0761 85.1672 66.4896 85.1672 65.7458 85.1672C65.7458 86.5064 65.7458 87.8385 65.7458 89.1705C65.6508 89.1701 65.5558 89.1697 65.4608 89.1693C65.4608 87.8486 65.4608 86.528 65.4608 85.1562C64.678 85.1562 64.0235 85.1562 63.2504 85.1562C63.2504 86.4985 63.2504 87.8046 63.2504 89.1107C63.1452 89.1155 63.0401 89.1203 62.9349 89.1251C62.9349 87.8068 62.9349 86.4884 62.9349 85.1102C62.3184 85.1102 61.8984 85.1102 61.3069 85.1094C61.0402 85.115 60.9451 85.1213 60.85 85.1277Z" fill="#006A4E"/>
<path d="M67.1196 80.6007C67.1333 81.2232 67.147 81.8457 67.1309 82.5577C67.0673 82.6543 67.0082 82.6537 67.003 82.6694C66.5682 83.9946 65.4405 83.671 64.3507 83.5613C64.2527 82.6365 64.2461 81.8139 64.2477 80.9913C64.2574 76.0579 64.2689 71.1244 64.3656 66.1896C65.4964 66.1446 65.8821 65.5381 65.7889 64.6316C65.7021 63.7877 64.9628 64.2698 64.5426 64.0572C65.0482 63.8939 65.5358 63.8085 66.0234 63.7231C66.8614 63.7499 66.9337 64.289 66.9255 64.921C66.8996 66.9089 66.8858 68.897 66.8913 70.8849C66.8918 71.0899 67.0524 71.2945 67.2231 71.5966C67.3072 71.8481 67.307 72.0024 67.2276 72.1668C67.0088 72.4085 66.7672 72.6321 66.7467 72.873C66.6506 74.003 66.5471 75.1397 66.5829 76.27C66.6057 76.9911 66.2303 77.9189 67.3066 78.4238C67.3689 79.1038 67.4307 79.687 67.4926 80.2701C67.4926 80.2701 67.4618 80.3329 67.3716 80.3086C67.1929 80.29 67.1046 80.2957 67.0162 80.3013C67.0507 80.4011 67.0852 80.5009 67.1196 80.6007Z" fill="white"/>
<path d="M64.2801 66.1908C64.2692 71.1242 64.2577 76.0577 64.248 80.9911C64.2464 81.8137 64.253 82.6363 64.2486 83.5532C63.9778 83.5694 63.7141 83.4913 63.446 83.2421C63.4323 76.5538 63.423 70.0366 63.4136 63.5193C63.4588 63.0879 63.3282 62.5154 64.3152 62.698C65.0061 62.6963 65.514 62.6898 66.0219 62.6832C66.0627 62.8784 66.1034 63.0736 65.9883 63.2953C63.9832 63.315 63.9832 63.315 64.224 64.6712C64.2419 65.2371 64.261 65.714 64.2801 66.1908Z" fill="#006A4E"/>
<path d="M63.3326 63.5425C63.423 70.0367 63.4324 76.554 63.4281 83.1668C63.3277 83.2633 63.241 83.2643 63.0894 83.2655C63.0245 78.7356 63.0245 74.2054 63.0241 69.5789C63.0242 67.8222 63.0133 66.1619 63.0355 64.5019C63.0397 64.1889 63.1761 63.8776 63.3326 63.5425Z" fill="white"/>
<path d="M82.8891 81.4165C82.9344 83.9421 83.0066 86.4687 82.8473 88.9902C82.1016 88.9902 81.6131 88.9902 81.019 88.9902C81.019 88.1592 81.019 87.3502 81.0335 86.4465C81.1793 86.8331 81.2766 87.3265 81.4543 87.7916C81.566 88.0837 81.7983 88.3333 81.9764 88.6019C82.1549 88.3333 82.4792 88.0693 82.4887 87.7953C82.5609 85.7105 82.5716 83.6238 82.7045 81.4773C82.8074 81.4169 82.8891 81.4165 82.8891 81.4165Z" fill="white"/>
<path d="M77.9892 84.3838C75.4394 84.4708 72.8658 84.4798 70.1929 84.4752C70.2722 84.3376 70.4499 84.1072 70.6298 84.1056C72.9614 84.0847 75.2934 84.0935 77.6252 84.1085C77.739 84.1093 77.8519 84.2372 77.9892 84.3838Z" fill="white"/>
<path d="M87.8762 84.5108C89.5232 84.4998 89.9593 85.4038 89.1264 87.0219C88.9355 86.3785 88.9408 85.4957 88.5362 85.2589C88.0249 84.9596 87.1797 85.1866 86.2637 85.1866C86.628 84.2139 87.3156 84.6197 87.8762 84.5108Z" fill="#006A4E"/>
<path d="M76.1143 80.913C77.9497 80.8304 79.8094 80.8256 81.7682 80.8361C81.6846 80.9693 81.5035 81.1868 81.319 81.1895C79.7053 81.213 78.091 81.2022 76.477 81.1859C76.3635 81.1847 76.2514 81.0587 76.1143 80.913Z" fill="white"/>
<path d="M60.8662 85.222C60.9453 85.1212 61.0405 85.1149 61.2071 85.1069C61.2785 86.4543 61.2785 87.8033 61.2785 89.1523C61.1464 89.1514 61.0143 89.1505 60.8822 89.1496C60.8822 87.8719 60.8822 86.5942 60.8662 85.222Z" fill="#006A4E"/>
<path d="M70.624 52.8447C70.7117 53.8553 70.7175 54.8878 70.7092 56.0154C70.5684 55.9746 70.3274 55.8342 70.3331 55.7038C70.3749 54.7569 70.4663 53.8121 70.624 52.8447Z" fill="white"/>
<path d="M63.4335 84.3924C62.5893 84.4716 61.7281 84.4805 60.7687 84.4761C60.6695 84.3791 60.6684 84.2955 60.668 84.1495C60.6685 84.087 60.6682 84.086 60.6682 84.086C60.8288 84.0861 60.9894 84.0863 61.2303 84.0859C61.6779 84.0859 62.0453 84.0863 62.5045 84.0861C62.8697 84.1644 63.1431 84.2432 63.4335 84.3924Z" fill="white"/>
<path d="M71.1846 80.8904C71.9538 80.8093 72.7443 80.8071 73.6324 80.8185C72.927 81.5302 72.068 81.2759 71.1846 80.8904Z" fill="white"/>
<path d="M67.8509 83.4462C67.761 82.7772 67.7513 82.0863 67.7565 81.3022C68.49 81.9032 68.2084 82.6638 67.8509 83.4462Z" fill="white"/>
<path d="M70.8604 48.3149C70.9312 48.8866 70.9207 49.4768 70.8326 50.1111C70.763 49.5479 70.771 48.9407 70.8604 48.3149Z" fill="white"/>
<path d="M69.2151 84.3918C68.6552 84.471 68.0777 84.4799 67.4048 84.4753C67.8978 83.9075 68.5383 83.9988 69.2151 84.3918Z" fill="white"/>
<path d="M65.7874 84.3903C65.4399 84.4708 65.0734 84.4799 64.6162 84.4754C64.8671 83.8315 65.3107 84.0178 65.7874 84.3903Z" fill="white"/>
<path d="M70.6064 56.9497C70.6962 57.4166 70.7001 57.9165 70.6869 58.4974C70.62 58.0465 70.5702 57.5147 70.6064 56.9497Z" fill="white"/>
<path d="M71.7215 37.6152C71.7845 37.9207 71.7719 38.2409 71.6855 38.5987C71.623 38.3009 71.6345 37.9654 71.7215 37.6152Z" fill="white"/>
<path d="M71.2903 42.1406C71.3542 42.4463 71.3428 42.7668 71.257 43.1243C71.1934 42.826 71.2042 42.4907 71.2903 42.1406Z" fill="white"/>
<path d="M72.1537 34.5259C72.207 34.7032 72.191 34.8911 72.1074 35.1093C72.0547 34.9385 72.0696 34.7375 72.1537 34.5259Z" fill="white"/>
<path d="M71.9269 36.3755C71.9746 36.4902 71.9616 36.6131 71.887 36.7604C71.839 36.651 71.8526 36.5173 71.9269 36.3755Z" fill="white"/>
<path d="M60.6681 84.0867C60.5606 84.0252 60.4537 83.9639 60.3467 83.9026C60.3844 83.8605 60.4222 83.8184 60.46 83.7764C60.5241 83.8414 60.5882 83.9064 60.6603 84.0286C60.6682 84.0859 60.6685 84.0869 60.6681 84.0867Z" fill="white"/>
<path d="M72.3612 33.2896C72.4077 33.4047 72.3929 33.5279 72.3165 33.6754C72.2699 33.5657 72.2849 33.4316 72.3612 33.2896Z" fill="white"/>
<path d="M71.5072 40.0776C71.5735 40.1607 71.5796 40.2519 71.5702 40.4103C71.4539 40.4107 71.3532 40.3439 71.2524 40.2771C71.3173 40.2133 71.3822 40.1496 71.5072 40.0776Z" fill="white"/>
<path d="M82.9074 81.3497C82.8892 81.4162 82.8075 81.4165 82.7667 81.4154C82.7257 81.2756 82.7255 81.1368 82.7251 80.9287C82.7917 81.0007 82.8586 81.142 82.9074 81.3497Z" fill="white"/>
<path d="M74.813 80.9054C74.8764 80.8271 74.9585 80.818 75.1015 80.8221C75.0522 80.8818 74.9419 80.9283 74.813 80.9054Z" fill="white"/>
<path d="M69.7768 44.9109C69.7868 44.9049 69.7668 44.9169 69.7768 44.9109Z" fill="white"/>
<path d="M67.3066 72.1569C67.3069 72.0026 67.3072 71.8483 67.3071 71.6169C67.3435 69.2435 67.3802 66.9473 67.484 64.5918C67.6132 64.7426 67.7291 64.9526 67.7296 65.1628C67.7403 70.006 67.7395 74.8493 67.7343 79.6926C67.7341 79.8529 67.6661 80.0132 67.5611 80.2219C67.4307 79.6872 67.3688 79.104 67.3069 78.3277C67.3068 76.142 67.3067 74.1494 67.3066 72.1569Z" fill="white"/>
<path d="M64.225 64.5822C63.983 63.3152 63.983 63.3152 65.9264 63.3312C66.0217 63.4253 66.0226 63.5104 66.0235 63.6594C65.5359 63.8086 65.0483 63.894 64.532 64.1273C64.4105 64.3776 64.3178 64.4799 64.225 64.5822Z" fill="white"/>
<path d="M66.0024 62.6072C65.5136 62.6901 65.0057 62.6967 64.4043 62.6854C64.8125 61.9916 65.3924 62.1985 66.0024 62.6072Z" fill="white"/>
<path d="M66.3694 61.5659C66.4526 61.7261 66.4735 61.8597 66.4944 61.9933C66.3747 61.9792 66.255 61.9652 66.1353 61.9511C66.1925 61.8139 66.2498 61.6766 66.3694 61.5659Z" fill="white"/>
<path d="M67.1669 80.5894C67.085 80.5009 67.0506 80.4011 67.0161 80.3013C67.1045 80.2956 67.1928 80.2899 67.3381 80.3218C67.3348 80.4323 67.2746 80.5053 67.1669 80.5894Z" fill="white"/>
<path d="M67.2277 72.167C67.3068 74.1494 67.3069 76.142 67.3066 78.2309C66.2304 77.9191 66.6058 76.9913 66.583 76.2702C66.5472 75.1399 66.6506 74.0032 66.7467 72.8732C66.7672 72.6323 67.0088 72.4087 67.2277 72.167Z" fill="white"/>
<path d="M64.2236 64.6716C64.3176 64.4801 64.4103 64.3778 64.5138 64.2054C64.9627 64.27 65.702 63.7879 65.7888 64.6318C65.882 65.5384 65.4963 66.1448 64.3655 66.1898C64.2607 65.7144 64.2415 65.2375 64.2236 64.6716Z" fill="white"/>
<path d="M134.464 45.848C133.099 43.3307 130.987 42.0507 128.128 42.008C126.464 42.008 125.077 42.52 123.968 43.544C122.859 44.568 122.325 45.784 122.368 47.192C122.368 48.216 122.859 49.1333 123.84 49.944C124.864 50.7547 126.464 51.3307 128.64 51.672C133.803 52.568 137.536 54.3173 139.84 56.92C142.187 59.48 143.36 62.424 143.36 65.752C143.36 69.4213 141.973 72.6853 139.2 75.544C136.427 78.36 132.971 79.768 128.832 79.768C122.261 79.6827 117.376 76.3547 114.176 69.784L120.64 66.52C122.645 70.6587 125.419 72.728 128.96 72.728C131.008 72.7707 132.779 72.0667 134.272 70.616C135.765 69.1227 136.512 67.3947 136.512 65.432C136.555 64.1093 135.979 62.808 134.784 61.528C133.589 60.2053 131.477 59.2667 128.448 58.712C124.352 58.1147 121.216 56.8773 119.04 55C116.864 53.08 115.776 50.7973 115.776 48.152C115.691 44.9947 116.8 42.0933 119.104 39.448C121.408 36.76 124.459 35.416 128.256 35.416C133.589 35.544 137.557 38.0613 140.16 42.968L134.464 45.848ZM172.825 79H166.233V77.976C164.569 79.1707 162.713 79.7893 160.665 79.832C157.252 79.7893 154.414 78.8293 152.153 76.952C149.934 75.032 148.825 72.2587 148.825 68.632C148.825 65.5173 149.849 62.9147 151.897 60.824C153.988 58.6907 156.804 57.6453 160.345 57.688C162.308 57.688 164.142 57.9227 165.849 58.392C165.934 55.2773 164.356 53.5707 161.113 53.272C158.34 53.1867 155.844 53.9547 153.625 55.576L150.233 50.392C153.305 48.216 156.868 47.064 160.921 46.936C164.249 46.936 167.044 47.896 169.305 49.816C171.609 51.6933 172.782 54.4453 172.825 58.072V79ZM165.657 71.768V64.728C163.78 64.216 161.902 63.96 160.025 63.96C158.532 63.96 157.294 64.4507 156.313 65.432C155.332 66.4133 154.862 67.5227 154.905 68.76C154.905 70.04 155.396 71.256 156.377 72.408C157.401 73.56 158.766 74.136 160.473 74.136C162.308 74.136 164.036 73.3467 165.657 71.768ZM187.264 79H180.352V38.872L187.264 35.416V79ZM219.656 66.2H201.224C201.224 68.2053 201.757 69.8693 202.824 71.192C203.89 72.472 205.277 73.0907 206.984 73.048C209.373 73.1333 211.208 72.088 212.488 69.912L218.568 72.408C216.434 77.1867 212.616 79.64 207.112 79.768C203.229 79.768 200.093 78.3387 197.704 75.48C195.357 72.6213 194.184 68.5253 194.184 63.192C194.184 58.7973 195.314 55 197.576 51.8C199.88 48.5573 203.058 46.936 207.112 46.936C210.909 46.936 213.938 48.4293 216.2 51.416C218.504 54.4027 219.656 59.3307 219.656 66.2ZM212.808 59.928C212.85 58.136 212.338 56.5787 211.272 55.256C210.248 53.9333 208.861 53.272 207.112 53.272C205.234 53.2293 203.741 53.9333 202.632 55.384C201.522 56.792 201.01 58.3067 201.095 59.928H212.808ZM247.343 70.552C247.3 73.2827 246.233 75.5013 244.143 77.208C242.052 78.872 239.172 79.7253 235.503 79.768C231.321 79.7253 227.481 78.1253 223.983 74.968L228.463 70.488C231.065 72.536 233.412 73.5813 235.503 73.624C236.996 73.6667 238.255 73.368 239.279 72.728C240.345 72.0453 240.857 71.2133 240.815 70.232C240.857 69.2507 240.388 68.3333 239.407 67.48C238.425 66.6267 236.847 65.7733 234.671 64.92C231.513 63.8533 229.209 62.5307 227.759 60.952C226.308 59.3733 225.583 57.5387 225.583 55.448C225.455 53.3573 226.308 51.416 228.143 49.624C230.02 47.7893 232.473 46.872 235.503 46.872C240.111 46.9573 243.929 48.6 246.959 51.8L242.671 56.088C240.58 54.168 238.233 53.1653 235.631 53.08C234.564 53.08 233.711 53.3147 233.071 53.784C232.473 54.2107 232.153 54.808 232.111 55.576C232.068 56.2587 232.303 56.8133 232.815 57.24C233.369 57.6667 234.713 58.2853 236.847 59.096C239.876 60.0347 242.372 61.4 244.335 63.192C246.34 64.984 247.343 67.4373 247.343 70.552ZM266.082 53.912H261.538V79H254.626V53.912H250.594V47.704H254.626V42.904C254.626 41.0267 255.159 39.3413 256.226 37.848C257.335 36.312 258.871 35.5013 260.834 35.416C262.797 35.416 264.546 35.8 266.082 36.568V42.136C265.143 41.752 264.247 41.5387 263.394 41.496C262.199 41.5387 261.581 42.264 261.538 43.672V47.704H266.082V53.912ZM295.788 63.32C295.745 67.6293 294.892 71.1493 293.228 73.88C291.009 77.592 287.511 79.5547 282.732 79.768C277.953 79.5547 274.455 77.592 272.236 73.88C270.572 71.1493 269.719 67.6293 269.676 63.32C269.719 58.84 270.572 55.2347 272.236 52.504C274.497 48.92 277.996 47.064 282.732 46.936C287.468 47.064 290.967 48.92 293.228 52.504C294.892 55.2347 295.745 58.84 295.788 63.32ZM282.668 72.984C285.143 72.984 286.956 71.768 288.108 69.336C288.876 67.6293 289.26 65.6453 289.26 63.384C289.26 60.9947 288.876 58.9467 288.108 57.24C286.999 54.808 285.185 53.592 282.668 53.592C280.236 53.592 278.465 54.808 277.356 57.24C276.588 58.9467 276.204 60.9947 276.204 63.384C276.204 65.6453 276.588 67.6293 277.356 69.336C278.636 71.768 280.407 72.984 282.668 72.984ZM319.059 49.112L316.819 55.32C315.539 54.04 314.238 53.4213 312.915 53.464C310.056 53.5493 308.542 55.5547 308.371 59.48V79H301.459V47.192H308.307V49.496C309.459 47.7893 311.123 46.936 313.299 46.936C315.475 46.9787 317.395 47.704 319.059 49.112ZM322.681 63.192C322.681 58.7973 323.513 55.2347 325.177 52.504C327.395 48.792 330.915 46.936 335.737 46.936C341.923 46.936 345.891 49.56 347.641 54.808L341.305 57.368C340.366 54.6373 338.489 53.2933 335.673 53.336C333.369 53.336 331.705 54.5733 330.681 57.048C329.955 58.7973 329.593 60.8453 329.593 63.192C329.593 65.5387 329.955 67.5867 330.681 69.336C331.705 71.8107 333.369 73.048 335.673 73.048C338.489 73.0907 340.366 71.7467 341.305 69.016L347.641 71.576C345.891 76.824 341.923 79.448 335.737 79.448C330.915 79.448 327.395 77.592 325.177 73.88C323.513 71.1493 322.681 67.5867 322.681 63.192ZM378.031 66.2H359.599C359.599 68.2053 360.132 69.8693 361.199 71.192C362.265 72.472 363.652 73.0907 365.359 73.048C367.748 73.1333 369.583 72.088 370.863 69.912L376.943 72.408C374.809 77.1867 370.991 79.64 365.487 79.768C361.604 79.768 358.468 78.3387 356.079 75.48C353.732 72.6213 352.559 68.5253 352.559 63.192C352.559 58.7973 353.689 55 355.951 51.8C358.255 48.5573 361.433 46.936 365.487 46.936C369.284 46.936 372.313 48.4293 374.575 51.416C376.879 54.4027 378.031 59.3307 378.031 66.2ZM371.183 59.928C371.225 58.136 370.713 56.5787 369.647 55.256C368.623 53.9333 367.236 53.272 365.487 53.272C363.609 53.2293 362.116 53.9333 361.007 55.384C359.897 56.792 359.385 58.3067 359.47 59.928H371.183ZM426.446 42.136H416.526V79H409.742V42.136H399.95V36.12H426.446V42.136ZM457.976 63.32C457.933 67.6293 457.08 71.1493 455.416 73.88C453.197 77.592 449.698 79.5547 444.92 79.768C440.141 79.5547 436.642 77.592 434.424 73.88C432.76 71.1493 431.906 67.6293 431.864 63.32C431.906 58.84 432.76 55.2347 434.424 52.504C436.685 48.92 440.184 47.064 444.92 46.936C449.656 47.064 453.154 48.92 455.416 52.504C457.08 55.2347 457.933 58.84 457.976 63.32ZM444.856 72.984C447.33 72.984 449.144 71.768 450.296 69.336C451.064 67.6293 451.448 65.6453 451.448 63.384C451.448 60.9947 451.064 58.9467 450.296 57.24C449.186 54.808 447.373 53.592 444.856 53.592C442.424 53.592 440.653 54.808 439.544 57.24C438.776 58.9467 438.392 60.9947 438.392 63.384C438.392 65.6453 438.776 67.6293 439.544 69.336C440.824 71.768 442.594 72.984 444.856 72.984ZM500.447 47.704L493.279 79H487.007L480.479 57.496L474.207 79H467.999L461.023 47.704H467.615L471.583 64.536L477.087 47.704H484.255L489.631 64.536L493.791 47.704H500.447ZM529.468 66.2H511.036C511.036 68.2053 511.569 69.8693 512.636 71.192C513.703 72.472 515.089 73.0907 516.796 73.048C519.185 73.1333 521.02 72.088 522.3 69.912L528.38 72.408C526.247 77.1867 522.428 79.64 516.924 79.768C513.041 79.768 509.905 78.3387 507.516 75.48C505.169 72.6213 503.996 68.5253 503.996 63.192C503.996 58.7973 505.127 55 507.388 51.8C509.692 48.5573 512.871 46.936 516.924 46.936C520.721 46.936 523.751 48.4293 526.012 51.416C528.316 54.4027 529.468 59.3307 529.468 66.2ZM522.62 59.928C522.663 58.136 522.151 56.5787 521.084 55.256C520.06 53.9333 518.673 53.272 516.924 53.272C515.047 53.2293 513.553 53.9333 512.444 55.384C511.335 56.792 510.823 58.3067 510.908 59.928H522.62ZM553.059 49.112L550.819 55.32C549.539 54.04 548.238 53.4213 546.915 53.464C544.056 53.5493 542.542 55.5547 542.371 59.48V79H535.459V47.192H542.307V49.496C543.459 47.7893 545.123 46.936 547.299 46.936C549.475 46.9787 551.395 47.704 553.059 49.112Z" fill="white"/>
</svg>
