<svg xmlns="http://www.w3.org/2000/svg" width="1330" height="830" viewBox="0 0 1330 830" fill="none">
<style id="vegas-bulb-style">
.bulb-glow {
  opacity: .18;
  filter: url(#vegasBulbBlur);
  transform-box: fill-box;
  transform-origin: center;
}
.bulb-top {
  transform-box: fill-box;
  transform-origin: center;
}
.phase0 { animation: vegasGlow 1.5s linear infinite; }
.phase1 { animation: vegasGlow 1.5s linear infinite -.25s; }
.phase2 { animation: vegasGlow 1.5s linear infinite -.5s; }
.phase3 { animation: vegasGlow 1.5s linear infinite -.75s; }
.phase4 { animation: vegasGlow 1.5s linear infinite -1.0s; }
.phase5 { animation: vegasGlow 1.5s linear infinite -1.25s; }
.glow.phase0 { animation: vegasHalo 1.5s linear infinite; }
.glow.phase1 { animation: vegasHalo 1.5s linear infinite -.25s; }
.glow.phase2 { animation: vegasHalo 1.5s linear infinite -.5s; }
.glow.phase3 { animation: vegasHalo 1.5s linear infinite -.75s; }
.glow.phase4 { animation: vegasHalo 1.5s linear infinite -1.0s; }
.glow.phase5 { animation: vegasHalo 1.5s linear infinite -1.25s; }
@keyframes vegasGlow {
  0%, 10% { opacity: .72; filter: brightness(.92) saturate(.95); }
  14%, 26% { opacity: 1; filter: brightness(1.18) saturate(1.15); }
  30%, 100% { opacity: .74; filter: brightness(.94) saturate(.96); }
}
@keyframes vegasHalo {
  0%, 10% { opacity: .12; }
  14%, 26% { opacity: .75; }
  30%, 100% { opacity: .14; }
}
</style><path d="M26.3682 324.944C22.1302 321.84 15.7663 310.839 10.9111 313.23C6.80792 315.251 5.76433 319.463 8.70215 322.679C11.7706 326.039 21.2854 324.027 26.3682 324.944Z" fill="url(#paint0_radial_85_304)" stroke="#D1B111" stroke-width="1.2" class="bulb-top phase0" />
<path d="M38.0083 298.343C34.124 294.806 28.965 283.192 23.8833 285.054C19.5886 286.627 18.1034 290.704 20.6828 294.215C23.3769 297.881 33.0516 296.891 38.0083 298.343Z" fill="url(#paint1_radial_85_304)" stroke="#D1B111" stroke-width="1.2" class="bulb-top phase1" />
<path d="M59.6495 275.056C57.4177 270.301 57.1062 257.597 51.6986 257.37C47.1286 257.178 44.1935 260.374 45.23 264.605C46.3125 269.023 55.6279 271.816 59.6495 275.056Z" fill="url(#paint2_radial_85_304)" stroke="#D1B111" stroke-width="1.2" class="bulb-top phase2" />
<path d="M84.7531 259.018C83.6274 253.888 86.1317 241.429 80.908 240.013C76.4933 238.816 72.9243 241.286 73 245.641C73.0791 250.189 81.547 254.97 84.7531 259.018Z" fill="url(#paint3_radial_85_304)" stroke="#D1B111" stroke-width="1.2" class="bulb-top phase3" />
<path d="M113.389 245.375C112.263 240.245 114.767 227.786 109.544 226.37C105.129 225.173 101.56 227.643 101.636 231.998C101.715 236.546 110.183 241.327 113.389 245.375Z" fill="url(#paint4_radial_85_304)" stroke="#D1B111" stroke-width="1.2" class="bulb-top phase4" />
<path d="M148.84 230.297C147.714 225.168 150.219 212.709 144.995 211.292C140.58 210.096 137.011 212.565 137.087 216.92C137.166 221.468 145.634 226.25 148.84 230.297Z" fill="url(#paint5_radial_85_304)" stroke="#D1B111" stroke-width="1.2" class="bulb-top phase5" />
<path d="M177.99 218.764C176.865 213.634 179.369 201.175 174.145 199.759C169.731 198.562 166.162 201.031 166.237 205.386C166.316 209.935 174.784 214.716 177.99 218.764Z" fill="url(#paint6_radial_85_304)" stroke="#D1B111" stroke-width="1.2" class="bulb-top phase0" />
<path d="M208.01 206.947C206.884 201.817 209.389 189.358 204.165 187.942C199.75 186.745 196.181 189.214 196.257 193.569C196.336 198.118 204.804 202.899 208.01 206.947Z" fill="url(#paint7_radial_85_304)" stroke="#D1B111" stroke-width="1.2" class="bulb-top phase1" />
<path d="M237.721 195.026C236.595 189.897 239.099 177.438 233.876 176.021C229.461 174.825 225.892 177.294 225.968 181.649C226.047 186.197 234.515 190.979 237.721 195.026Z" fill="url(#paint8_radial_85_304)" stroke="#D1B111" stroke-width="1.2" class="bulb-top phase2" />
<path d="M267.113 183.03C265.987 177.9 268.491 165.441 263.267 164.025C258.853 162.828 255.284 165.297 255.359 169.652C255.439 174.201 263.906 178.982 267.113 183.03Z" fill="url(#paint9_radial_85_304)" stroke="#D1B111" stroke-width="1.2" class="bulb-top phase3" />
<path d="M296.451 171.492C295.326 166.362 297.83 153.903 292.606 152.487C288.192 151.291 284.623 153.76 284.698 158.115C284.777 162.663 293.245 167.444 296.451 171.492Z" fill="url(#paint10_radial_85_304)" stroke="#D1B111" stroke-width="1.2" class="bulb-top phase4" />
<path d="M325.627 159.687C324.501 154.557 327.006 142.098 321.782 140.682C317.367 139.485 313.798 141.954 313.874 146.309C313.953 150.858 322.421 155.639 325.627 159.687Z" fill="url(#paint11_radial_85_304)" stroke="#D1B111" stroke-width="1.2" class="bulb-top phase5" />
<path d="M355.156 148.336C354.031 143.206 356.535 130.747 351.311 129.331C346.897 128.134 343.328 130.604 343.403 134.958C343.482 139.507 351.95 144.288 355.156 148.336Z" fill="url(#paint12_radial_85_304)" stroke="#D1B111" stroke-width="1.2" class="bulb-top phase0" />
<path d="M384.307 136.802C383.181 131.672 385.685 119.213 380.462 117.797C376.047 116.6 372.478 119.069 372.554 123.424C372.633 127.973 381.101 132.754 384.307 136.802Z" fill="url(#paint13_radial_85_304)" stroke="#D1B111" stroke-width="1.2" class="bulb-top phase1" />
<path d="M647.67 30.3829C646.544 25.2531 649.049 12.7939 643.825 11.3779C639.41 10.1811 635.841 12.6503 635.917 17.0052C635.996 21.5538 644.464 26.335 647.67 30.3829Z" fill="url(#paint14_radial_85_304)" stroke="#D1B111" stroke-width="1.2" class="bulb-top phase2" />
<path d="M618.451 40.0291C617.326 34.8993 619.83 22.4402 614.606 21.0241C610.192 19.8273 606.623 22.2967 606.698 26.6516C606.777 31.2002 615.245 35.9812 618.451 40.0291Z" fill="url(#paint15_radial_85_304)" stroke="#D1B111" stroke-width="1.2" class="bulb-top phase3" />
<path d="M589.311 52.3191C588.185 47.1893 590.689 34.7302 585.466 33.3141C581.051 32.1174 577.482 34.5866 577.558 38.9416C577.637 43.4901 586.105 48.2713 589.311 52.3191Z" fill="url(#paint16_radial_85_304)" stroke="#D1B111" stroke-width="1.2" class="bulb-top phase4" />
<path d="M561.539 63.8736C560.414 58.7438 562.918 46.2847 557.694 44.8686C553.279 43.6719 549.71 46.1411 549.786 50.4961C549.865 55.0446 558.333 59.8257 561.539 63.8736Z" fill="url(#paint17_radial_85_304)" stroke="#D1B111" stroke-width="1.2" class="bulb-top phase5" />
<path d="M530.176 76.4253C529.05 71.2955 531.555 58.8365 526.331 57.4204C521.916 56.2236 518.347 58.6929 518.423 63.0478C518.502 67.5963 526.97 72.3774 530.176 76.4253Z" fill="url(#paint18_radial_85_304)" stroke="#D1B111" stroke-width="1.2" class="bulb-top phase0" />
<path d="M501.725 88.1582C500.599 83.0285 503.103 70.5694 497.88 69.1533C493.465 67.9565 489.896 70.4258 489.972 74.7807C490.051 79.3292 498.519 84.1104 501.725 88.1582Z" fill="url(#paint19_radial_85_304)" stroke="#D1B111" stroke-width="1.2" class="bulb-top phase1" />
<path d="M413.66 125.415C412.535 120.285 415.039 107.826 409.815 106.41C405.401 105.213 401.832 107.682 401.907 112.037C401.986 116.586 410.454 121.367 413.66 125.415Z" fill="url(#paint20_radial_85_304)" stroke="#D1B111" stroke-width="1.2" class="bulb-top phase2" />
<path d="M472.709 100.465C471.583 95.3349 474.088 82.8758 468.864 81.4597C464.449 80.2629 460.88 82.7322 460.956 87.0871C461.035 91.6356 469.503 96.4168 472.709 100.465Z" fill="url(#paint21_radial_85_304)" stroke="#D1B111" stroke-width="1.2" class="bulb-top phase3" />
<path d="M443.28 113.553C442.154 108.423 444.658 95.9639 439.434 94.5478C435.02 93.3511 431.451 95.8203 431.526 100.175C431.605 104.724 440.073 109.505 443.28 113.553Z" fill="url(#paint22_radial_85_304)" stroke="#D1B111" stroke-width="1.2" class="bulb-top phase4" />
<path d="M25.0681 353.718C19.892 352.818 9.30231 345.787 6.01466 350.085C3.23621 353.717 4.17248 357.954 8.23379 359.532C12.4756 361.18 20.1067 355.153 25.0681 353.718Z" fill="url(#paint23_radial_85_304)" stroke="#D1B111" stroke-width="1.2" class="bulb-top phase5" />
<path d="M1301.46 314.101C1306.33 312.133 1315.2 303.032 1319.32 306.542C1322.8 309.509 1322.78 313.848 1319.14 316.244C1315.34 318.747 1306.61 314.46 1301.46 314.101Z" fill="url(#paint24_radial_85_304)" stroke="#D1B111" stroke-width="1.2" class="bulb-top phase0" />
<path d="M1288.97 289.275C1292.84 285.727 1297.96 274.095 1303.05 275.941C1307.35 277.501 1308.85 281.573 1306.28 285.091C1303.6 288.766 1293.92 287.808 1288.97 289.275Z" fill="url(#paint25_radial_85_304)" stroke="#D1B111" stroke-width="1.2" class="bulb-top phase1" />
<path d="M1268.89 268.255C1271.1 263.493 1271.37 250.788 1276.78 250.543C1281.35 250.336 1284.29 253.523 1283.27 257.757C1282.2 262.179 1272.9 265.002 1268.89 268.255Z" fill="url(#paint26_radial_85_304)" stroke="#D1B111" stroke-width="1.2" class="bulb-top phase2" />
<path d="M1243.82 253.43C1244.93 248.297 1242.38 235.846 1247.6 234.413C1252.01 233.202 1255.59 235.659 1255.53 240.015C1255.46 244.563 1247.01 249.372 1243.82 253.43Z" fill="url(#paint27_radial_85_304)" stroke="#D1B111" stroke-width="1.2" class="bulb-top phase3" />
<path d="M1214.73 240.357C1215.84 235.223 1213.29 222.773 1218.51 221.34C1222.92 220.128 1226.5 222.586 1226.44 226.941C1226.37 231.49 1217.92 236.299 1214.73 240.357Z" fill="url(#paint28_radial_85_304)" stroke="#D1B111" stroke-width="1.2" class="bulb-top phase4" />
<path d="M1189.38 229.372C1190.48 224.239 1187.94 211.788 1193.16 210.355C1197.57 209.144 1201.15 211.602 1201.09 215.957C1201.02 220.505 1192.57 225.314 1189.38 229.372Z" fill="url(#paint29_radial_85_304)" stroke="#D1B111" stroke-width="1.2" class="bulb-top phase5" />
<path d="M1160.17 219.52C1161.28 214.387 1158.73 201.936 1163.95 200.503C1168.36 199.292 1171.94 201.749 1171.88 206.104C1171.82 210.653 1163.36 215.462 1160.17 219.52Z" fill="url(#paint30_radial_85_304)" stroke="#D1B111" stroke-width="1.2" class="bulb-top phase0" />
<path d="M1130.1 207.267C1131.21 202.133 1128.67 189.682 1133.89 188.249C1138.3 187.038 1141.88 189.496 1141.81 193.851C1141.75 198.4 1133.3 203.208 1130.1 207.267Z" fill="url(#paint31_radial_85_304)" stroke="#D1B111" stroke-width="1.2" class="bulb-top phase1" />
<path d="M1101.96 195.416C1103.07 190.283 1100.52 177.832 1105.74 176.399C1110.15 175.188 1113.73 177.645 1113.67 182C1113.6 186.549 1105.15 191.358 1101.96 195.416Z" fill="url(#paint32_radial_85_304)" stroke="#D1B111" stroke-width="1.2" class="bulb-top phase2" />
<path d="M1072.53 183.514C1073.64 178.38 1071.09 165.929 1076.31 164.496C1080.72 163.285 1084.3 165.743 1084.24 170.098C1084.17 174.647 1075.72 179.455 1072.53 183.514Z" fill="url(#paint33_radial_85_304)" stroke="#D1B111" stroke-width="1.2" class="bulb-top phase3" />
<path d="M1043.15 172.072C1044.26 166.939 1041.72 154.488 1046.94 153.055C1051.35 151.844 1054.92 154.302 1054.86 158.657C1054.8 163.205 1046.34 168.014 1043.15 172.072Z" fill="url(#paint34_radial_85_304)" stroke="#D1B111" stroke-width="1.2" class="bulb-top phase4" />
<path d="M1013.94 160.361C1015.05 155.227 1012.5 142.776 1017.72 141.343C1022.13 140.132 1025.71 142.59 1025.65 146.945C1025.58 151.494 1017.13 156.302 1013.94 160.361Z" fill="url(#paint35_radial_85_304)" stroke="#D1B111" stroke-width="1.2" class="bulb-top phase5" />
<path d="M984.37 149.106C985.48 143.973 982.935 131.522 988.154 130.089C992.565 128.878 996.142 131.336 996.08 135.691C996.016 140.24 987.563 145.048 984.37 149.106Z" fill="url(#paint36_radial_85_304)" stroke="#D1B111" stroke-width="1.2" class="bulb-top phase0" />
<path d="M955.185 137.666C956.294 132.533 953.749 120.082 958.968 118.649C963.379 117.438 966.956 119.896 966.895 124.251C966.83 128.799 958.378 133.608 955.185 137.666Z" fill="url(#paint37_radial_85_304)" stroke="#D1B111" stroke-width="1.2" class="bulb-top phase1" />
<path d="M691.478 32.1005C692.587 26.9671 690.042 14.5161 695.261 13.0832C699.672 11.8721 703.249 14.3297 703.188 18.6849C703.123 23.2337 694.671 28.0423 691.478 32.1005Z" fill="url(#paint38_radial_85_304)" stroke="#D1B111" stroke-width="1.2" class="bulb-top phase2" />
<path d="M721.478 42.4149C722.587 37.2815 720.042 24.8306 725.261 23.3977C729.672 22.1866 733.249 24.6443 733.188 28.9994C733.123 33.5482 724.671 38.3567 721.478 42.4149Z" fill="url(#paint39_radial_85_304)" stroke="#D1B111" stroke-width="1.2" class="bulb-top phase3" />
<path d="M751.445 55.3334C752.554 50.1999 750.009 37.749 755.228 36.3161C759.639 35.105 763.216 37.5627 763.154 41.9179C763.09 46.4667 754.638 51.2751 751.445 55.3334Z" fill="url(#paint40_radial_85_304)" stroke="#D1B111" stroke-width="1.2" class="bulb-top phase4" />
<path d="M779.261 67.5565C780.37 62.4231 777.826 49.9722 783.045 48.5393C787.455 47.3282 791.032 49.7859 790.971 54.141C790.906 58.6898 782.454 63.4983 779.261 67.5565Z" fill="url(#paint41_radial_85_304)" stroke="#D1B111" stroke-width="1.2" class="bulb-top phase5" />
<path d="M808.388 79.2846C809.497 74.1512 806.952 61.7002 812.172 60.2672C816.582 59.0562 820.159 61.5139 820.098 65.869C820.033 70.4178 811.581 75.2263 808.388 79.2846Z" fill="url(#paint42_radial_85_304)" stroke="#D1B111" stroke-width="1.2" class="bulb-top phase0" />
<path d="M838.374 90.1461C839.483 85.0127 836.939 72.5618 842.158 71.1289C846.569 69.9178 850.146 72.3755 850.084 76.7307C850.02 81.2794 841.567 86.0879 838.374 90.1461Z" fill="url(#paint43_radial_85_304)" stroke="#D1B111" stroke-width="1.2" class="bulb-top phase1" />
<path d="M925.794 126.374C926.903 121.241 924.359 108.79 929.578 107.357C933.989 106.146 937.566 108.603 937.504 112.958C937.44 117.507 928.987 122.316 925.794 126.374Z" fill="url(#paint44_radial_85_304)" stroke="#D1B111" stroke-width="1.2" class="bulb-top phase2" />
<path d="M867.431 102.361C868.54 97.2271 865.995 84.7761 871.215 83.3432C875.625 82.1321 879.202 84.5898 879.141 88.945C879.076 93.4937 870.624 98.3023 867.431 102.361Z" fill="url(#paint45_radial_85_304)" stroke="#D1B111" stroke-width="1.2" class="bulb-top phase3" />
<path d="M896.136 114.608C897.245 109.474 894.701 97.0233 899.92 95.5903C904.33 94.3792 907.907 96.837 907.846 101.192C907.781 105.741 899.329 110.549 896.136 114.608Z" fill="url(#paint46_radial_85_304)" stroke="#D1B111" stroke-width="1.2" class="bulb-top phase4" />
<path d="M1306.1 345.823C1311.29 345.008 1321.99 338.151 1325.21 342.502C1327.93 346.179 1326.93 350.4 1322.84 351.911C1318.57 353.489 1311.04 347.339 1306.1 345.823Z" fill="url(#paint47_radial_85_304)" stroke="#D1B111" stroke-width="1.2" class="bulb-top phase5" />
<path d="M1303.03 376.842C1307.92 378.784 1316.84 387.837 1320.94 384.305C1324.4 381.32 1324.35 376.981 1320.7 374.604C1316.89 372.122 1308.18 376.455 1303.03 376.842Z" fill="url(#paint48_radial_85_304)" stroke="#D1B111" stroke-width="1.2" class="bulb-top phase0" />
<path d="M1290.15 402.277C1294.04 405.805 1299.22 417.409 1304.3 415.536C1308.59 413.954 1310.07 409.874 1307.48 406.369C1304.78 402.708 1295.11 403.718 1290.15 402.277Z" fill="url(#paint49_radial_85_304)" stroke="#D1B111" stroke-width="1.2" class="bulb-top phase1" />
<path d="M1271.79 423.378C1274.03 428.128 1274.37 440.832 1279.77 441.047C1284.34 441.23 1287.27 438.027 1286.23 433.799C1285.14 429.383 1275.81 426.61 1271.79 423.378Z" fill="url(#paint50_radial_85_304)" stroke="#D1B111" stroke-width="1.2" class="bulb-top phase2" />
<path d="M1245.74 438.888C1246.87 444.016 1244.4 456.48 1249.62 457.885C1254.04 459.073 1257.6 456.596 1257.52 452.241C1257.43 447.693 1248.95 442.93 1245.74 438.888Z" fill="url(#paint51_radial_85_304)" stroke="#D1B111" stroke-width="1.2" class="bulb-top phase3" />
<path d="M1215.63 451.065C1216.77 456.193 1214.29 468.657 1219.52 470.062C1223.93 471.25 1227.5 468.773 1227.41 464.418C1227.32 459.87 1218.85 455.107 1215.63 451.065Z" fill="url(#paint52_radial_85_304)" stroke="#D1B111" stroke-width="1.2" class="bulb-top phase4" />
<path d="M1185.53 462.8C1186.67 467.927 1184.19 480.391 1189.42 481.797C1193.84 482.984 1197.4 480.507 1197.32 476.153C1197.23 471.604 1188.75 466.841 1185.53 462.8Z" fill="url(#paint53_radial_85_304)" stroke="#D1B111" stroke-width="1.2" class="bulb-top phase5" />
<path d="M1156.94 474.401C1158.08 479.529 1155.6 491.993 1160.83 493.398C1165.25 494.586 1168.81 492.109 1168.72 487.754C1168.64 483.206 1160.16 478.443 1156.94 474.401Z" fill="url(#paint54_radial_85_304)" stroke="#D1B111" stroke-width="1.2" class="bulb-top phase0" />
<path d="M1126.94 486.816C1128.08 491.943 1125.6 504.408 1130.83 505.813C1135.25 507 1138.81 504.524 1138.72 500.169C1138.64 495.621 1130.16 490.857 1126.94 486.816Z" fill="url(#paint55_radial_85_304)" stroke="#D1B111" stroke-width="1.2" class="bulb-top phase1" />
<path d="M1098.86 498.816C1100 503.943 1097.52 516.408 1102.75 517.813C1107.16 519 1110.73 516.524 1110.64 512.169C1110.55 507.621 1102.08 502.857 1098.86 498.816Z" fill="url(#paint56_radial_85_304)" stroke="#D1B111" stroke-width="1.2" class="bulb-top phase2" />
<path d="M1069.49 510.875C1070.63 516.002 1068.15 528.466 1073.38 529.871C1077.8 531.059 1081.36 528.582 1081.28 524.227C1081.19 519.679 1072.71 514.916 1069.49 510.875Z" fill="url(#paint57_radial_85_304)" stroke="#D1B111" stroke-width="1.2" class="bulb-top phase3" />
<path d="M1040.18 522.473C1041.32 527.601 1038.84 540.065 1044.06 541.47C1048.48 542.658 1052.05 540.181 1051.96 535.826C1051.87 531.278 1043.39 526.515 1040.18 522.473Z" fill="url(#paint58_radial_85_304)" stroke="#D1B111" stroke-width="1.2" class="bulb-top phase4" />
<path d="M1011.03 534.34C1012.17 539.467 1009.69 551.932 1014.91 553.337C1019.33 554.524 1022.9 552.047 1022.81 547.693C1022.72 543.144 1014.24 538.381 1011.03 534.34Z" fill="url(#paint59_radial_85_304)" stroke="#D1B111" stroke-width="1.2" class="bulb-top phase5" />
<path d="M981.524 545.753C982.66 550.88 980.182 563.344 985.409 564.749C989.826 565.937 993.39 563.46 993.305 559.105C993.216 554.557 984.738 549.794 981.524 545.753Z" fill="url(#paint60_radial_85_304)" stroke="#D1B111" stroke-width="1.2" class="bulb-top phase0" />
<path d="M952.399 557.348C953.535 562.475 951.057 574.939 956.284 576.345C960.701 577.532 964.265 575.055 964.18 570.701C964.091 566.152 955.613 561.389 952.399 557.348Z" fill="url(#paint61_radial_85_304)" stroke="#D1B111" stroke-width="1.2" class="bulb-top phase1" />
<path d="M689.258 664.318C690.394 669.446 687.916 681.91 693.143 683.315C697.56 684.503 701.124 682.026 701.039 677.671C700.95 673.123 692.473 668.36 689.258 664.318Z" fill="url(#paint62_radial_85_304)" stroke="#D1B111" stroke-width="1.2" class="bulb-top phase2" />
<path d="M719.201 653.845C720.338 658.972 717.86 671.436 723.086 672.841C727.504 674.029 731.067 671.552 730.982 667.197C730.894 662.649 722.416 657.886 719.201 653.845Z" fill="url(#paint63_radial_85_304)" stroke="#D1B111" stroke-width="1.2" class="bulb-top phase3" />
<path d="M749.1 640.766C750.236 645.893 747.758 658.357 752.985 659.763C757.402 660.95 760.966 658.473 760.881 654.119C760.792 649.57 752.314 644.807 749.1 640.766Z" fill="url(#paint64_radial_85_304)" stroke="#D1B111" stroke-width="1.2" class="bulb-top phase4" />
<path d="M776.852 628.394C777.988 633.522 775.51 645.986 780.737 647.391C785.154 648.579 788.718 646.102 788.633 641.747C788.544 637.199 780.066 632.435 776.852 628.394Z" fill="url(#paint65_radial_85_304)" stroke="#D1B111" stroke-width="1.2" class="bulb-top phase5" />
<path d="M805.914 616.512C807.051 621.639 804.573 634.104 809.799 635.509C814.216 636.696 817.78 634.219 817.695 629.865C817.607 625.316 809.129 620.553 805.914 616.512Z" fill="url(#paint66_radial_85_304)" stroke="#D1B111" stroke-width="1.2" class="bulb-top phase0" />
<path d="M835.842 605.49C836.978 610.618 834.5 623.082 839.727 624.487C844.144 625.675 847.708 623.198 847.623 618.843C847.534 614.295 839.057 609.531 835.842 605.49Z" fill="url(#paint67_radial_85_304)" stroke="#D1B111" stroke-width="1.2" class="bulb-top phase1" />
<path d="M923.068 568.797C924.205 573.924 921.727 586.388 926.954 587.794C931.371 588.981 934.935 586.504 934.85 582.15C934.761 577.601 926.283 572.838 923.068 568.797Z" fill="url(#paint68_radial_85_304)" stroke="#D1B111" stroke-width="1.2" class="bulb-top phase2" />
<path d="M864.834 593.122C865.971 598.249 863.492 610.713 868.719 612.119C873.136 613.306 876.7 610.829 876.615 606.475C876.527 601.926 868.049 597.163 864.834 593.122Z" fill="url(#paint69_radial_85_304)" stroke="#D1B111" stroke-width="1.2" class="bulb-top phase3" />
<path d="M893.473 580.721C894.609 585.849 892.131 598.313 897.358 599.718C901.775 600.906 905.339 598.429 905.254 594.074C905.165 589.526 896.687 584.762 893.473 580.721Z" fill="url(#paint70_radial_85_304)" stroke="#D1B111" stroke-width="1.2" class="bulb-top phase4" />
<path d="M29.6519 382.358C25.42 385.47 19.0777 396.484 14.2179 394.102C10.1107 392.09 9.05883 387.88 11.9903 384.658C15.0521 381.292 24.5709 383.285 29.6519 382.358Z" fill="url(#paint71_radial_85_304)" stroke="#D1B111" stroke-width="1.2" class="bulb-top phase5" />
<path d="M44.4091 411.92C40.5318 415.463 35.3957 427.088 30.3103 425.236C26.0125 423.671 24.5193 419.597 27.0918 416.082C29.7787 412.41 39.4553 413.381 44.4091 411.92Z" fill="url(#paint72_radial_85_304)" stroke="#D1B111" stroke-width="1.2" class="bulb-top phase0" />
<path d="M66.0658 432.897C63.8435 437.656 63.557 450.36 58.1498 450.598C53.5801 450.8 50.6388 447.609 51.667 443.376C52.7408 438.955 62.0506 436.144 66.0658 432.897Z" fill="url(#paint73_radial_85_304)" stroke="#D1B111" stroke-width="1.2" class="bulb-top phase1" />
<path d="M92.6636 445.086C91.548 450.218 94.0767 462.672 88.8558 464.099C84.4436 465.304 80.8697 462.842 80.9368 458.487C81.007 453.938 89.4654 449.141 92.6636 445.086Z" fill="url(#paint74_radial_85_304)" stroke="#D1B111" stroke-width="1.2" class="bulb-top phase2" />
<path d="M122.819 457.141C121.703 462.273 124.232 474.727 119.011 476.153C114.599 477.359 111.025 474.897 111.092 470.542C111.162 465.993 119.621 461.195 122.819 457.141Z" fill="url(#paint75_radial_85_304)" stroke="#D1B111" stroke-width="1.2" class="bulb-top phase3" />
<path d="M152.947 467.684C151.831 472.816 154.36 485.27 149.139 486.696C144.727 487.902 141.153 485.44 141.22 481.085C141.29 476.536 149.749 471.738 152.947 467.684Z" fill="url(#paint76_radial_85_304)" stroke="#D1B111" stroke-width="1.2" class="bulb-top phase4" />
<path d="M182.12 479.161C181.004 484.293 183.533 496.747 178.312 498.174C173.9 499.379 170.326 496.917 170.393 492.562C170.463 488.013 178.922 483.215 182.12 479.161Z" fill="url(#paint77_radial_85_304)" stroke="#D1B111" stroke-width="1.2" class="bulb-top phase5" />
<path d="M212.162 490.919C211.046 496.051 213.575 508.505 208.354 509.931C203.942 511.137 200.368 508.674 200.435 504.319C200.505 499.771 208.964 494.973 212.162 490.919Z" fill="url(#paint78_radial_85_304)" stroke="#D1B111" stroke-width="1.2" class="bulb-top phase0" />
<path d="M241.897 502.78C240.781 507.912 243.31 520.366 238.089 521.792C233.677 522.998 230.103 520.536 230.17 516.181C230.24 511.632 238.699 506.834 241.897 502.78Z" fill="url(#paint79_radial_85_304)" stroke="#D1B111" stroke-width="1.2" class="bulb-top phase1" />
<path d="M271.311 514.72C270.195 519.852 272.724 532.306 267.503 533.732C263.091 534.938 259.517 532.476 259.584 528.12C259.654 523.572 268.113 518.774 271.311 514.72Z" fill="url(#paint80_radial_85_304)" stroke="#D1B111" stroke-width="1.2" class="bulb-top phase2" />
<path d="M300.673 526.199C299.558 531.331 302.086 543.785 296.866 545.211C292.453 546.417 288.879 543.954 288.947 539.599C289.017 535.051 297.475 530.253 300.673 526.199Z" fill="url(#paint81_radial_85_304)" stroke="#D1B111" stroke-width="1.2" class="bulb-top phase3" />
<path d="M329.873 537.947C328.757 543.079 331.286 555.533 326.065 556.96C321.653 558.165 318.079 555.703 318.146 551.348C318.216 546.799 326.674 542.001 329.873 537.947Z" fill="url(#paint82_radial_85_304)" stroke="#D1B111" stroke-width="1.2" class="bulb-top phase4" />
<path d="M359.424 549.239C358.309 554.371 360.837 566.825 355.617 568.252C351.204 569.457 347.63 566.995 347.698 562.64C347.768 558.091 356.226 553.293 359.424 549.239Z" fill="url(#paint83_radial_85_304)" stroke="#D1B111" stroke-width="1.2" class="bulb-top phase5" />
<path d="M388.597 560.717C387.482 565.849 390.01 578.303 384.789 579.729C380.377 580.935 376.803 578.472 376.87 574.117C376.941 569.569 385.399 564.771 388.597 560.717Z" fill="url(#paint84_radial_85_304)" stroke="#D1B111" stroke-width="1.2" class="bulb-top phase0" />
<path d="M652.168 666.617C651.053 671.749 653.582 684.203 648.361 685.629C643.948 686.835 640.375 684.372 640.442 680.017C640.512 675.469 648.97 670.671 652.168 666.617Z" fill="url(#paint85_radial_85_304)" stroke="#D1B111" stroke-width="1.2" class="bulb-top phase1" />
<path d="M622.931 657.029C621.816 662.161 624.344 674.615 619.123 676.041C614.711 677.247 611.137 674.784 611.204 670.429C611.275 665.881 619.733 661.083 622.931 657.029Z" fill="url(#paint86_radial_85_304)" stroke="#D1B111" stroke-width="1.2" class="bulb-top phase2" />
<path d="M593.767 644.796C592.651 649.928 595.18 662.382 589.959 663.808C585.547 665.014 581.973 662.551 582.04 658.196C582.11 653.647 590.569 648.85 593.767 644.796Z" fill="url(#paint87_radial_85_304)" stroke="#D1B111" stroke-width="1.2" class="bulb-top phase3" />
<path d="M564.431 631.048C563.316 636.18 565.844 648.635 560.623 650.061C556.211 651.266 552.637 648.804 552.704 644.449C552.775 639.9 561.233 635.103 564.431 631.048Z" fill="url(#paint88_radial_85_304)" stroke="#D1B111" stroke-width="1.2" class="bulb-top phase4" />
<path d="M535.32 619.284C534.204 624.416 536.733 636.87 531.512 638.297C527.1 639.502 523.526 637.04 523.593 632.685C523.663 628.136 532.122 623.338 535.32 619.284Z" fill="url(#paint89_radial_85_304)" stroke="#D1B111" stroke-width="1.2" class="bulb-top phase5" />
<path d="M506.091 607.618C504.976 612.75 507.505 625.204 502.284 626.63C497.871 627.836 494.297 625.373 494.365 621.018C494.435 616.47 502.893 611.672 506.091 607.618Z" fill="url(#paint90_radial_85_304)" stroke="#D1B111" stroke-width="1.2" class="bulb-top phase0" />
<path d="M417.973 572.046C416.858 577.178 419.386 589.632 414.165 591.058C409.753 592.264 406.179 589.801 406.246 585.446C406.317 580.898 414.775 576.1 417.973 572.046Z" fill="url(#paint91_radial_85_304)" stroke="#D1B111" stroke-width="1.2" class="bulb-top phase1" />
<path d="M476.305 596.133C475.19 601.265 477.718 613.72 472.497 615.146C468.085 616.351 464.511 613.889 464.578 609.534C464.649 604.985 473.107 600.188 476.305 596.133Z" fill="url(#paint92_radial_85_304)" stroke="#D1B111" stroke-width="1.2" class="bulb-top phase2" />
<path d="M447.616 583.85C446.5 588.981 449.029 601.436 443.808 602.862C439.396 604.067 435.822 601.605 435.889 597.25C435.959 592.701 444.418 587.904 447.616 583.85Z" fill="url(#paint93_radial_85_304)" stroke="#D1B111" stroke-width="1.2" class="bulb-top phase3" />
<path d="M668.182 670.346L84.958 439.403C17.2708 412.6 -7.57606 296.214 103.878 251.455L666.944 25.3337L1244.16 254.91C1319.9 285.033 1329.69 402.428 1243.06 437.514L668.182 670.346Z" stroke="#E6C77A" stroke-width="16.9371" />
<path d="M664.486 662.445L77.2666 432.104C33.4681 414.924 9.29655 303.266 88.1406 271.978L662.363 44.1018L1251.04 278.994C1305.35 300.661 1301.21 405.594 1247.87 427.113L664.486 662.445Z" stroke="#A86A30" stroke-width="16.4" />
<path d="M669.285 656.754L82.0654 426.414C38.267 409.233 14.0954 297.575 92.9394 266.287L667.162 38.4109L1255.84 273.303C1310.14 294.97 1306.01 399.903 1252.67 421.422L669.285 656.754Z" fill="url(#paint94_linear_85_304)" stroke="#DF9B53" stroke-width="16.4" />
<path d="M701.997 788.934C701.091 789.841 669.01 763.377 667.725 763.382C666.441 763.388 634.6 790.117 633.689 789.216C632.778 788.315 659.379 756.399 659.374 755.121C659.368 753.843 632.5 722.166 633.406 721.26C634.312 720.354 666.393 746.818 667.678 746.812C668.962 746.807 700.803 720.078 701.714 720.979C702.625 721.88 676.024 753.795 676.03 755.074C676.035 756.351 702.903 788.028 701.997 788.934Z" fill="#BA331C" />
<path d="M699.188 784.822C698.372 785.638 669.48 761.805 668.323 761.81C667.166 761.815 638.49 785.887 637.67 785.076C636.849 784.264 660.806 755.521 660.801 754.37C660.796 753.219 636.599 724.691 637.415 723.875C638.231 723.059 667.123 746.892 668.28 746.887C669.437 746.882 698.113 722.81 698.933 723.621C699.753 724.433 675.797 753.176 675.802 754.327C675.806 755.478 700.004 784.006 699.188 784.822Z" stroke="#F2D878" stroke-width="2.97198" />
<path d="M667.858 829.442C666.081 829.284 661.359 764.154 660.101 762.727C658.87 761.331 602.235 757.128 602.376 755.158C602.521 753.145 660.026 747.604 661.29 746.175C662.525 744.777 666.401 680.603 668.139 680.758C669.916 680.916 674.639 746.046 675.897 747.473C677.127 748.869 733.763 753.072 733.621 755.042C733.476 757.055 675.971 762.596 674.708 764.025C673.472 765.423 669.596 829.597 667.858 829.442Z" fill="#DB3C21" />
<path d="M667.081 819.215C665.521 819.076 661.373 761.881 660.269 760.628C659.188 759.402 609.452 755.711 609.577 753.981C609.704 752.213 660.203 747.347 661.313 746.092C662.398 744.864 665.802 688.509 667.328 688.645C668.888 688.783 673.035 745.979 674.14 747.232C675.221 748.458 724.957 752.149 724.832 753.879C724.705 755.647 674.206 760.512 673.096 761.767C672.011 762.995 668.607 819.351 667.081 819.215Z" stroke="#F2D878" stroke-width="2.7181" />
<path d="M707.84 348.409V350.057C693.692 346.312 687.437 332.232 687.437 318.602C687.437 278.61 735.988 245.509 769.944 236.072C767.263 235.473 759.519 237.72 756.838 238.169C667.481 255.544 589.74 325.942 502.915 352.753C495.617 354.85 469.555 361.14 462.108 361.14C443.79 361.14 421.302 361.14 407.75 345.863C390.474 326.99 410.877 296.434 434.855 287.597C441.11 285.5 454.662 280.707 461.513 280.707C444.833 289.095 420.706 299.58 422.345 323.246C424.43 338.523 450.492 342.118 462.555 342.118C513.787 342.118 595.251 298.531 610.888 289.545C690.267 244.31 750.285 228.583 779.624 221.843C795.261 218.098 845.45 214.953 849.025 219.746C850.067 221.394 852.748 224.539 849.025 225.588C842.77 227.684 828.175 227.684 825.047 228.284C782.751 234.574 700.245 277.113 698.16 326.541C697.862 336.277 702.628 341.519 707.84 348.409Z" fill="#DB3C21" />
<path d="M901.149 246.407C902.788 250.152 899.511 251.2 899.511 251.2C897.426 254.346 819.09 276.963 819.536 312.611C820.132 350.506 886.405 350.506 917.234 328.937C923.042 324.743 933.914 314.259 933.914 306.919C933.914 304.223 933.318 302.725 930.786 301.078L931.382 300.029C939.722 302.126 935.552 314.708 932.424 319.501C919.914 337.924 887.448 347.36 866.598 351.554C781.411 368.929 770.986 296.434 854.535 260.187C823.706 257.491 766.22 282.804 745.817 305.421C741.647 310.214 738.966 314.858 734.349 319.651C734.349 319.651 732.264 322.347 732.711 319.052C738.519 294.338 791.687 257.042 843.961 252.399C862.428 249.103 881.789 246.407 901.149 246.407Z" fill="#DB3C21" />
<path d="M462.407 259.588C468.662 259.588 484.299 261.685 484.299 273.817C484.299 276.963 479.533 286.998 475.959 286.998C476.555 286.399 475.363 286.399 475.959 285.95C478.044 282.205 482.81 277.562 482.81 274.417C482.81 267.077 466.577 266.029 463.449 266.029C437.387 266.029 413.26 283.853 393.006 307.518C395.687 300.179 401.346 290.144 408.643 283.404C422.196 271.121 443.493 259.139 462.407 259.588Z" fill="#DB3C21" />
<path d="M524.509 394.092C522.424 394.092 518.701 395.141 517.659 395.74C517.063 396.339 517.063 396.789 517.063 397.837C516.467 400.982 516.467 410.419 516.467 418.807C516.467 433.036 516.467 441.873 518.105 448.164C518.105 449.212 518.701 449.212 519.744 449.811C521.829 450.411 523.914 450.86 526.594 450.86C529.722 450.86 534.488 449.811 540.147 446.067C548.04 441.274 552.21 434.534 552.21 421.952C552.21 410.868 547.444 404.128 542.232 399.934C534.934 395.141 528.679 394.092 524.509 394.092ZM514.084 455.503C513.042 455.503 508.276 455.503 505.149 455.503H498.894C495.17 455.503 497.255 455.503 496.213 455.503C495.17 455.503 495.17 454.904 495.17 454.904C494.575 454.305 494.575 453.256 495.17 453.256C499.936 452.657 501.425 452.208 502.021 448.463L502.617 421.203V396.489C502.617 392.744 500.532 392.295 495.319 391.696C494.724 391.696 495.319 390.648 495.915 390.048C495.915 389.449 496.511 389.449 496.958 389.449C498 389.449 503.808 389.449 507.383 389.449L511.106 388.85C517.956 388.85 521.531 388.251 526.743 388.251C533.594 388.251 547.146 389.299 555.933 397.687C563.231 404.577 566.954 412.366 566.954 421.802C566.954 427.045 564.273 437.08 556.976 443.82C549.678 450.71 544.913 451.159 539.7 453.256C534.488 454.904 530.764 454.904 524.063 454.904H514.084V455.503Z" fill="#DB3C21" />
<path d="M231.418 424.498L230.823 449.212C230.823 452.957 233.503 452.957 238.12 453.406C238.716 453.406 238.12 454.455 237.524 455.054C237.524 455.653 236.929 455.653 236.482 455.653C235.439 455.653 230.674 455.653 227.546 455.653H221.291C217.568 455.653 219.653 455.653 218.61 455.653C217.568 455.653 217.568 455.054 217.568 455.054C216.972 454.455 216.972 453.406 217.568 453.406C222.334 452.807 223.823 452.358 224.419 448.613L226.057 421.353L227.099 396.639C227.099 392.894 225.014 392.445 219.802 391.846C219.206 391.846 219.802 390.797 220.398 390.198C220.398 389.599 220.993 389.599 221.44 389.599C222.483 389.599 228.291 389.599 231.865 389.599C234.993 389.599 236.631 389.599 239.163 389.599C239.758 391.696 240.801 394.392 241.248 395.44C246.013 404.877 255.396 421.652 261.055 432.287C261.651 433.335 262.097 433.335 262.693 432.886C268.948 421.353 276.841 406.075 282.054 395.59C282.65 394.542 283.096 391.846 283.692 390.348H292.032C295.755 390.348 300.968 390.348 302.457 390.348C303.5 390.348 303.5 390.947 303.5 390.947C304.095 391.546 304.095 392.595 304.095 392.595C299.33 393.194 296.798 393.643 296.798 397.388L297.394 422.102V425.247L298.436 449.961C298.436 453.706 301.117 453.706 305.734 454.155C306.329 454.155 305.734 455.203 305.138 455.803C305.138 456.402 304.542 456.402 304.095 456.402C303.053 456.402 296.798 456.402 293.075 456.402H287.862C284.139 456.402 279.522 456.402 278.48 456.402C277.437 456.402 277.437 455.803 277.437 455.803C276.841 455.203 276.841 454.155 277.437 454.155C282.203 453.556 283.692 453.107 284.288 449.362L284.884 424.648L285.479 404.128C285.479 403.079 284.884 403.079 284.437 403.529C282.799 405.626 273.416 427.194 268.799 436.63C264.034 447.115 261.949 451.309 261.949 452.358C259.268 454.455 259.268 455.503 257.779 455.503C257.183 455.503 256.736 454.904 256.14 454.455C255.545 453.406 253.013 448.613 249.885 442.322C240.95 423.45 234.695 410.868 231.567 402.929V424.498H231.418Z" fill="#DB3C21" />
<path d="M381.985 449.811C383.623 453.556 386.155 453.556 391.367 454.005C391.963 454.005 391.367 455.054 391.367 455.653C391.367 455.653 391.367 456.252 390.325 456.252C389.282 456.252 382.431 456.252 378.857 456.252H373.645C369.921 456.252 365.305 456.252 363.666 456.252C362.624 456.252 362.624 455.653 362.624 455.653C362.028 455.054 362.028 454.005 362.028 454.005C366.794 453.406 367.241 452.957 366.198 449.212L361.432 436.63C360.837 435.582 359.794 434.534 358.752 434.534C355.624 434.534 344.604 434.534 341.029 434.534C338.944 434.534 338.349 435.582 337.902 436.63L333.136 449.212C331.498 452.957 333.136 452.957 338.349 453.406C338.944 453.406 338.349 454.455 338.349 455.054C338.349 455.653 338.349 455.653 337.306 455.653C336.264 455.653 330.455 455.653 327.328 455.653H321.073C317.35 455.653 319.435 455.653 318.392 455.653C317.35 455.653 317.35 455.054 317.35 455.054C317.35 454.455 317.35 453.406 317.945 453.406C323.158 452.807 324.796 452.358 326.285 448.613L329.413 441.274L348.774 396.639C349.816 394.542 350.859 391.846 351.454 390.797C351.454 390.198 352.05 389.749 352.497 389.15C354.135 388.55 355.624 388.101 357.262 388.101C358.901 388.101 358.901 388.101 359.347 390.198C362.475 399.185 364.56 404.877 368.283 413.864L381.985 449.811ZM343.71 427.644C344.752 427.644 345.795 427.644 349.518 427.644C352.199 427.644 353.688 427.644 357.411 427.644C358.007 427.644 359.05 426.595 359.05 426.595C355.326 415.511 353.241 409.819 351.752 406.674C351.752 406.075 350.71 406.075 350.71 406.075C348.029 412.965 346.54 416.11 342.37 426.595C341.625 427.194 342.667 427.644 343.71 427.644Z" fill="#DB3C21" />
<path d="M639.483 449.811C641.121 453.556 643.653 453.556 648.865 454.005C649.461 454.005 648.865 455.054 648.865 455.653C648.865 455.653 648.865 456.252 647.823 456.252C646.78 456.252 639.929 456.252 636.355 456.252H631.143C627.419 456.252 622.803 456.252 621.164 456.252C620.122 456.252 620.122 455.653 620.122 455.653C619.526 454.604 619.526 454.005 619.526 454.005C624.292 453.406 624.739 452.957 623.696 449.212L619.526 436.63C618.93 435.582 617.888 434.534 616.845 434.534C613.718 434.534 602.697 434.534 599.123 434.534C597.038 434.534 596.442 435.582 595.996 436.63L591.23 449.212C589.592 452.957 591.23 452.957 596.442 453.406C597.038 453.406 596.442 454.455 596.442 455.054C596.442 455.653 596.442 455.653 595.4 455.653C594.357 455.653 588.549 455.653 585.422 455.653H579.167C575.443 455.653 577.528 455.653 576.486 455.653C575.443 455.653 575.443 455.054 575.443 455.054C575.443 454.455 575.443 453.406 576.039 453.406C581.252 452.807 582.89 452.358 584.379 448.613L587.507 441.274L606.867 396.639C607.91 394.542 608.505 391.846 608.952 390.797C608.952 390.198 609.548 389.749 609.995 389.15C611.633 388.55 613.718 388.101 615.207 388.101C616.845 388.101 616.845 388.101 617.292 390.198C620.42 399.185 622.505 404.877 626.228 413.864L639.483 449.811ZM601.357 427.644C602.399 427.644 603.442 427.644 607.165 427.644C609.846 427.644 611.335 427.644 615.058 427.644C615.654 427.644 616.697 426.595 616.697 426.595C612.973 415.511 610.888 409.819 609.399 406.674C609.399 406.075 608.357 406.075 608.357 406.075C605.676 412.965 604.187 416.11 600.017 426.595C599.272 427.194 599.719 427.644 601.357 427.644Z" fill="#DB3C21" />
<path d="M791.389 449.811C793.027 453.556 795.559 453.556 800.771 454.005C801.367 454.005 800.771 455.054 800.771 455.653C800.771 455.653 800.771 456.252 799.729 456.252C798.686 456.252 791.836 456.252 788.261 456.252H783.049C779.326 456.252 774.709 456.252 773.071 456.252C772.028 456.252 772.028 455.653 772.028 455.653C771.432 455.054 771.432 454.005 771.432 454.005C776.198 453.406 776.645 452.957 775.602 449.212L770.837 436.63C770.241 435.582 769.198 434.534 768.156 434.534C765.029 434.534 754.008 434.534 750.434 434.534C748.349 434.534 747.753 435.582 747.306 436.63L742.54 449.212C740.902 452.957 742.54 452.957 747.753 453.406C748.349 453.406 747.753 454.455 747.753 455.054C747.753 455.653 747.753 455.653 746.71 455.653C745.668 455.653 739.86 455.653 736.732 455.653H730.477C726.754 455.653 728.839 455.653 727.796 455.653C726.754 455.653 726.754 455.054 726.754 455.054C726.754 454.455 726.754 453.406 727.35 453.406C732.562 452.807 734.2 452.358 735.69 448.613L738.817 441.274L758.178 396.639C759.22 394.542 759.816 391.846 760.263 390.797C760.263 390.198 760.859 389.749 761.305 389.15C762.944 388.55 765.029 388.101 766.518 388.101C768.156 388.101 768.156 388.101 768.603 390.198C771.73 399.185 773.815 404.877 777.539 413.864L791.389 449.811ZM753.263 427.644C754.306 427.644 755.348 427.644 759.071 427.644C761.752 427.644 763.241 427.644 766.965 427.644C767.56 427.644 768.603 426.595 768.603 426.595C764.88 415.511 762.795 409.819 761.305 406.674C761.305 406.075 760.263 406.075 760.263 406.075C757.135 412.965 756.093 416.11 751.923 426.595C751.178 427.194 752.221 427.644 753.263 427.644Z" fill="#DB3C21" />
<path d="M1038.46 449.811C1040.1 453.556 1042.63 453.556 1047.84 454.005C1048.44 454.005 1047.84 455.054 1047.84 455.653C1047.84 455.653 1047.84 456.252 1046.8 456.252C1045.76 456.252 1038.91 456.252 1035.33 456.252H1030.12C1026.4 456.252 1021.78 456.252 1020.14 456.252C1019.1 456.252 1019.1 455.653 1019.1 455.653C1018.5 455.054 1018.5 454.005 1018.5 454.005C1023.27 453.406 1023.72 452.957 1022.67 449.212L1017.91 436.63C1017.31 435.582 1016.27 434.534 1015.23 434.534C1012.1 434.534 1001.08 434.534 997.506 434.534C995.421 434.534 994.825 435.582 994.378 436.63L989.613 449.212C987.974 452.957 989.613 452.957 994.825 453.406C995.421 453.406 994.825 454.455 994.825 455.054C994.825 455.653 994.825 455.653 993.783 455.653C992.74 455.653 986.932 455.653 983.804 455.653H977.549C973.826 455.653 975.911 455.653 974.869 455.653C973.826 455.653 973.826 455.054 973.826 455.054C973.826 454.455 973.826 453.406 974.422 453.406C979.634 452.807 981.273 452.358 982.762 448.613L985.889 441.274L1005.25 396.639C1006.29 394.542 1006.89 391.846 1007.34 390.797C1007.34 390.198 1007.93 389.749 1008.38 389.15C1010.02 388.55 1012.1 388.101 1013.59 388.101C1015.23 388.101 1015.23 388.101 1015.68 390.198C1018.8 399.185 1020.89 404.877 1024.61 413.864L1038.46 449.811ZM1000.34 427.644C1001.38 427.644 1002.42 427.644 1006.14 427.644C1008.82 427.644 1010.31 427.644 1014.04 427.644C1014.63 427.644 1015.68 426.595 1015.68 426.595C1011.95 415.511 1009.87 409.819 1008.38 406.674C1008.38 406.075 1007.34 406.075 1007.34 406.075C1004.65 412.965 1003.17 416.11 998.995 426.595C998.846 427.194 999.293 427.644 1000.34 427.644Z" fill="#DB3C21" />
<path d="M463.449 406.674V396.189C463.449 392.445 460.768 392.445 456.151 391.995C455.556 391.995 456.151 390.947 456.747 390.348C456.747 389.749 457.343 389.749 457.79 389.749C458.832 389.749 463.002 389.749 466.13 389.749H472.385C476.108 389.749 474.023 389.749 475.065 389.749C476.108 389.749 476.108 390.348 476.108 390.348C476.703 390.947 476.703 391.995 476.108 391.995C471.342 392.595 469.853 393.044 469.257 396.788V406.225C468.661 415.661 468.661 427.793 468.661 436.181C468.661 446.217 469.257 451.908 469.257 454.005C469.257 455.653 468.215 456.102 464.491 457.75C463.896 458.349 463.449 457.75 462.853 456.701C457.045 449.362 449.301 440.974 439.322 430.489C426.812 417.309 416.834 407.872 416.834 407.872L416.239 448.314C416.239 452.058 418.919 452.058 423.536 452.507C424.132 452.507 423.536 453.556 422.94 454.155C422.94 454.754 422.345 454.754 421.898 454.754C420.855 454.754 416.09 454.754 412.962 454.754H406.707C402.984 454.754 405.069 454.754 404.026 454.754C402.984 454.754 402.984 454.155 402.984 454.155C402.388 453.556 402.388 452.507 402.984 452.507C407.75 451.908 409.239 451.459 409.835 447.714L410.43 420.454V395.74C410.43 391.995 408.345 391.546 403.133 390.947C402.537 390.947 403.133 389.898 403.729 389.299C403.729 388.7 404.324 388.7 404.771 388.7C405.814 388.7 409.537 388.7 413.111 388.7H416.834C417.877 388.7 418.472 388.7 418.919 389.299C419.515 389.299 419.962 390.348 420.557 390.947C421.6 392.595 426.812 397.837 427.855 399.335C436.195 408.322 443.492 415.661 462.257 432.886C463.449 430.939 463.449 414.013 463.449 406.674Z" fill="#DB3C21" />
<path d="M682.821 455.503C681.778 455.503 677.012 455.503 673.885 455.503H667.63C663.907 455.503 665.992 455.503 664.949 455.503C663.907 455.503 663.907 454.904 663.907 454.904C663.311 454.305 663.311 453.257 663.907 453.257C668.672 452.657 670.162 452.208 670.757 448.464L671.353 421.203V414.313V406.375V396.339C671.353 392.595 668.672 392.595 664.056 392.145C663.46 392.145 664.056 391.097 664.651 390.498C664.651 389.899 665.247 389.899 665.694 389.899C666.736 389.899 670.906 389.899 674.034 389.899H684.012C687.735 389.899 688.778 389.899 689.82 389.899C690.863 389.899 690.863 390.498 690.863 390.498C691.459 391.097 691.459 392.145 690.863 392.145C686.097 392.745 684.608 393.194 684.012 396.938V406.375V415.362V427.943C684.012 442.173 684.608 445.318 684.608 446.816C684.608 448.464 685.65 449.512 687.289 449.512C688.927 450.111 689.969 450.111 694.586 450.111C701.437 450.111 707.692 449.063 710.224 444.869C711.266 443.82 711.862 441.723 712.904 437.979C712.904 437.38 713.5 437.38 713.947 437.38C714.989 437.38 714.989 437.38 715.585 437.979C715.585 437.979 716.181 439.027 716.181 439.626C714.542 444.869 713.5 450.111 712.457 454.305C712.457 455.353 711.862 455.953 710.819 455.953C709.777 455.953 710.819 455.953 706.649 455.953L682.821 455.503Z" fill="#DB3C21" />
<path d="M844.11 406.674L849.918 396.639C852.003 392.894 848.28 392.894 843.067 392.445C842.471 392.445 842.471 391.396 843.067 390.797C843.067 390.198 843.067 390.198 844.11 390.198C845.152 390.198 853.045 390.198 856.62 390.198H861.385C864.066 390.198 865.555 390.198 866.598 390.198C867.194 390.198 867.194 390.797 867.194 390.797C867.194 391.396 866.598 392.445 866.598 392.445C862.428 393.044 861.385 393.493 858.705 397.238L851.407 406.674L840.982 421.952C839.344 424.049 839.344 425.696 839.344 429.89V435.732L839.94 449.362C839.94 453.107 842.62 453.107 847.237 453.556C847.833 453.556 847.237 454.604 846.641 455.204C846.641 455.803 846.046 455.803 845.599 455.803C844.556 455.803 832.493 455.803 828.919 455.803H822.813C819.09 455.803 821.175 455.803 820.132 455.803C819.09 455.803 819.09 455.204 819.09 455.204C818.494 454.604 818.494 453.556 819.09 453.556C823.855 452.957 825.345 452.507 825.94 448.763L826.536 438.278V428.243C826.536 426.595 825.94 425.097 823.855 421.952L814.92 406.674L808.665 396.639C806.58 392.894 805.984 392.894 801.367 392.445C800.771 392.445 800.771 391.396 800.771 390.797C800.771 390.198 800.771 390.198 801.814 390.198C802.856 390.198 804.495 390.198 808.069 390.198H819.536C823.26 390.198 824.302 390.198 825.345 390.198C826.387 390.198 826.387 390.797 826.387 390.797C826.387 391.396 826.387 392.445 825.791 392.445C820.579 393.044 822.068 393.493 823.706 397.238L828.919 406.674L833.685 415.062C834.28 416.11 834.727 417.159 835.77 417.758C836.365 418.357 836.812 417.758 837.408 417.159L844.11 406.674Z" fill="#DB3C21" />
<path d="M1093.86 396.189C1095.95 392.445 1092.22 392.445 1087.01 391.996C1086.42 391.996 1086.42 390.947 1087.01 390.348C1087.01 389.749 1087.01 389.749 1088.05 389.749C1089.1 389.749 1096.99 389.749 1100.56 389.749H1105.33C1108.01 389.749 1109.5 389.749 1110.54 389.749C1111.14 389.749 1111.14 390.348 1111.14 390.348C1111.14 390.947 1110.54 391.996 1110.54 391.996C1106.37 392.595 1105.33 393.044 1102.65 396.789L1095.35 406.225L1084.93 421.503C1083.29 423.6 1083.29 425.247 1083.29 429.441V435.283L1083.88 448.913C1083.88 452.657 1086.57 452.657 1091.18 453.107C1091.78 453.107 1091.18 454.155 1090.59 454.754C1090.59 455.353 1089.99 455.353 1089.54 455.353C1088.5 455.353 1076.44 455.353 1072.86 455.353H1066.61C1062.89 455.353 1064.97 455.353 1063.93 455.353C1062.89 455.353 1062.89 454.754 1062.89 454.754C1062.29 454.155 1062.29 453.107 1062.89 453.107C1067.65 452.507 1069.14 452.058 1069.74 448.314L1070.33 437.829V427.793C1070.33 426.146 1069.74 424.648 1067.65 421.503L1058.72 406.225L1052.46 396.189C1050.38 392.445 1049.78 392.445 1045.16 391.996C1044.57 391.996 1044.57 390.947 1044.57 390.348C1044.57 389.749 1044.57 389.749 1045.61 389.749C1046.65 389.749 1048.29 389.749 1051.86 389.749H1063.33C1067.06 389.749 1068.1 389.749 1069.14 389.749C1070.18 389.749 1070.18 390.348 1070.18 390.348C1070.18 390.947 1070.18 391.996 1069.59 391.996C1064.37 392.595 1065.86 393.044 1067.5 396.789L1072.71 406.225L1077.48 414.613C1078.08 415.661 1078.52 416.71 1079.57 417.309C1080.16 417.908 1080.61 417.309 1081.2 416.71C1087.46 407.723 1089.54 403.529 1090.59 402.031L1093.86 396.189Z" fill="#DB3C21" />
<path d="M927.808 455.503C926.765 455.503 922 455.503 918.872 455.503H912.617C908.894 455.503 910.979 455.503 909.937 455.503C908.894 455.503 908.894 454.904 908.894 454.904C908.298 454.305 908.298 453.256 908.894 453.256C913.66 452.657 915.149 452.208 915.745 448.463L916.34 421.203V396.489C916.34 392.744 914.255 392.295 909.043 391.696C908.447 391.696 909.043 390.648 909.639 390.048C909.639 389.449 910.234 389.449 910.681 389.449C911.724 389.449 917.532 389.449 921.106 389.449L924.829 388.85L936.297 388.251C940.467 388.251 945.233 388.85 950.445 390.947C953.573 392.595 958.338 396.789 958.338 403.529C958.338 406.674 957.296 410.868 953.573 413.564C951.488 415.212 950.445 416.26 949.403 416.26C948.807 416.26 949.403 417.309 949.998 417.309C956.849 418.956 965.636 424.648 965.636 434.683C965.636 444.12 959.381 449.961 950.445 452.508C946.275 454.155 941.063 454.155 939.424 454.155L927.808 455.503ZM936.595 451.309C942.85 451.309 950.743 446.516 950.743 437.08C950.743 432.287 949.7 429.142 947.02 426.595C943.297 422.851 938.68 421.802 935.999 421.802C934.361 421.802 930.787 421.802 929.744 422.851C929.148 423.45 928.702 425.547 928.702 429.141C928.702 446.516 928.702 446.966 930.787 449.063C932.425 450.86 933.467 451.309 936.595 451.309ZM944.935 405.176C944.935 402.031 944.339 399.934 941.807 397.837C939.722 395.74 936.595 394.692 933.914 394.692C933.318 394.692 931.233 394.692 930.191 395.291C929.148 395.291 929.148 395.89 929.148 396.339C929.148 397.388 928.553 398.436 928.553 403.229C928.553 408.472 928.553 412.216 929.148 415.362C929.148 416.41 929.744 417.009 930.787 417.009C931.829 417.009 932.872 417.608 934.957 417.608C936.595 417.608 938.68 417.608 940.169 416.56C943.892 413.564 944.935 409.82 944.935 405.176Z" fill="#DB3C21" />
<defs>
<filter id="vegasBulbBlur" x="-80%" y="-80%" width="260%" height="260%" color-interpolation-filters="sRGB"><feGaussianBlur stdDeviation="7.5" result="blur" /><feColorMatrix in="blur" type="matrix" values="1 0 0 0 0  0 0.84 0 0 0  0 0 0.18 0 0  0 0 0 1 0" /></filter><radialGradient id="paint0_radial_85_304" cx="0" cy="0" r="1" gradientTransform="matrix(4.29049 -3.8831 -4.08527 -4.5106 12.3036 318.035)" gradientUnits="userSpaceOnUse">
<stop stop-color="#F8F0B1" />
<stop offset="1" stop-color="#DCC833" />
</radialGradient>
<radialGradient id="paint1_radial_85_304" cx="0" cy="0" r="1" gradientTransform="matrix(4.67883 -3.40557 -3.58288 -4.91886 24.7573 289.98)" gradientUnits="userSpaceOnUse">
<stop stop-color="#F8F0B1" />
<stop offset="1" stop-color="#DCC833" />
</radialGradient>
<radialGradient id="paint2_radial_85_304" cx="0" cy="0" r="1" gradientTransform="matrix(5.62728 -1.35277 -1.4232 -5.91598 50.6172 262.254)" gradientUnits="userSpaceOnUse">
<stop stop-color="#F8F0B1" />
<stop offset="1" stop-color="#DCC833" />
</radialGradient>
<radialGradient id="paint3_radial_85_304" cx="0" cy="0" r="1" gradientTransform="matrix(5.78721 -0.0764072 -0.0803854 -6.08411 78.7736 244.538)" gradientUnits="userSpaceOnUse">
<stop stop-color="#F8F0B1" />
<stop offset="1" stop-color="#DCC833" />
</radialGradient>
<radialGradient id="paint4_radial_85_304" cx="0" cy="0" r="1" gradientTransform="matrix(5.78722 -0.0764074 -0.0803854 -6.08411 107.409 230.895)" gradientUnits="userSpaceOnUse">
<stop stop-color="#F8F0B1" />
<stop offset="1" stop-color="#DCC833" />
</radialGradient>
<radialGradient id="paint5_radial_85_304" cx="0" cy="0" r="1" gradientTransform="matrix(5.78721 -0.0764072 -0.0803854 -6.08411 142.861 215.817)" gradientUnits="userSpaceOnUse">
<stop stop-color="#F8F0B1" />
<stop offset="1" stop-color="#DCC833" />
</radialGradient>
<radialGradient id="paint6_radial_85_304" cx="0" cy="0" r="1" gradientTransform="matrix(5.78722 -0.0764074 -0.0803854 -6.08411 172.011 204.284)" gradientUnits="userSpaceOnUse">
<stop stop-color="#F8F0B1" />
<stop offset="1" stop-color="#DCC833" />
</radialGradient>
<radialGradient id="paint7_radial_85_304" cx="0" cy="0" r="1" gradientTransform="matrix(5.78722 -0.0764074 -0.0803854 -6.08411 202.03 192.467)" gradientUnits="userSpaceOnUse">
<stop stop-color="#F8F0B1" />
<stop offset="1" stop-color="#DCC833" />
</radialGradient>
<radialGradient id="paint8_radial_85_304" cx="0" cy="0" r="1" gradientTransform="matrix(5.78722 -0.0764074 -0.0803854 -6.08411 231.741 180.546)" gradientUnits="userSpaceOnUse">
<stop stop-color="#F8F0B1" />
<stop offset="1" stop-color="#DCC833" />
</radialGradient>
<radialGradient id="paint9_radial_85_304" cx="0" cy="0" r="1" gradientTransform="matrix(5.78722 -0.0764074 -0.0803854 -6.08411 261.133 168.55)" gradientUnits="userSpaceOnUse">
<stop stop-color="#F8F0B1" />
<stop offset="1" stop-color="#DCC833" />
</radialGradient>
<radialGradient id="paint10_radial_85_304" cx="0" cy="0" r="1" gradientTransform="matrix(5.78722 -0.0764074 -0.0803854 -6.08411 290.472 157.012)" gradientUnits="userSpaceOnUse">
<stop stop-color="#F8F0B1" />
<stop offset="1" stop-color="#DCC833" />
</radialGradient>
<radialGradient id="paint11_radial_85_304" cx="0" cy="0" r="1" gradientTransform="matrix(5.78722 -0.0764074 -0.0803854 -6.08411 319.648 145.207)" gradientUnits="userSpaceOnUse">
<stop stop-color="#F8F0B1" />
<stop offset="1" stop-color="#DCC833" />
</radialGradient>
<radialGradient id="paint12_radial_85_304" cx="0" cy="0" r="1" gradientTransform="matrix(5.78722 -0.0764074 -0.0803854 -6.08411 349.177 133.856)" gradientUnits="userSpaceOnUse">
<stop stop-color="#F8F0B1" />
<stop offset="1" stop-color="#DCC833" />
</radialGradient>
<radialGradient id="paint13_radial_85_304" cx="0" cy="0" r="1" gradientTransform="matrix(5.78722 -0.0764074 -0.0803854 -6.08411 378.327 122.322)" gradientUnits="userSpaceOnUse">
<stop stop-color="#F8F0B1" />
<stop offset="1" stop-color="#DCC833" />
</radialGradient>
<radialGradient id="paint14_radial_85_304" cx="0" cy="0" r="1" gradientTransform="matrix(5.78722 -0.0764074 -0.0803856 -6.08412 641.691 15.9028)" gradientUnits="userSpaceOnUse">
<stop stop-color="#F8F0B1" />
<stop offset="1" stop-color="#DCC833" />
</radialGradient>
<radialGradient id="paint15_radial_85_304" cx="0" cy="0" r="1" gradientTransform="matrix(5.78722 -0.0764074 -0.0803855 -6.08412 612.472 25.5491)" gradientUnits="userSpaceOnUse">
<stop stop-color="#F8F0B1" />
<stop offset="1" stop-color="#DCC833" />
</radialGradient>
<radialGradient id="paint16_radial_85_304" cx="0" cy="0" r="1" gradientTransform="matrix(5.78719 -0.076407 -0.0803856 -6.08412 583.331 37.839)" gradientUnits="userSpaceOnUse">
<stop stop-color="#F8F0B1" />
<stop offset="1" stop-color="#DCC833" />
</radialGradient>
<radialGradient id="paint17_radial_85_304" cx="0" cy="0" r="1" gradientTransform="matrix(5.78722 -0.0764074 -0.0803856 -6.08412 555.56 49.3935)" gradientUnits="userSpaceOnUse">
<stop stop-color="#F8F0B1" />
<stop offset="1" stop-color="#DCC833" />
</radialGradient>
<radialGradient id="paint18_radial_85_304" cx="0" cy="0" r="1" gradientTransform="matrix(5.78722 -0.0764074 -0.0803854 -6.08411 524.196 61.9453)" gradientUnits="userSpaceOnUse">
<stop stop-color="#F8F0B1" />
<stop offset="1" stop-color="#DCC833" />
</radialGradient>
<radialGradient id="paint19_radial_85_304" cx="0" cy="0" r="1" gradientTransform="matrix(5.78719 -0.076407 -0.0803854 -6.08411 495.745 73.6782)" gradientUnits="userSpaceOnUse">
<stop stop-color="#F8F0B1" />
<stop offset="1" stop-color="#DCC833" />
</radialGradient>
<radialGradient id="paint20_radial_85_304" cx="0" cy="0" r="1" gradientTransform="matrix(5.78722 -0.0764074 -0.0803854 -6.08411 407.681 110.935)" gradientUnits="userSpaceOnUse">
<stop stop-color="#F8F0B1" />
<stop offset="1" stop-color="#DCC833" />
</radialGradient>
<radialGradient id="paint21_radial_85_304" cx="0" cy="0" r="1" gradientTransform="matrix(5.78719 -0.076407 -0.0803854 -6.08411 466.73 85.9846)" gradientUnits="userSpaceOnUse">
<stop stop-color="#F8F0B1" />
<stop offset="1" stop-color="#DCC833" />
</radialGradient>
<radialGradient id="paint22_radial_85_304" cx="0" cy="0" r="1" gradientTransform="matrix(5.78722 -0.0764074 -0.0803854 -6.08411 437.3 99.0727)" gradientUnits="userSpaceOnUse">
<stop stop-color="#F8F0B1" />
<stop offset="1" stop-color="#DCC833" />
</radialGradient>
<radialGradient id="paint23_radial_85_304" cx="0" cy="0" r="1" gradientTransform="matrix(2.1188 -5.38399 -5.66431 -2.22749 9.39722 353.772)" gradientUnits="userSpaceOnUse">
<stop stop-color="#F8F0B1" />
<stop offset="1" stop-color="#DCC833" />
</radialGradient>
<radialGradient id="paint24_radial_85_304" cx="0" cy="0" r="1" gradientTransform="matrix(-3.20461 -4.81782 5.06866 -3.369 1316.79 310.858)" gradientUnits="userSpaceOnUse">
<stop stop-color="#F8F0B1" />
<stop offset="1" stop-color="#DCC833" />
</radialGradient>
<radialGradient id="paint25_radial_85_304" cx="0" cy="0" r="1" gradientTransform="matrix(-4.68983 -3.3904 3.56693 -4.93041 1302.19 280.869)" gradientUnits="userSpaceOnUse">
<stop stop-color="#F8F0B1" />
<stop offset="1" stop-color="#DCC833" />
</radialGradient>
<radialGradient id="paint26_radial_85_304" cx="0" cy="0" r="1" gradientTransform="matrix(-5.63165 -1.33455 1.40404 -5.92056 1277.88 255.424)" gradientUnits="userSpaceOnUse">
<stop stop-color="#F8F0B1" />
<stop offset="1" stop-color="#DCC833" />
</radialGradient>
<radialGradient id="paint27_radial_85_304" cx="0" cy="0" r="1" gradientTransform="matrix(-5.78744 -0.0576774 0.0606802 -6.08434 1249.75 238.931)" gradientUnits="userSpaceOnUse">
<stop stop-color="#F8F0B1" />
<stop offset="1" stop-color="#DCC833" />
</radialGradient>
<radialGradient id="paint28_radial_85_304" cx="0" cy="0" r="1" gradientTransform="matrix(-5.78744 -0.0576774 0.0606802 -6.08434 1220.66 225.858)" gradientUnits="userSpaceOnUse">
<stop stop-color="#F8F0B1" />
<stop offset="1" stop-color="#DCC833" />
</radialGradient>
<radialGradient id="paint29_radial_85_304" cx="0" cy="0" r="1" gradientTransform="matrix(-5.78744 -0.0576774 0.0606802 -6.08434 1195.31 214.873)" gradientUnits="userSpaceOnUse">
<stop stop-color="#F8F0B1" />
<stop offset="1" stop-color="#DCC833" />
</radialGradient>
<radialGradient id="paint30_radial_85_304" cx="0" cy="0" r="1" gradientTransform="matrix(-5.78744 -0.0576774 0.0606802 -6.08434 1166.1 205.021)" gradientUnits="userSpaceOnUse">
<stop stop-color="#F8F0B1" />
<stop offset="1" stop-color="#DCC833" />
</radialGradient>
<radialGradient id="paint31_radial_85_304" cx="0" cy="0" r="1" gradientTransform="matrix(-5.78744 -0.0576774 0.0606804 -6.08436 1136.04 192.767)" gradientUnits="userSpaceOnUse">
<stop stop-color="#F8F0B1" />
<stop offset="1" stop-color="#DCC833" />
</radialGradient>
<radialGradient id="paint32_radial_85_304" cx="0" cy="0" r="1" gradientTransform="matrix(-5.78744 -0.0576774 0.0606802 -6.08434 1107.89 180.917)" gradientUnits="userSpaceOnUse">
<stop stop-color="#F8F0B1" />
<stop offset="1" stop-color="#DCC833" />
</radialGradient>
<radialGradient id="paint33_radial_85_304" cx="0" cy="0" r="1" gradientTransform="matrix(-5.78744 -0.0576774 0.0606802 -6.08434 1078.46 169.014)" gradientUnits="userSpaceOnUse">
<stop stop-color="#F8F0B1" />
<stop offset="1" stop-color="#DCC833" />
</radialGradient>
<radialGradient id="paint34_radial_85_304" cx="0" cy="0" r="1" gradientTransform="matrix(-5.78744 -0.0576774 0.0606802 -6.08434 1049.08 157.573)" gradientUnits="userSpaceOnUse">
<stop stop-color="#F8F0B1" />
<stop offset="1" stop-color="#DCC833" />
</radialGradient>
<radialGradient id="paint35_radial_85_304" cx="0" cy="0" r="1" gradientTransform="matrix(-5.78744 -0.0576774 0.0606802 -6.08434 1019.87 145.861)" gradientUnits="userSpaceOnUse">
<stop stop-color="#F8F0B1" />
<stop offset="1" stop-color="#DCC833" />
</radialGradient>
<radialGradient id="paint36_radial_85_304" cx="0" cy="0" r="1" gradientTransform="matrix(-5.78744 -0.0576774 0.0606802 -6.08434 990.303 134.607)" gradientUnits="userSpaceOnUse">
<stop stop-color="#F8F0B1" />
<stop offset="1" stop-color="#DCC833" />
</radialGradient>
<radialGradient id="paint37_radial_85_304" cx="0" cy="0" r="1" gradientTransform="matrix(-5.78744 -0.0576774 0.0606802 -6.08434 961.117 123.167)" gradientUnits="userSpaceOnUse">
<stop stop-color="#F8F0B1" />
<stop offset="1" stop-color="#DCC833" />
</radialGradient>
<radialGradient id="paint38_radial_85_304" cx="0" cy="0" r="1" gradientTransform="matrix(-5.78744 -0.0576774 0.0606803 -6.08435 697.41 17.6011)" gradientUnits="userSpaceOnUse">
<stop stop-color="#F8F0B1" />
<stop offset="1" stop-color="#DCC833" />
</radialGradient>
<radialGradient id="paint39_radial_85_304" cx="0" cy="0" r="1" gradientTransform="matrix(-5.78744 -0.0576774 0.0606801 -6.08433 727.41 27.9157)" gradientUnits="userSpaceOnUse">
<stop stop-color="#F8F0B1" />
<stop offset="1" stop-color="#DCC833" />
</radialGradient>
<radialGradient id="paint40_radial_85_304" cx="0" cy="0" r="1" gradientTransform="matrix(-5.78744 -0.0576774 0.0606802 -6.08434 757.377 40.8341)" gradientUnits="userSpaceOnUse">
<stop stop-color="#F8F0B1" />
<stop offset="1" stop-color="#DCC833" />
</radialGradient>
<radialGradient id="paint41_radial_85_304" cx="0" cy="0" r="1" gradientTransform="matrix(-5.78744 -0.0576774 0.0606802 -6.08434 785.194 53.0572)" gradientUnits="userSpaceOnUse">
<stop stop-color="#F8F0B1" />
<stop offset="1" stop-color="#DCC833" />
</radialGradient>
<radialGradient id="paint42_radial_85_304" cx="0" cy="0" r="1" gradientTransform="matrix(-5.78744 -0.0576774 0.0606804 -6.08436 814.321 64.7852)" gradientUnits="userSpaceOnUse">
<stop stop-color="#F8F0B1" />
<stop offset="1" stop-color="#DCC833" />
</radialGradient>
<radialGradient id="paint43_radial_85_304" cx="0" cy="0" r="1" gradientTransform="matrix(-5.78744 -0.0576774 0.0606802 -6.08434 844.307 75.6468)" gradientUnits="userSpaceOnUse">
<stop stop-color="#F8F0B1" />
<stop offset="1" stop-color="#DCC833" />
</radialGradient>
<radialGradient id="paint44_radial_85_304" cx="0" cy="0" r="1" gradientTransform="matrix(-5.78744 -0.0576774 0.0606802 -6.08434 931.727 111.875)" gradientUnits="userSpaceOnUse">
<stop stop-color="#F8F0B1" />
<stop offset="1" stop-color="#DCC833" />
</radialGradient>
<radialGradient id="paint45_radial_85_304" cx="0" cy="0" r="1" gradientTransform="matrix(-5.78744 -0.0576774 0.0606804 -6.08436 873.364 87.8611)" gradientUnits="userSpaceOnUse">
<stop stop-color="#F8F0B1" />
<stop offset="1" stop-color="#DCC833" />
</radialGradient>
<radialGradient id="paint46_radial_85_304" cx="0" cy="0" r="1" gradientTransform="matrix(-5.78744 -0.0576774 0.0606802 -6.08434 902.069 100.108)" gradientUnits="userSpaceOnUse">
<stop stop-color="#F8F0B1" />
<stop offset="1" stop-color="#DCC833" />
</radialGradient>
<radialGradient id="paint47_radial_85_304" cx="0" cy="0" r="1" gradientTransform="matrix(-2.03057 -5.41788 5.69994 -2.13475 1321.77 346.133)" gradientUnits="userSpaceOnUse">
<stop stop-color="#F8F0B1" />
<stop offset="1" stop-color="#DCC833" />
</radialGradient>
<radialGradient id="paint48_radial_85_304" cx="0" cy="0" r="1" gradientTransform="matrix(-3.17884 4.83487 5.08657 3.34194 1318.38 380.003)" gradientUnits="userSpaceOnUse">
<stop stop-color="#F8F0B1" />
<stop offset="1" stop-color="#DCC833" />
</radialGradient>
<radialGradient id="paint49_radial_85_304" cx="0" cy="0" r="1" gradientTransform="matrix(-4.67167 3.41538 3.5932 4.91133 1303.42 410.612)" gradientUnits="userSpaceOnUse">
<stop stop-color="#F8F0B1" />
<stop offset="1" stop-color="#DCC833" />
</radialGradient>
<radialGradient id="paint50_radial_85_304" cx="0" cy="0" r="1" gradientTransform="matrix(-5.62444 1.36457 1.43562 5.91298 1280.85 436.161)" gradientUnits="userSpaceOnUse">
<stop stop-color="#F8F0B1" />
<stop offset="1" stop-color="#DCC833" />
</radialGradient>
<radialGradient id="paint51_radial_85_304" cx="0" cy="0" r="1" gradientTransform="matrix(-5.78705 0.0885486 0.0931587 6.08393 1251.75 453.356)" gradientUnits="userSpaceOnUse">
<stop stop-color="#F8F0B1" />
<stop offset="1" stop-color="#DCC833" />
</radialGradient>
<radialGradient id="paint52_radial_85_304" cx="0" cy="0" r="1" gradientTransform="matrix(-5.78705 0.0885486 0.0931587 6.08393 1221.64 465.533)" gradientUnits="userSpaceOnUse">
<stop stop-color="#F8F0B1" />
<stop offset="1" stop-color="#DCC833" />
</radialGradient>
<radialGradient id="paint53_radial_85_304" cx="0" cy="0" r="1" gradientTransform="matrix(-5.78705 0.0885486 0.093159 6.08395 1191.54 477.267)" gradientUnits="userSpaceOnUse">
<stop stop-color="#F8F0B1" />
<stop offset="1" stop-color="#DCC833" />
</radialGradient>
<radialGradient id="paint54_radial_85_304" cx="0" cy="0" r="1" gradientTransform="matrix(-5.78705 0.0885486 0.0931587 6.08393 1162.95 488.869)" gradientUnits="userSpaceOnUse">
<stop stop-color="#F8F0B1" />
<stop offset="1" stop-color="#DCC833" />
</radialGradient>
<radialGradient id="paint55_radial_85_304" cx="0" cy="0" r="1" gradientTransform="matrix(-5.78705 0.0885486 0.093159 6.08395 1132.95 501.284)" gradientUnits="userSpaceOnUse">
<stop stop-color="#F8F0B1" />
<stop offset="1" stop-color="#DCC833" />
</radialGradient>
<radialGradient id="paint56_radial_85_304" cx="0" cy="0" r="1" gradientTransform="matrix(-5.78705 0.0885486 0.0931587 6.08393 1104.87 513.283)" gradientUnits="userSpaceOnUse">
<stop stop-color="#F8F0B1" />
<stop offset="1" stop-color="#DCC833" />
</radialGradient>
<radialGradient id="paint57_radial_85_304" cx="0" cy="0" r="1" gradientTransform="matrix(-5.78705 0.0885486 0.0931587 6.08393 1075.5 525.342)" gradientUnits="userSpaceOnUse">
<stop stop-color="#F8F0B1" />
<stop offset="1" stop-color="#DCC833" />
</radialGradient>
<radialGradient id="paint58_radial_85_304" cx="0" cy="0" r="1" gradientTransform="matrix(-5.78705 0.0885486 0.0931587 6.08393 1046.19 536.941)" gradientUnits="userSpaceOnUse">
<stop stop-color="#F8F0B1" />
<stop offset="1" stop-color="#DCC833" />
</radialGradient>
<radialGradient id="paint59_radial_85_304" cx="0" cy="0" r="1" gradientTransform="matrix(-5.78705 0.0885486 0.0931587 6.08393 1017.04 548.807)" gradientUnits="userSpaceOnUse">
<stop stop-color="#F8F0B1" />
<stop offset="1" stop-color="#DCC833" />
</radialGradient>
<radialGradient id="paint60_radial_85_304" cx="0" cy="0" r="1" gradientTransform="matrix(-5.78705 0.0885486 0.0931587 6.08393 987.533 560.22)" gradientUnits="userSpaceOnUse">
<stop stop-color="#F8F0B1" />
<stop offset="1" stop-color="#DCC833" />
</radialGradient>
<radialGradient id="paint61_radial_85_304" cx="0" cy="0" r="1" gradientTransform="matrix(-5.78705 0.0885486 0.0931587 6.08393 958.408 571.815)" gradientUnits="userSpaceOnUse">
<stop stop-color="#F8F0B1" />
<stop offset="1" stop-color="#DCC833" />
</radialGradient>
<radialGradient id="paint62_radial_85_304" cx="0" cy="0" r="1" gradientTransform="matrix(-5.78705 0.0885486 0.0931588 6.08394 695.268 678.786)" gradientUnits="userSpaceOnUse">
<stop stop-color="#F8F0B1" />
<stop offset="1" stop-color="#DCC833" />
</radialGradient>
<radialGradient id="paint63_radial_85_304" cx="0" cy="0" r="1" gradientTransform="matrix(-5.78705 0.0885486 0.0931586 6.08392 725.211 668.312)" gradientUnits="userSpaceOnUse">
<stop stop-color="#F8F0B1" />
<stop offset="1" stop-color="#DCC833" />
</radialGradient>
<radialGradient id="paint64_radial_85_304" cx="0" cy="0" r="1" gradientTransform="matrix(-5.78705 0.0885486 0.0931586 6.08392 755.11 655.233)" gradientUnits="userSpaceOnUse">
<stop stop-color="#F8F0B1" />
<stop offset="1" stop-color="#DCC833" />
</radialGradient>
<radialGradient id="paint65_radial_85_304" cx="0" cy="0" r="1" gradientTransform="matrix(-5.78705 0.0885486 0.0931587 6.08393 782.862 642.862)" gradientUnits="userSpaceOnUse">
<stop stop-color="#F8F0B1" />
<stop offset="1" stop-color="#DCC833" />
</radialGradient>
<radialGradient id="paint66_radial_85_304" cx="0" cy="0" r="1" gradientTransform="matrix(-5.78705 0.0885486 0.093159 6.08395 811.924 630.979)" gradientUnits="userSpaceOnUse">
<stop stop-color="#F8F0B1" />
<stop offset="1" stop-color="#DCC833" />
</radialGradient>
<radialGradient id="paint67_radial_85_304" cx="0" cy="0" r="1" gradientTransform="matrix(-5.78705 0.0885486 0.0931587 6.08393 841.852 619.958)" gradientUnits="userSpaceOnUse">
<stop stop-color="#F8F0B1" />
<stop offset="1" stop-color="#DCC833" />
</radialGradient>
<radialGradient id="paint68_radial_85_304" cx="0" cy="0" r="1" gradientTransform="matrix(-5.78705 0.0885486 0.0931587 6.08393 929.078 583.264)" gradientUnits="userSpaceOnUse">
<stop stop-color="#F8F0B1" />
<stop offset="1" stop-color="#DCC833" />
</radialGradient>
<radialGradient id="paint69_radial_85_304" cx="0" cy="0" r="1" gradientTransform="matrix(-5.78705 0.0885486 0.093159 6.08395 870.844 607.589)" gradientUnits="userSpaceOnUse">
<stop stop-color="#F8F0B1" />
<stop offset="1" stop-color="#DCC833" />
</radialGradient>
<radialGradient id="paint70_radial_85_304" cx="0" cy="0" r="1" gradientTransform="matrix(-5.78705 0.0885486 0.0931587 6.08393 899.483 595.189)" gradientUnits="userSpaceOnUse">
<stop stop-color="#F8F0B1" />
<stop offset="1" stop-color="#DCC833" />
</radialGradient>
<radialGradient id="paint71_radial_85_304" cx="0" cy="0" r="1" gradientTransform="matrix(4.29813 3.87465 -4.07638 4.51863 15.6009 389.294)" gradientUnits="userSpaceOnUse">
<stop stop-color="#F8F0B1" />
<stop offset="1" stop-color="#DCC833" />
</radialGradient>
<radialGradient id="paint72_radial_85_304" cx="0" cy="0" r="1" gradientTransform="matrix(4.68553 3.39636 -3.5732 4.9259 31.1746 420.309)" gradientUnits="userSpaceOnUse">
<stop stop-color="#F8F0B1" />
<stop offset="1" stop-color="#DCC833" />
</radialGradient>
<radialGradient id="paint73_radial_85_304" cx="0" cy="0" r="1" gradientTransform="matrix(5.62994 1.3417 -1.41155 5.91877 57.0587 445.716)" gradientUnits="userSpaceOnUse">
<stop stop-color="#F8F0B1" />
<stop offset="1" stop-color="#DCC833" />
</radialGradient>
<radialGradient id="paint74_radial_85_304" cx="0" cy="0" r="1" gradientTransform="matrix(5.78735 0.0650243 -0.0684099 6.08426 86.7126 459.578)" gradientUnits="userSpaceOnUse">
<stop stop-color="#F8F0B1" />
<stop offset="1" stop-color="#DCC833" />
</radialGradient>
<radialGradient id="paint75_radial_85_304" cx="0" cy="0" r="1" gradientTransform="matrix(5.78735 0.0650243 -0.0684099 6.08426 116.868 471.633)" gradientUnits="userSpaceOnUse">
<stop stop-color="#F8F0B1" />
<stop offset="1" stop-color="#DCC833" />
</radialGradient>
<radialGradient id="paint76_radial_85_304" cx="0" cy="0" r="1" gradientTransform="matrix(5.78735 0.0650243 -0.0684099 6.08426 146.996 482.176)" gradientUnits="userSpaceOnUse">
<stop stop-color="#F8F0B1" />
<stop offset="1" stop-color="#DCC833" />
</radialGradient>
<radialGradient id="paint77_radial_85_304" cx="0" cy="0" r="1" gradientTransform="matrix(5.78736 0.0650245 -0.0684099 6.08426 176.169 493.653)" gradientUnits="userSpaceOnUse">
<stop stop-color="#F8F0B1" />
<stop offset="1" stop-color="#DCC833" />
</radialGradient>
<radialGradient id="paint78_radial_85_304" cx="0" cy="0" r="1" gradientTransform="matrix(5.78736 0.0650245 -0.0684099 6.08426 206.211 505.41)" gradientUnits="userSpaceOnUse">
<stop stop-color="#F8F0B1" />
<stop offset="1" stop-color="#DCC833" />
</radialGradient>
<radialGradient id="paint79_radial_85_304" cx="0" cy="0" r="1" gradientTransform="matrix(5.78736 0.0650245 -0.0684099 6.08426 235.946 517.272)" gradientUnits="userSpaceOnUse">
<stop stop-color="#F8F0B1" />
<stop offset="1" stop-color="#DCC833" />
</radialGradient>
<radialGradient id="paint80_radial_85_304" cx="0" cy="0" r="1" gradientTransform="matrix(5.78736 0.0650245 -0.0684099 6.08426 265.36 529.212)" gradientUnits="userSpaceOnUse">
<stop stop-color="#F8F0B1" />
<stop offset="1" stop-color="#DCC833" />
</radialGradient>
<radialGradient id="paint81_radial_85_304" cx="0" cy="0" r="1" gradientTransform="matrix(5.78736 0.0650245 -0.0684099 6.08426 294.722 540.69)" gradientUnits="userSpaceOnUse">
<stop stop-color="#F8F0B1" />
<stop offset="1" stop-color="#DCC833" />
</radialGradient>
<radialGradient id="paint82_radial_85_304" cx="0" cy="0" r="1" gradientTransform="matrix(5.78736 0.0650245 -0.0684099 6.08426 323.922 552.439)" gradientUnits="userSpaceOnUse">
<stop stop-color="#F8F0B1" />
<stop offset="1" stop-color="#DCC833" />
</radialGradient>
<radialGradient id="paint83_radial_85_304" cx="0" cy="0" r="1" gradientTransform="matrix(5.78736 0.0650245 -0.0684099 6.08426 353.473 563.731)" gradientUnits="userSpaceOnUse">
<stop stop-color="#F8F0B1" />
<stop offset="1" stop-color="#DCC833" />
</radialGradient>
<radialGradient id="paint84_radial_85_304" cx="0" cy="0" r="1" gradientTransform="matrix(5.78736 0.0650245 -0.0684099 6.08426 382.646 575.208)" gradientUnits="userSpaceOnUse">
<stop stop-color="#F8F0B1" />
<stop offset="1" stop-color="#DCC833" />
</radialGradient>
<radialGradient id="paint85_radial_85_304" cx="0" cy="0" r="1" gradientTransform="matrix(5.78736 0.0650245 -0.06841 6.08427 646.217 681.108)" gradientUnits="userSpaceOnUse">
<stop stop-color="#F8F0B1" />
<stop offset="1" stop-color="#DCC833" />
</radialGradient>
<radialGradient id="paint86_radial_85_304" cx="0" cy="0" r="1" gradientTransform="matrix(5.78736 0.0650245 -0.0684099 6.08426 616.98 671.52)" gradientUnits="userSpaceOnUse">
<stop stop-color="#F8F0B1" />
<stop offset="1" stop-color="#DCC833" />
</radialGradient>
<radialGradient id="paint87_radial_85_304" cx="0" cy="0" r="1" gradientTransform="matrix(5.78733 0.0650241 -0.06841 6.08427 587.816 659.287)" gradientUnits="userSpaceOnUse">
<stop stop-color="#F8F0B1" />
<stop offset="1" stop-color="#DCC833" />
</radialGradient>
<radialGradient id="paint88_radial_85_304" cx="0" cy="0" r="1" gradientTransform="matrix(5.78736 0.0650245 -0.0684099 6.08426 558.48 645.54)" gradientUnits="userSpaceOnUse">
<stop stop-color="#F8F0B1" />
<stop offset="1" stop-color="#DCC833" />
</radialGradient>
<radialGradient id="paint89_radial_85_304" cx="0" cy="0" r="1" gradientTransform="matrix(5.78736 0.0650245 -0.0684101 6.08428 529.369 633.776)" gradientUnits="userSpaceOnUse">
<stop stop-color="#F8F0B1" />
<stop offset="1" stop-color="#DCC833" />
</radialGradient>
<radialGradient id="paint90_radial_85_304" cx="0" cy="0" r="1" gradientTransform="matrix(5.78736 0.0650245 -0.0684101 6.08428 500.14 622.109)" gradientUnits="userSpaceOnUse">
<stop stop-color="#F8F0B1" />
<stop offset="1" stop-color="#DCC833" />
</radialGradient>
<radialGradient id="paint91_radial_85_304" cx="0" cy="0" r="1" gradientTransform="matrix(5.78736 0.0650245 -0.0684099 6.08426 412.022 586.538)" gradientUnits="userSpaceOnUse">
<stop stop-color="#F8F0B1" />
<stop offset="1" stop-color="#DCC833" />
</radialGradient>
<radialGradient id="paint92_radial_85_304" cx="0" cy="0" r="1" gradientTransform="matrix(5.78736 0.0650245 -0.0684101 6.08428 470.354 610.625)" gradientUnits="userSpaceOnUse">
<stop stop-color="#F8F0B1" />
<stop offset="1" stop-color="#DCC833" />
</radialGradient>
<radialGradient id="paint93_radial_85_304" cx="0" cy="0" r="1" gradientTransform="matrix(5.78736 0.0650245 -0.0684099 6.08426 441.665 598.341)" gradientUnits="userSpaceOnUse">
<stop stop-color="#F8F0B1" />
<stop offset="1" stop-color="#DCC833" />
</radialGradient>
<linearGradient id="paint94_linear_85_304" x1="668.023" y1="347.582" x2="473.171" y2="612.743" gradientUnits="userSpaceOnUse">
<stop stop-color="#F9F9F5" />
<stop offset="1" stop-color="#E9E6D9" />
</linearGradient>
</defs>
<g id="vegas-bulb-glow-layer"><path d="M26.3682 324.944C22.1302 321.84 15.7663 310.839 10.9111 313.23C6.80792 315.251 5.76433 319.463 8.70215 322.679C11.7706 326.039 21.2854 324.027 26.3682 324.944Z" fill="#FFD75A" stroke="#F3CD3E" stroke-width="2.16" class="bulb-glow glow phase0" />
<path d="M38.0083 298.343C34.124 294.806 28.965 283.192 23.8833 285.054C19.5886 286.627 18.1034 290.704 20.6828 294.215C23.3769 297.881 33.0516 296.891 38.0083 298.343Z" fill="#FFD75A" stroke="#F3CD3E" stroke-width="2.16" class="bulb-glow glow phase1" />
<path d="M59.6495 275.056C57.4177 270.301 57.1062 257.597 51.6986 257.37C47.1286 257.178 44.1935 260.374 45.23 264.605C46.3125 269.023 55.6279 271.816 59.6495 275.056Z" fill="#FFD75A" stroke="#F3CD3E" stroke-width="2.16" class="bulb-glow glow phase2" />
<path d="M84.7531 259.018C83.6274 253.888 86.1317 241.429 80.908 240.013C76.4933 238.816 72.9243 241.286 73 245.641C73.0791 250.189 81.547 254.97 84.7531 259.018Z" fill="#FFD75A" stroke="#F3CD3E" stroke-width="2.16" class="bulb-glow glow phase3" />
<path d="M113.389 245.375C112.263 240.245 114.767 227.786 109.544 226.37C105.129 225.173 101.56 227.643 101.636 231.998C101.715 236.546 110.183 241.327 113.389 245.375Z" fill="#FFD75A" stroke="#F3CD3E" stroke-width="2.16" class="bulb-glow glow phase4" />
<path d="M148.84 230.297C147.714 225.168 150.219 212.709 144.995 211.292C140.58 210.096 137.011 212.565 137.087 216.92C137.166 221.468 145.634 226.25 148.84 230.297Z" fill="#FFD75A" stroke="#F3CD3E" stroke-width="2.16" class="bulb-glow glow phase5" />
<path d="M177.99 218.764C176.865 213.634 179.369 201.175 174.145 199.759C169.731 198.562 166.162 201.031 166.237 205.386C166.316 209.935 174.784 214.716 177.99 218.764Z" fill="#FFD75A" stroke="#F3CD3E" stroke-width="2.16" class="bulb-glow glow phase0" />
<path d="M208.01 206.947C206.884 201.817 209.389 189.358 204.165 187.942C199.75 186.745 196.181 189.214 196.257 193.569C196.336 198.118 204.804 202.899 208.01 206.947Z" fill="#FFD75A" stroke="#F3CD3E" stroke-width="2.16" class="bulb-glow glow phase1" />
<path d="M237.721 195.026C236.595 189.897 239.099 177.438 233.876 176.021C229.461 174.825 225.892 177.294 225.968 181.649C226.047 186.197 234.515 190.979 237.721 195.026Z" fill="#FFD75A" stroke="#F3CD3E" stroke-width="2.16" class="bulb-glow glow phase2" />
<path d="M267.113 183.03C265.987 177.9 268.491 165.441 263.267 164.025C258.853 162.828 255.284 165.297 255.359 169.652C255.439 174.201 263.906 178.982 267.113 183.03Z" fill="#FFD75A" stroke="#F3CD3E" stroke-width="2.16" class="bulb-glow glow phase3" />
<path d="M296.451 171.492C295.326 166.362 297.83 153.903 292.606 152.487C288.192 151.291 284.623 153.76 284.698 158.115C284.777 162.663 293.245 167.444 296.451 171.492Z" fill="#FFD75A" stroke="#F3CD3E" stroke-width="2.16" class="bulb-glow glow phase4" />
<path d="M325.627 159.687C324.501 154.557 327.006 142.098 321.782 140.682C317.367 139.485 313.798 141.954 313.874 146.309C313.953 150.858 322.421 155.639 325.627 159.687Z" fill="#FFD75A" stroke="#F3CD3E" stroke-width="2.16" class="bulb-glow glow phase5" />
<path d="M355.156 148.336C354.031 143.206 356.535 130.747 351.311 129.331C346.897 128.134 343.328 130.604 343.403 134.958C343.482 139.507 351.95 144.288 355.156 148.336Z" fill="#FFD75A" stroke="#F3CD3E" stroke-width="2.16" class="bulb-glow glow phase0" />
<path d="M384.307 136.802C383.181 131.672 385.685 119.213 380.462 117.797C376.047 116.6 372.478 119.069 372.554 123.424C372.633 127.973 381.101 132.754 384.307 136.802Z" fill="#FFD75A" stroke="#F3CD3E" stroke-width="2.16" class="bulb-glow glow phase1" />
<path d="M647.67 30.3829C646.544 25.2531 649.049 12.7939 643.825 11.3779C639.41 10.1811 635.841 12.6503 635.917 17.0052C635.996 21.5538 644.464 26.335 647.67 30.3829Z" fill="#FFD75A" stroke="#F3CD3E" stroke-width="2.16" class="bulb-glow glow phase2" />
<path d="M618.451 40.0291C617.326 34.8993 619.83 22.4402 614.606 21.0241C610.192 19.8273 606.623 22.2967 606.698 26.6516C606.777 31.2002 615.245 35.9812 618.451 40.0291Z" fill="#FFD75A" stroke="#F3CD3E" stroke-width="2.16" class="bulb-glow glow phase3" />
<path d="M589.311 52.3191C588.185 47.1893 590.689 34.7302 585.466 33.3141C581.051 32.1174 577.482 34.5866 577.558 38.9416C577.637 43.4901 586.105 48.2713 589.311 52.3191Z" fill="#FFD75A" stroke="#F3CD3E" stroke-width="2.16" class="bulb-glow glow phase4" />
<path d="M561.539 63.8736C560.414 58.7438 562.918 46.2847 557.694 44.8686C553.279 43.6719 549.71 46.1411 549.786 50.4961C549.865 55.0446 558.333 59.8257 561.539 63.8736Z" fill="#FFD75A" stroke="#F3CD3E" stroke-width="2.16" class="bulb-glow glow phase5" />
<path d="M530.176 76.4253C529.05 71.2955 531.555 58.8365 526.331 57.4204C521.916 56.2236 518.347 58.6929 518.423 63.0478C518.502 67.5963 526.97 72.3774 530.176 76.4253Z" fill="#FFD75A" stroke="#F3CD3E" stroke-width="2.16" class="bulb-glow glow phase0" />
<path d="M501.725 88.1582C500.599 83.0285 503.103 70.5694 497.88 69.1533C493.465 67.9565 489.896 70.4258 489.972 74.7807C490.051 79.3292 498.519 84.1104 501.725 88.1582Z" fill="#FFD75A" stroke="#F3CD3E" stroke-width="2.16" class="bulb-glow glow phase1" />
<path d="M413.66 125.415C412.535 120.285 415.039 107.826 409.815 106.41C405.401 105.213 401.832 107.682 401.907 112.037C401.986 116.586 410.454 121.367 413.66 125.415Z" fill="#FFD75A" stroke="#F3CD3E" stroke-width="2.16" class="bulb-glow glow phase2" />
<path d="M472.709 100.465C471.583 95.3349 474.088 82.8758 468.864 81.4597C464.449 80.2629 460.88 82.7322 460.956 87.0871C461.035 91.6356 469.503 96.4168 472.709 100.465Z" fill="#FFD75A" stroke="#F3CD3E" stroke-width="2.16" class="bulb-glow glow phase3" />
<path d="M443.28 113.553C442.154 108.423 444.658 95.9639 439.434 94.5478C435.02 93.3511 431.451 95.8203 431.526 100.175C431.605 104.724 440.073 109.505 443.28 113.553Z" fill="#FFD75A" stroke="#F3CD3E" stroke-width="2.16" class="bulb-glow glow phase4" />
<path d="M25.0681 353.718C19.892 352.818 9.30231 345.787 6.01466 350.085C3.23621 353.717 4.17248 357.954 8.23379 359.532C12.4756 361.18 20.1067 355.153 25.0681 353.718Z" fill="#FFD75A" stroke="#F3CD3E" stroke-width="2.16" class="bulb-glow glow phase5" />
<path d="M1301.46 314.101C1306.33 312.133 1315.2 303.032 1319.32 306.542C1322.8 309.509 1322.78 313.848 1319.14 316.244C1315.34 318.747 1306.61 314.46 1301.46 314.101Z" fill="#FFD75A" stroke="#F3CD3E" stroke-width="2.16" class="bulb-glow glow phase0" />
<path d="M1288.97 289.275C1292.84 285.727 1297.96 274.095 1303.05 275.941C1307.35 277.501 1308.85 281.573 1306.28 285.091C1303.6 288.766 1293.92 287.808 1288.97 289.275Z" fill="#FFD75A" stroke="#F3CD3E" stroke-width="2.16" class="bulb-glow glow phase1" />
<path d="M1268.89 268.255C1271.1 263.493 1271.37 250.788 1276.78 250.543C1281.35 250.336 1284.29 253.523 1283.27 257.757C1282.2 262.179 1272.9 265.002 1268.89 268.255Z" fill="#FFD75A" stroke="#F3CD3E" stroke-width="2.16" class="bulb-glow glow phase2" />
<path d="M1243.82 253.43C1244.93 248.297 1242.38 235.846 1247.6 234.413C1252.01 233.202 1255.59 235.659 1255.53 240.015C1255.46 244.563 1247.01 249.372 1243.82 253.43Z" fill="#FFD75A" stroke="#F3CD3E" stroke-width="2.16" class="bulb-glow glow phase3" />
<path d="M1214.73 240.357C1215.84 235.223 1213.29 222.773 1218.51 221.34C1222.92 220.128 1226.5 222.586 1226.44 226.941C1226.37 231.49 1217.92 236.299 1214.73 240.357Z" fill="#FFD75A" stroke="#F3CD3E" stroke-width="2.16" class="bulb-glow glow phase4" />
<path d="M1189.38 229.372C1190.48 224.239 1187.94 211.788 1193.16 210.355C1197.57 209.144 1201.15 211.602 1201.09 215.957C1201.02 220.505 1192.57 225.314 1189.38 229.372Z" fill="#FFD75A" stroke="#F3CD3E" stroke-width="2.16" class="bulb-glow glow phase5" />
<path d="M1160.17 219.52C1161.28 214.387 1158.73 201.936 1163.95 200.503C1168.36 199.292 1171.94 201.749 1171.88 206.104C1171.82 210.653 1163.36 215.462 1160.17 219.52Z" fill="#FFD75A" stroke="#F3CD3E" stroke-width="2.16" class="bulb-glow glow phase0" />
<path d="M1130.1 207.267C1131.21 202.133 1128.67 189.682 1133.89 188.249C1138.3 187.038 1141.88 189.496 1141.81 193.851C1141.75 198.4 1133.3 203.208 1130.1 207.267Z" fill="#FFD75A" stroke="#F3CD3E" stroke-width="2.16" class="bulb-glow glow phase1" />
<path d="M1101.96 195.416C1103.07 190.283 1100.52 177.832 1105.74 176.399C1110.15 175.188 1113.73 177.645 1113.67 182C1113.6 186.549 1105.15 191.358 1101.96 195.416Z" fill="#FFD75A" stroke="#F3CD3E" stroke-width="2.16" class="bulb-glow glow phase2" />
<path d="M1072.53 183.514C1073.64 178.38 1071.09 165.929 1076.31 164.496C1080.72 163.285 1084.3 165.743 1084.24 170.098C1084.17 174.647 1075.72 179.455 1072.53 183.514Z" fill="#FFD75A" stroke="#F3CD3E" stroke-width="2.16" class="bulb-glow glow phase3" />
<path d="M1043.15 172.072C1044.26 166.939 1041.72 154.488 1046.94 153.055C1051.35 151.844 1054.92 154.302 1054.86 158.657C1054.8 163.205 1046.34 168.014 1043.15 172.072Z" fill="#FFD75A" stroke="#F3CD3E" stroke-width="2.16" class="bulb-glow glow phase4" />
<path d="M1013.94 160.361C1015.05 155.227 1012.5 142.776 1017.72 141.343C1022.13 140.132 1025.71 142.59 1025.65 146.945C1025.58 151.494 1017.13 156.302 1013.94 160.361Z" fill="#FFD75A" stroke="#F3CD3E" stroke-width="2.16" class="bulb-glow glow phase5" />
<path d="M984.37 149.106C985.48 143.973 982.935 131.522 988.154 130.089C992.565 128.878 996.142 131.336 996.08 135.691C996.016 140.24 987.563 145.048 984.37 149.106Z" fill="#FFD75A" stroke="#F3CD3E" stroke-width="2.16" class="bulb-glow glow phase0" />
<path d="M955.185 137.666C956.294 132.533 953.749 120.082 958.968 118.649C963.379 117.438 966.956 119.896 966.895 124.251C966.83 128.799 958.378 133.608 955.185 137.666Z" fill="#FFD75A" stroke="#F3CD3E" stroke-width="2.16" class="bulb-glow glow phase1" />
<path d="M691.478 32.1005C692.587 26.9671 690.042 14.5161 695.261 13.0832C699.672 11.8721 703.249 14.3297 703.188 18.6849C703.123 23.2337 694.671 28.0423 691.478 32.1005Z" fill="#FFD75A" stroke="#F3CD3E" stroke-width="2.16" class="bulb-glow glow phase2" />
<path d="M721.478 42.4149C722.587 37.2815 720.042 24.8306 725.261 23.3977C729.672 22.1866 733.249 24.6443 733.188 28.9994C733.123 33.5482 724.671 38.3567 721.478 42.4149Z" fill="#FFD75A" stroke="#F3CD3E" stroke-width="2.16" class="bulb-glow glow phase3" />
<path d="M751.445 55.3334C752.554 50.1999 750.009 37.749 755.228 36.3161C759.639 35.105 763.216 37.5627 763.154 41.9179C763.09 46.4667 754.638 51.2751 751.445 55.3334Z" fill="#FFD75A" stroke="#F3CD3E" stroke-width="2.16" class="bulb-glow glow phase4" />
<path d="M779.261 67.5565C780.37 62.4231 777.826 49.9722 783.045 48.5393C787.455 47.3282 791.032 49.7859 790.971 54.141C790.906 58.6898 782.454 63.4983 779.261 67.5565Z" fill="#FFD75A" stroke="#F3CD3E" stroke-width="2.16" class="bulb-glow glow phase5" />
<path d="M808.388 79.2846C809.497 74.1512 806.952 61.7002 812.172 60.2672C816.582 59.0562 820.159 61.5139 820.098 65.869C820.033 70.4178 811.581 75.2263 808.388 79.2846Z" fill="#FFD75A" stroke="#F3CD3E" stroke-width="2.16" class="bulb-glow glow phase0" />
<path d="M838.374 90.1461C839.483 85.0127 836.939 72.5618 842.158 71.1289C846.569 69.9178 850.146 72.3755 850.084 76.7307C850.02 81.2794 841.567 86.0879 838.374 90.1461Z" fill="#FFD75A" stroke="#F3CD3E" stroke-width="2.16" class="bulb-glow glow phase1" />
<path d="M925.794 126.374C926.903 121.241 924.359 108.79 929.578 107.357C933.989 106.146 937.566 108.603 937.504 112.958C937.44 117.507 928.987 122.316 925.794 126.374Z" fill="#FFD75A" stroke="#F3CD3E" stroke-width="2.16" class="bulb-glow glow phase2" />
<path d="M867.431 102.361C868.54 97.2271 865.995 84.7761 871.215 83.3432C875.625 82.1321 879.202 84.5898 879.141 88.945C879.076 93.4937 870.624 98.3023 867.431 102.361Z" fill="#FFD75A" stroke="#F3CD3E" stroke-width="2.16" class="bulb-glow glow phase3" />
<path d="M896.136 114.608C897.245 109.474 894.701 97.0233 899.92 95.5903C904.33 94.3792 907.907 96.837 907.846 101.192C907.781 105.741 899.329 110.549 896.136 114.608Z" fill="#FFD75A" stroke="#F3CD3E" stroke-width="2.16" class="bulb-glow glow phase4" />
<path d="M1306.1 345.823C1311.29 345.008 1321.99 338.151 1325.21 342.502C1327.93 346.179 1326.93 350.4 1322.84 351.911C1318.57 353.489 1311.04 347.339 1306.1 345.823Z" fill="#FFD75A" stroke="#F3CD3E" stroke-width="2.16" class="bulb-glow glow phase5" />
<path d="M1303.03 376.842C1307.92 378.784 1316.84 387.837 1320.94 384.305C1324.4 381.32 1324.35 376.981 1320.7 374.604C1316.89 372.122 1308.18 376.455 1303.03 376.842Z" fill="#FFD75A" stroke="#F3CD3E" stroke-width="2.16" class="bulb-glow glow phase0" />
<path d="M1290.15 402.277C1294.04 405.805 1299.22 417.409 1304.3 415.536C1308.59 413.954 1310.07 409.874 1307.48 406.369C1304.78 402.708 1295.11 403.718 1290.15 402.277Z" fill="#FFD75A" stroke="#F3CD3E" stroke-width="2.16" class="bulb-glow glow phase1" />
<path d="M1271.79 423.378C1274.03 428.128 1274.37 440.832 1279.77 441.047C1284.34 441.23 1287.27 438.027 1286.23 433.799C1285.14 429.383 1275.81 426.61 1271.79 423.378Z" fill="#FFD75A" stroke="#F3CD3E" stroke-width="2.16" class="bulb-glow glow phase2" />
<path d="M1245.74 438.888C1246.87 444.016 1244.4 456.48 1249.62 457.885C1254.04 459.073 1257.6 456.596 1257.52 452.241C1257.43 447.693 1248.95 442.93 1245.74 438.888Z" fill="#FFD75A" stroke="#F3CD3E" stroke-width="2.16" class="bulb-glow glow phase3" />
<path d="M1215.63 451.065C1216.77 456.193 1214.29 468.657 1219.52 470.062C1223.93 471.25 1227.5 468.773 1227.41 464.418C1227.32 459.87 1218.85 455.107 1215.63 451.065Z" fill="#FFD75A" stroke="#F3CD3E" stroke-width="2.16" class="bulb-glow glow phase4" />
<path d="M1185.53 462.8C1186.67 467.927 1184.19 480.391 1189.42 481.797C1193.84 482.984 1197.4 480.507 1197.32 476.153C1197.23 471.604 1188.75 466.841 1185.53 462.8Z" fill="#FFD75A" stroke="#F3CD3E" stroke-width="2.16" class="bulb-glow glow phase5" />
<path d="M1156.94 474.401C1158.08 479.529 1155.6 491.993 1160.83 493.398C1165.25 494.586 1168.81 492.109 1168.72 487.754C1168.64 483.206 1160.16 478.443 1156.94 474.401Z" fill="#FFD75A" stroke="#F3CD3E" stroke-width="2.16" class="bulb-glow glow phase0" />
<path d="M1126.94 486.816C1128.08 491.943 1125.6 504.408 1130.83 505.813C1135.25 507 1138.81 504.524 1138.72 500.169C1138.64 495.621 1130.16 490.857 1126.94 486.816Z" fill="#FFD75A" stroke="#F3CD3E" stroke-width="2.16" class="bulb-glow glow phase1" />
<path d="M1098.86 498.816C1100 503.943 1097.52 516.408 1102.75 517.813C1107.16 519 1110.73 516.524 1110.64 512.169C1110.55 507.621 1102.08 502.857 1098.86 498.816Z" fill="#FFD75A" stroke="#F3CD3E" stroke-width="2.16" class="bulb-glow glow phase2" />
<path d="M1069.49 510.875C1070.63 516.002 1068.15 528.466 1073.38 529.871C1077.8 531.059 1081.36 528.582 1081.28 524.227C1081.19 519.679 1072.71 514.916 1069.49 510.875Z" fill="#FFD75A" stroke="#F3CD3E" stroke-width="2.16" class="bulb-glow glow phase3" />
<path d="M1040.18 522.473C1041.32 527.601 1038.84 540.065 1044.06 541.47C1048.48 542.658 1052.05 540.181 1051.96 535.826C1051.87 531.278 1043.39 526.515 1040.18 522.473Z" fill="#FFD75A" stroke="#F3CD3E" stroke-width="2.16" class="bulb-glow glow phase4" />
<path d="M1011.03 534.34C1012.17 539.467 1009.69 551.932 1014.91 553.337C1019.33 554.524 1022.9 552.047 1022.81 547.693C1022.72 543.144 1014.24 538.381 1011.03 534.34Z" fill="#FFD75A" stroke="#F3CD3E" stroke-width="2.16" class="bulb-glow glow phase5" />
<path d="M981.524 545.753C982.66 550.88 980.182 563.344 985.409 564.749C989.826 565.937 993.39 563.46 993.305 559.105C993.216 554.557 984.738 549.794 981.524 545.753Z" fill="#FFD75A" stroke="#F3CD3E" stroke-width="2.16" class="bulb-glow glow phase0" />
<path d="M952.399 557.348C953.535 562.475 951.057 574.939 956.284 576.345C960.701 577.532 964.265 575.055 964.18 570.701C964.091 566.152 955.613 561.389 952.399 557.348Z" fill="#FFD75A" stroke="#F3CD3E" stroke-width="2.16" class="bulb-glow glow phase1" />
<path d="M689.258 664.318C690.394 669.446 687.916 681.91 693.143 683.315C697.56 684.503 701.124 682.026 701.039 677.671C700.95 673.123 692.473 668.36 689.258 664.318Z" fill="#FFD75A" stroke="#F3CD3E" stroke-width="2.16" class="bulb-glow glow phase2" />
<path d="M719.201 653.845C720.338 658.972 717.86 671.436 723.086 672.841C727.504 674.029 731.067 671.552 730.982 667.197C730.894 662.649 722.416 657.886 719.201 653.845Z" fill="#FFD75A" stroke="#F3CD3E" stroke-width="2.16" class="bulb-glow glow phase3" />
<path d="M749.1 640.766C750.236 645.893 747.758 658.357 752.985 659.763C757.402 660.95 760.966 658.473 760.881 654.119C760.792 649.57 752.314 644.807 749.1 640.766Z" fill="#FFD75A" stroke="#F3CD3E" stroke-width="2.16" class="bulb-glow glow phase4" />
<path d="M776.852 628.394C777.988 633.522 775.51 645.986 780.737 647.391C785.154 648.579 788.718 646.102 788.633 641.747C788.544 637.199 780.066 632.435 776.852 628.394Z" fill="#FFD75A" stroke="#F3CD3E" stroke-width="2.16" class="bulb-glow glow phase5" />
<path d="M805.914 616.512C807.051 621.639 804.573 634.104 809.799 635.509C814.216 636.696 817.78 634.219 817.695 629.865C817.607 625.316 809.129 620.553 805.914 616.512Z" fill="#FFD75A" stroke="#F3CD3E" stroke-width="2.16" class="bulb-glow glow phase0" />
<path d="M835.842 605.49C836.978 610.618 834.5 623.082 839.727 624.487C844.144 625.675 847.708 623.198 847.623 618.843C847.534 614.295 839.057 609.531 835.842 605.49Z" fill="#FFD75A" stroke="#F3CD3E" stroke-width="2.16" class="bulb-glow glow phase1" />
<path d="M923.068 568.797C924.205 573.924 921.727 586.388 926.954 587.794C931.371 588.981 934.935 586.504 934.85 582.15C934.761 577.601 926.283 572.838 923.068 568.797Z" fill="#FFD75A" stroke="#F3CD3E" stroke-width="2.16" class="bulb-glow glow phase2" />
<path d="M864.834 593.122C865.971 598.249 863.492 610.713 868.719 612.119C873.136 613.306 876.7 610.829 876.615 606.475C876.527 601.926 868.049 597.163 864.834 593.122Z" fill="#FFD75A" stroke="#F3CD3E" stroke-width="2.16" class="bulb-glow glow phase3" />
<path d="M893.473 580.721C894.609 585.849 892.131 598.313 897.358 599.718C901.775 600.906 905.339 598.429 905.254 594.074C905.165 589.526 896.687 584.762 893.473 580.721Z" fill="#FFD75A" stroke="#F3CD3E" stroke-width="2.16" class="bulb-glow glow phase4" />
<path d="M29.6519 382.358C25.42 385.47 19.0777 396.484 14.2179 394.102C10.1107 392.09 9.05883 387.88 11.9903 384.658C15.0521 381.292 24.5709 383.285 29.6519 382.358Z" fill="#FFD75A" stroke="#F3CD3E" stroke-width="2.16" class="bulb-glow glow phase5" />
<path d="M44.4091 411.92C40.5318 415.463 35.3957 427.088 30.3103 425.236C26.0125 423.671 24.5193 419.597 27.0918 416.082C29.7787 412.41 39.4553 413.381 44.4091 411.92Z" fill="#FFD75A" stroke="#F3CD3E" stroke-width="2.16" class="bulb-glow glow phase0" />
<path d="M66.0658 432.897C63.8435 437.656 63.557 450.36 58.1498 450.598C53.5801 450.8 50.6388 447.609 51.667 443.376C52.7408 438.955 62.0506 436.144 66.0658 432.897Z" fill="#FFD75A" stroke="#F3CD3E" stroke-width="2.16" class="bulb-glow glow phase1" />
<path d="M92.6636 445.086C91.548 450.218 94.0767 462.672 88.8558 464.099C84.4436 465.304 80.8697 462.842 80.9368 458.487C81.007 453.938 89.4654 449.141 92.6636 445.086Z" fill="#FFD75A" stroke="#F3CD3E" stroke-width="2.16" class="bulb-glow glow phase2" />
<path d="M122.819 457.141C121.703 462.273 124.232 474.727 119.011 476.153C114.599 477.359 111.025 474.897 111.092 470.542C111.162 465.993 119.621 461.195 122.819 457.141Z" fill="#FFD75A" stroke="#F3CD3E" stroke-width="2.16" class="bulb-glow glow phase3" />
<path d="M152.947 467.684C151.831 472.816 154.36 485.27 149.139 486.696C144.727 487.902 141.153 485.44 141.22 481.085C141.29 476.536 149.749 471.738 152.947 467.684Z" fill="#FFD75A" stroke="#F3CD3E" stroke-width="2.16" class="bulb-glow glow phase4" />
<path d="M182.12 479.161C181.004 484.293 183.533 496.747 178.312 498.174C173.9 499.379 170.326 496.917 170.393 492.562C170.463 488.013 178.922 483.215 182.12 479.161Z" fill="#FFD75A" stroke="#F3CD3E" stroke-width="2.16" class="bulb-glow glow phase5" />
<path d="M212.162 490.919C211.046 496.051 213.575 508.505 208.354 509.931C203.942 511.137 200.368 508.674 200.435 504.319C200.505 499.771 208.964 494.973 212.162 490.919Z" fill="#FFD75A" stroke="#F3CD3E" stroke-width="2.16" class="bulb-glow glow phase0" />
<path d="M241.897 502.78C240.781 507.912 243.31 520.366 238.089 521.792C233.677 522.998 230.103 520.536 230.17 516.181C230.24 511.632 238.699 506.834 241.897 502.78Z" fill="#FFD75A" stroke="#F3CD3E" stroke-width="2.16" class="bulb-glow glow phase1" />
<path d="M271.311 514.72C270.195 519.852 272.724 532.306 267.503 533.732C263.091 534.938 259.517 532.476 259.584 528.12C259.654 523.572 268.113 518.774 271.311 514.72Z" fill="#FFD75A" stroke="#F3CD3E" stroke-width="2.16" class="bulb-glow glow phase2" />
<path d="M300.673 526.199C299.558 531.331 302.086 543.785 296.866 545.211C292.453 546.417 288.879 543.954 288.947 539.599C289.017 535.051 297.475 530.253 300.673 526.199Z" fill="#FFD75A" stroke="#F3CD3E" stroke-width="2.16" class="bulb-glow glow phase3" />
<path d="M329.873 537.947C328.757 543.079 331.286 555.533 326.065 556.96C321.653 558.165 318.079 555.703 318.146 551.348C318.216 546.799 326.674 542.001 329.873 537.947Z" fill="#FFD75A" stroke="#F3CD3E" stroke-width="2.16" class="bulb-glow glow phase4" />
<path d="M359.424 549.239C358.309 554.371 360.837 566.825 355.617 568.252C351.204 569.457 347.63 566.995 347.698 562.64C347.768 558.091 356.226 553.293 359.424 549.239Z" fill="#FFD75A" stroke="#F3CD3E" stroke-width="2.16" class="bulb-glow glow phase5" />
<path d="M388.597 560.717C387.482 565.849 390.01 578.303 384.789 579.729C380.377 580.935 376.803 578.472 376.87 574.117C376.941 569.569 385.399 564.771 388.597 560.717Z" fill="#FFD75A" stroke="#F3CD3E" stroke-width="2.16" class="bulb-glow glow phase0" />
<path d="M652.168 666.617C651.053 671.749 653.582 684.203 648.361 685.629C643.948 686.835 640.375 684.372 640.442 680.017C640.512 675.469 648.97 670.671 652.168 666.617Z" fill="#FFD75A" stroke="#F3CD3E" stroke-width="2.16" class="bulb-glow glow phase1" />
<path d="M622.931 657.029C621.816 662.161 624.344 674.615 619.123 676.041C614.711 677.247 611.137 674.784 611.204 670.429C611.275 665.881 619.733 661.083 622.931 657.029Z" fill="#FFD75A" stroke="#F3CD3E" stroke-width="2.16" class="bulb-glow glow phase2" />
<path d="M593.767 644.796C592.651 649.928 595.18 662.382 589.959 663.808C585.547 665.014 581.973 662.551 582.04 658.196C582.11 653.647 590.569 648.85 593.767 644.796Z" fill="#FFD75A" stroke="#F3CD3E" stroke-width="2.16" class="bulb-glow glow phase3" />
<path d="M564.431 631.048C563.316 636.18 565.844 648.635 560.623 650.061C556.211 651.266 552.637 648.804 552.704 644.449C552.775 639.9 561.233 635.103 564.431 631.048Z" fill="#FFD75A" stroke="#F3CD3E" stroke-width="2.16" class="bulb-glow glow phase4" />
<path d="M535.32 619.284C534.204 624.416 536.733 636.87 531.512 638.297C527.1 639.502 523.526 637.04 523.593 632.685C523.663 628.136 532.122 623.338 535.32 619.284Z" fill="#FFD75A" stroke="#F3CD3E" stroke-width="2.16" class="bulb-glow glow phase5" />
<path d="M506.091 607.618C504.976 612.75 507.505 625.204 502.284 626.63C497.871 627.836 494.297 625.373 494.365 621.018C494.435 616.47 502.893 611.672 506.091 607.618Z" fill="#FFD75A" stroke="#F3CD3E" stroke-width="2.16" class="bulb-glow glow phase0" />
<path d="M417.973 572.046C416.858 577.178 419.386 589.632 414.165 591.058C409.753 592.264 406.179 589.801 406.246 585.446C406.317 580.898 414.775 576.1 417.973 572.046Z" fill="#FFD75A" stroke="#F3CD3E" stroke-width="2.16" class="bulb-glow glow phase1" />
<path d="M476.305 596.133C475.19 601.265 477.718 613.72 472.497 615.146C468.085 616.351 464.511 613.889 464.578 609.534C464.649 604.985 473.107 600.188 476.305 596.133Z" fill="#FFD75A" stroke="#F3CD3E" stroke-width="2.16" class="bulb-glow glow phase2" />
<path d="M447.616 583.85C446.5 588.981 449.029 601.436 443.808 602.862C439.396 604.067 435.822 601.605 435.889 597.25C435.959 592.701 444.418 587.904 447.616 583.85Z" fill="#FFD75A" stroke="#F3CD3E" stroke-width="2.16" class="bulb-glow glow phase3" />
</g></svg>