<svg xmlns="http://www.w3.org/2000/svg" width="1330" height="830" viewBox="0 0 1330 830" fill="none">
<style id="vegas-bulb-style">
.bulb-glow {
  opacity: .18;
  filter: url(#vegasBulbBlur);
  transform-box: fill-box;
  transform-origin: center;
}
.bulb-top {
  transform-box: fill-box;
  transform-origin: center;
}
.phase0 { animation: vegasGlow 1.5s linear infinite; }
.phase1 { animation: vegasGlow 1.5s linear infinite -.25s; }
.phase2 { animation: vegasGlow 1.5s linear infinite -.5s; }
.phase3 { animation: vegasGlow 1.5s linear infinite -.75s; }
.phase4 { animation: vegasGlow 1.5s linear infinite -1.0s; }
.phase5 { animation: vegasGlow 1.5s linear infinite -1.25s; }
.glow.phase0 { animation: vegasHalo 1.5s linear infinite; }
.glow.phase1 { animation: vegasHalo 1.5s linear infinite -.25s; }
.glow.phase2 { animation: vegasHalo 1.5s linear infinite -.5s; }
.glow.phase3 { animation: vegasHalo 1.5s linear infinite -.75s; }
.glow.phase4 { animation: vegasHalo 1.5s linear infinite -1.0s; }
.glow.phase5 { animation: vegasHalo 1.5s linear infinite -1.25s; }
@keyframes vegasGlow {
  0%, 10% { opacity: .72; filter: brightness(.92) saturate(.95); }
  14%, 26% { opacity: 1; filter: brightness(1.18) saturate(1.15); }
  30%, 100% { opacity: .74; filter: brightness(.94) saturate(.96); }
}
@keyframes vegasHalo {
  0%, 10% { opacity: .12; }
  14%, 26% { opacity: .75; }
  30%, 100% { opacity: .14; }
}
</style><path d="M26.3682 324.944C22.1302 321.84 15.7663 310.839 10.9111 313.23C6.80792 315.251 5.76433 319.463 8.70215 322.679C11.7706 326.039 21.2854 324.027 26.3682 324.944Z" fill="url(#paint0_radial_85_432)" stroke="#D1B111" stroke-width="1.2" class="bulb-top phase0" />
<path d="M38.0092 298.343C34.125 294.807 28.966 283.192 23.8842 285.054C19.5896 286.628 18.1044 290.705 20.6838 294.215C23.3779 297.881 33.0526 296.891 38.0092 298.343Z" fill="url(#paint1_radial_85_432)" stroke="#D1B111" stroke-width="1.2" class="bulb-top phase1" />
<path d="M59.6495 275.056C57.4177 270.301 57.1062 257.597 51.6986 257.37C47.1286 257.178 44.1935 260.374 45.23 264.605C46.3125 269.023 55.6279 271.816 59.6495 275.056Z" fill="url(#paint2_radial_85_432)" stroke="#D1B111" stroke-width="1.2" class="bulb-top phase2" />
<path d="M84.7531 259.018C83.6274 253.888 86.1317 241.429 80.908 240.013C76.4933 238.816 72.9243 241.286 73 245.641C73.0791 250.189 81.547 254.97 84.7531 259.018Z" fill="url(#paint3_radial_85_432)" stroke="#D1B111" stroke-width="1.2" class="bulb-top phase3" />
<path d="M113.39 245.375C112.264 240.245 114.768 227.786 109.545 226.37C105.13 225.173 101.561 227.643 101.637 231.998C101.716 236.546 110.184 241.327 113.39 245.375Z" fill="url(#paint4_radial_85_432)" stroke="#D1B111" stroke-width="1.2" class="bulb-top phase4" />
<path d="M148.841 230.297C147.715 225.168 150.22 212.709 144.996 211.292C140.581 210.096 137.012 212.565 137.088 216.92C137.167 221.468 145.635 226.25 148.841 230.297Z" fill="url(#paint5_radial_85_432)" stroke="#D1B111" stroke-width="1.2" class="bulb-top phase5" />
<path d="M177.99 218.764C176.865 213.634 179.369 201.175 174.145 199.759C169.731 198.562 166.162 201.031 166.237 205.386C166.316 209.935 174.784 214.716 177.99 218.764Z" fill="url(#paint6_radial_85_432)" stroke="#D1B111" stroke-width="1.2" class="bulb-top phase0" />
<path d="M208.01 206.947C206.884 201.817 209.389 189.358 204.165 187.942C199.75 186.745 196.181 189.214 196.257 193.569C196.336 198.118 204.804 202.899 208.01 206.947Z" fill="url(#paint7_radial_85_432)" stroke="#D1B111" stroke-width="1.2" class="bulb-top phase1" />
<path d="M237.722 195.026C236.596 189.897 239.1 177.438 233.877 176.021C229.462 174.825 225.893 177.294 225.969 181.649C226.048 186.197 234.516 190.979 237.722 195.026Z" fill="url(#paint8_radial_85_432)" stroke="#D1B111" stroke-width="1.2" class="bulb-top phase2" />
<path d="M267.113 183.029C265.987 177.9 268.491 165.44 263.267 164.024C258.853 162.828 255.284 165.297 255.359 169.652C255.439 174.2 263.906 178.981 267.113 183.029Z" fill="url(#paint9_radial_85_432)" stroke="#D1B111" stroke-width="1.2" class="bulb-top phase3" />
<path d="M296.451 171.492C295.326 166.362 297.83 153.903 292.606 152.487C288.192 151.291 284.623 153.76 284.698 158.115C284.777 162.663 293.245 167.444 296.451 171.492Z" fill="url(#paint10_radial_85_432)" stroke="#D1B111" stroke-width="1.2" class="bulb-top phase4" />
<path d="M325.627 159.687C324.501 154.557 327.006 142.098 321.782 140.682C317.367 139.485 313.798 141.954 313.874 146.309C313.953 150.858 322.421 155.639 325.627 159.687Z" fill="url(#paint11_radial_85_432)" stroke="#D1B111" stroke-width="1.2" class="bulb-top phase5" />
<path d="M355.157 148.336C354.032 143.206 356.536 130.747 351.312 129.331C346.898 128.135 343.329 130.604 343.404 134.959C343.483 139.507 351.951 144.288 355.157 148.336Z" fill="url(#paint12_radial_85_432)" stroke="#D1B111" stroke-width="1.2" class="bulb-top phase0" />
<path d="M384.307 136.802C383.181 131.672 385.685 119.213 380.462 117.797C376.047 116.6 372.478 119.07 372.554 123.425C372.633 127.973 381.101 132.754 384.307 136.802Z" fill="url(#paint13_radial_85_432)" stroke="#D1B111" stroke-width="1.2" class="bulb-top phase1" />
<path d="M647.67 30.3831C646.544 25.2533 649.049 12.7942 643.825 11.3781C639.41 10.1813 635.841 12.6505 635.917 17.0055C635.996 21.554 644.464 26.3352 647.67 30.3831Z" fill="url(#paint14_radial_85_432)" stroke="#D1B111" stroke-width="1.2" class="bulb-top phase2" />
<path d="M618.451 40.0291C617.326 34.8993 619.83 22.4402 614.606 21.0241C610.192 19.8273 606.623 22.2967 606.698 26.6516C606.777 31.2002 615.245 35.9812 618.451 40.0291Z" fill="url(#paint15_radial_85_432)" stroke="#D1B111" stroke-width="1.2" class="bulb-top phase3" />
<path d="M589.312 52.3191C588.186 47.1893 590.69 34.7302 585.467 33.3141C581.052 32.1174 577.483 34.5866 577.559 38.9416C577.638 43.4901 586.106 48.2713 589.312 52.3191Z" fill="url(#paint16_radial_85_432)" stroke="#D1B111" stroke-width="1.2" class="bulb-top phase4" />
<path d="M561.54 63.8736C560.415 58.7438 562.919 46.2847 557.695 44.8686C553.28 43.6719 549.711 46.1411 549.787 50.4961C549.866 55.0446 558.334 59.8257 561.54 63.8736Z" fill="url(#paint17_radial_85_432)" stroke="#D1B111" stroke-width="1.2" class="bulb-top phase5" />
<path d="M530.176 76.4256C529.05 71.2958 531.555 58.8367 526.331 57.4206C521.916 56.2239 518.347 58.6932 518.423 63.0481C518.502 67.5966 526.97 72.3777 530.176 76.4256Z" fill="url(#paint18_radial_85_432)" stroke="#D1B111" stroke-width="1.2" class="bulb-top phase0" />
<path d="M501.726 88.1582C500.6 83.0285 503.104 70.5694 497.881 69.1533C493.466 67.9565 489.897 70.4258 489.973 74.7807C490.052 79.3292 498.52 84.1104 501.726 88.1582Z" fill="url(#paint19_radial_85_432)" stroke="#D1B111" stroke-width="1.2" class="bulb-top phase1" />
<path d="M413.661 125.415C412.536 120.285 415.04 107.826 409.816 106.41C405.402 105.213 401.833 107.682 401.908 112.037C401.987 116.586 410.455 121.367 413.661 125.415Z" fill="url(#paint20_radial_85_432)" stroke="#D1B111" stroke-width="1.2" class="bulb-top phase2" />
<path d="M472.71 100.465C471.584 95.3349 474.089 82.8758 468.865 81.4597C464.45 80.2629 460.881 82.7322 460.957 87.0871C461.036 91.6356 469.504 96.4168 472.71 100.465Z" fill="url(#paint21_radial_85_432)" stroke="#D1B111" stroke-width="1.2" class="bulb-top phase3" />
<path d="M443.281 113.553C442.155 108.423 444.659 95.9639 439.435 94.5478C435.021 93.3511 431.452 95.8203 431.527 100.175C431.606 104.724 440.074 109.505 443.281 113.553Z" fill="url(#paint22_radial_85_432)" stroke="#D1B111" stroke-width="1.2" class="bulb-top phase4" />
<path d="M25.0691 353.718C19.893 352.818 9.30329 345.787 6.01564 350.085C3.23718 353.717 4.17346 357.954 8.23477 359.532C12.4766 361.18 20.1077 355.153 25.0691 353.718Z" fill="url(#paint23_radial_85_432)" stroke="#D1B111" stroke-width="1.2" class="bulb-top phase5" />
<path d="M1301.46 314.101C1306.33 312.133 1315.2 303.032 1319.32 306.542C1322.8 309.509 1322.78 313.848 1319.14 316.244C1315.34 318.747 1306.61 314.46 1301.46 314.101Z" fill="url(#paint24_radial_85_432)" stroke="#D1B111" stroke-width="1.2" class="bulb-top phase0" />
<path d="M1288.97 289.275C1292.84 285.727 1297.96 274.095 1303.05 275.941C1307.35 277.501 1308.85 281.573 1306.28 285.091C1303.6 288.766 1293.92 287.808 1288.97 289.275Z" fill="url(#paint25_radial_85_432)" stroke="#D1B111" stroke-width="1.2" class="bulb-top phase1" />
<path d="M1268.89 268.255C1271.1 263.493 1271.37 250.788 1276.78 250.543C1281.35 250.336 1284.29 253.523 1283.27 257.757C1282.2 262.179 1272.9 265.002 1268.89 268.255Z" fill="url(#paint26_radial_85_432)" stroke="#D1B111" stroke-width="1.2" class="bulb-top phase2" />
<path d="M1243.82 253.43C1244.93 248.297 1242.38 235.846 1247.6 234.413C1252.01 233.202 1255.59 235.659 1255.53 240.015C1255.46 244.563 1247.01 249.372 1243.82 253.43Z" fill="url(#paint27_radial_85_432)" stroke="#D1B111" stroke-width="1.2" class="bulb-top phase3" />
<path d="M1214.73 240.357C1215.84 235.223 1213.29 222.773 1218.51 221.34C1222.92 220.128 1226.5 222.586 1226.44 226.941C1226.37 231.49 1217.92 236.299 1214.73 240.357Z" fill="url(#paint28_radial_85_432)" stroke="#D1B111" stroke-width="1.2" class="bulb-top phase4" />
<path d="M1189.38 229.372C1190.48 224.239 1187.94 211.788 1193.16 210.355C1197.57 209.144 1201.15 211.601 1201.09 215.957C1201.02 220.505 1192.57 225.314 1189.38 229.372Z" fill="url(#paint29_radial_85_432)" stroke="#D1B111" stroke-width="1.2" class="bulb-top phase5" />
<path d="M1160.17 219.52C1161.28 214.387 1158.73 201.936 1163.95 200.503C1168.36 199.292 1171.94 201.749 1171.88 206.104C1171.82 210.653 1163.36 215.462 1160.17 219.52Z" fill="url(#paint30_radial_85_432)" stroke="#D1B111" stroke-width="1.2" class="bulb-top phase0" />
<path d="M1130.1 207.267C1131.21 202.133 1128.67 189.682 1133.89 188.249C1138.3 187.038 1141.88 189.496 1141.81 193.851C1141.75 198.4 1133.3 203.208 1130.1 207.267Z" fill="url(#paint31_radial_85_432)" stroke="#D1B111" stroke-width="1.2" class="bulb-top phase1" />
<path d="M1101.96 195.416C1103.07 190.283 1100.52 177.832 1105.74 176.399C1110.15 175.188 1113.73 177.645 1113.67 182C1113.6 186.549 1105.15 191.358 1101.96 195.416Z" fill="url(#paint32_radial_85_432)" stroke="#D1B111" stroke-width="1.2" class="bulb-top phase2" />
<path d="M1072.53 183.514C1073.64 178.38 1071.09 165.929 1076.31 164.496C1080.72 163.285 1084.3 165.743 1084.24 170.098C1084.17 174.647 1075.72 179.455 1072.53 183.514Z" fill="url(#paint33_radial_85_432)" stroke="#D1B111" stroke-width="1.2" class="bulb-top phase3" />
<path d="M1043.15 172.072C1044.26 166.939 1041.72 154.488 1046.94 153.055C1051.35 151.844 1054.92 154.302 1054.86 158.657C1054.8 163.205 1046.34 168.014 1043.15 172.072Z" fill="url(#paint34_radial_85_432)" stroke="#D1B111" stroke-width="1.2" class="bulb-top phase4" />
<path d="M1013.94 160.361C1015.05 155.227 1012.5 142.776 1017.72 141.343C1022.13 140.132 1025.71 142.59 1025.65 146.945C1025.58 151.494 1017.13 156.303 1013.94 160.361Z" fill="url(#paint35_radial_85_432)" stroke="#D1B111" stroke-width="1.2" class="bulb-top phase5" />
<path d="M984.371 149.107C985.48 143.973 982.936 131.522 988.155 130.089C992.566 128.878 996.143 131.336 996.081 135.691C996.017 140.24 987.564 145.048 984.371 149.107Z" fill="url(#paint36_radial_85_432)" stroke="#D1B111" stroke-width="1.2" class="bulb-top phase0" />
<path d="M955.185 137.666C956.294 132.533 953.749 120.082 958.968 118.649C963.379 117.438 966.956 119.896 966.895 124.251C966.83 128.799 958.378 133.608 955.185 137.666Z" fill="url(#paint37_radial_85_432)" stroke="#D1B111" stroke-width="1.2" class="bulb-top phase1" />
<path d="M691.479 32.1007C692.588 26.9673 690.043 14.5164 695.262 13.0834C699.673 11.8723 703.25 14.33 703.189 18.6851C703.124 23.2339 694.672 28.0425 691.479 32.1007Z" fill="url(#paint38_radial_85_432)" stroke="#D1B111" stroke-width="1.2" class="bulb-top phase2" />
<path d="M721.478 42.4152C722.587 37.2818 720.042 24.8309 725.261 23.3979C729.672 22.1868 733.249 24.6445 733.188 28.9997C733.123 33.5485 724.671 38.357 721.478 42.4152Z" fill="url(#paint39_radial_85_432)" stroke="#D1B111" stroke-width="1.2" class="bulb-top phase3" />
<path d="M751.446 55.3336C752.555 50.2002 750.01 37.7493 755.229 36.3163C759.64 35.1052 763.217 37.563 763.155 41.9181C763.091 46.4669 754.639 51.2754 751.446 55.3336Z" fill="url(#paint40_radial_85_432)" stroke="#D1B111" stroke-width="1.2" class="bulb-top phase4" />
<path d="M779.262 67.5568C780.371 62.4234 777.827 49.9725 783.046 48.5395C787.456 47.3284 791.033 49.7861 790.972 54.1413C790.907 58.69 782.455 63.4986 779.262 67.5568Z" fill="url(#paint41_radial_85_432)" stroke="#D1B111" stroke-width="1.2" class="bulb-top phase5" />
<path d="M808.388 79.2846C809.497 74.1512 806.952 61.7002 812.172 60.2672C816.582 59.0562 820.159 61.5139 820.098 65.869C820.033 70.4178 811.581 75.2263 808.388 79.2846Z" fill="url(#paint42_radial_85_432)" stroke="#D1B111" stroke-width="1.2" class="bulb-top phase0" />
<path d="M838.375 90.1461C839.484 85.0127 836.94 72.5618 842.159 71.1289C846.57 69.9178 850.147 72.3755 850.085 76.7307C850.021 81.2794 841.568 86.0879 838.375 90.1461Z" fill="url(#paint43_radial_85_432)" stroke="#D1B111" stroke-width="1.2" class="bulb-top phase1" />
<path d="M925.794 126.374C926.903 121.241 924.359 108.79 929.578 107.357C933.989 106.146 937.566 108.604 937.504 112.959C937.44 117.507 928.987 122.316 925.794 126.374Z" fill="url(#paint44_radial_85_432)" stroke="#D1B111" stroke-width="1.2" class="bulb-top phase2" />
<path d="M867.432 102.361C868.541 97.2271 865.996 84.7761 871.216 83.3432C875.626 82.1321 879.203 84.5898 879.142 88.945C879.077 93.4937 870.625 98.3023 867.432 102.361Z" fill="url(#paint45_radial_85_432)" stroke="#D1B111" stroke-width="1.2" class="bulb-top phase3" />
<path d="M896.137 114.608C897.246 109.474 894.702 97.0235 899.921 95.5905C904.331 94.3795 907.908 96.8372 907.847 101.192C907.782 105.741 899.33 110.55 896.137 114.608Z" fill="url(#paint46_radial_85_432)" stroke="#D1B111" stroke-width="1.2" class="bulb-top phase4" />
<path d="M1306.1 345.823C1311.29 345.008 1321.99 338.151 1325.21 342.502C1327.93 346.179 1326.93 350.4 1322.84 351.911C1318.57 353.489 1311.04 347.339 1306.1 345.823Z" fill="url(#paint47_radial_85_432)" stroke="#D1B111" stroke-width="1.2" class="bulb-top phase5" />
<path d="M1303.03 376.842C1307.92 378.784 1316.84 387.838 1320.94 384.305C1324.4 381.32 1324.35 376.982 1320.7 374.605C1316.89 372.122 1308.18 376.455 1303.03 376.842Z" fill="url(#paint48_radial_85_432)" stroke="#D1B111" stroke-width="1.2" class="bulb-top phase0" />
<path d="M1290.15 402.278C1294.04 405.806 1299.22 417.409 1304.3 415.537C1308.59 413.954 1310.07 409.874 1307.48 406.369C1304.78 402.708 1295.11 403.718 1290.15 402.278Z" fill="url(#paint49_radial_85_432)" stroke="#D1B111" stroke-width="1.2" class="bulb-top phase1" />
<path d="M1271.79 423.378C1274.03 428.128 1274.37 440.831 1279.77 441.047C1284.34 441.23 1287.27 438.027 1286.23 433.799C1285.14 429.382 1275.81 426.609 1271.79 423.378Z" fill="url(#paint50_radial_85_432)" stroke="#D1B111" stroke-width="1.2" class="bulb-top phase2" />
<path d="M1245.74 438.888C1246.87 444.016 1244.4 456.48 1249.62 457.885C1254.04 459.073 1257.6 456.596 1257.52 452.241C1257.43 447.693 1248.95 442.93 1245.74 438.888Z" fill="url(#paint51_radial_85_432)" stroke="#D1B111" stroke-width="1.2" class="bulb-top phase3" />
<path d="M1215.63 451.066C1216.77 456.193 1214.29 468.657 1219.52 470.063C1223.93 471.25 1227.5 468.773 1227.41 464.419C1227.32 459.87 1218.85 455.107 1215.63 451.066Z" fill="url(#paint52_radial_85_432)" stroke="#D1B111" stroke-width="1.2" class="bulb-top phase4" />
<path d="M1185.53 462.8C1186.67 467.927 1184.19 480.391 1189.42 481.797C1193.84 482.984 1197.4 480.507 1197.32 476.153C1197.23 471.604 1188.75 466.841 1185.53 462.8Z" fill="url(#paint53_radial_85_432)" stroke="#D1B111" stroke-width="1.2" class="bulb-top phase5" />
<path d="M1156.94 474.402C1158.08 479.529 1155.6 491.993 1160.83 493.399C1165.25 494.586 1168.81 492.109 1168.72 487.754C1168.64 483.206 1160.16 478.443 1156.94 474.402Z" fill="url(#paint54_radial_85_432)" stroke="#D1B111" stroke-width="1.2" class="bulb-top phase0" />
<path d="M1126.94 486.816C1128.08 491.944 1125.6 504.408 1130.83 505.813C1135.25 507.001 1138.81 504.524 1138.72 500.169C1138.64 495.621 1130.16 490.857 1126.94 486.816Z" fill="url(#paint55_radial_85_432)" stroke="#D1B111" stroke-width="1.2" class="bulb-top phase1" />
<path d="M1098.86 498.816C1100 503.943 1097.52 516.407 1102.75 517.813C1107.16 519 1110.73 516.523 1110.64 512.169C1110.55 507.62 1102.08 502.857 1098.86 498.816Z" fill="url(#paint56_radial_85_432)" stroke="#D1B111" stroke-width="1.2" class="bulb-top phase2" />
<path d="M1069.49 510.875C1070.63 516.002 1068.15 528.467 1073.38 529.872C1077.8 531.059 1081.36 528.582 1081.28 524.228C1081.19 519.679 1072.71 514.916 1069.49 510.875Z" fill="url(#paint57_radial_85_432)" stroke="#D1B111" stroke-width="1.2" class="bulb-top phase3" />
<path d="M1040.18 522.473C1041.32 527.601 1038.84 540.065 1044.06 541.47C1048.48 542.658 1052.05 540.181 1051.96 535.826C1051.87 531.278 1043.39 526.515 1040.18 522.473Z" fill="url(#paint58_radial_85_432)" stroke="#D1B111" stroke-width="1.2" class="bulb-top phase4" />
<path d="M1011.03 534.34C1012.17 539.468 1009.69 551.932 1014.92 553.337C1019.33 554.525 1022.9 552.048 1022.81 547.693C1022.72 543.145 1014.24 538.381 1011.03 534.34Z" fill="url(#paint59_radial_85_432)" stroke="#D1B111" stroke-width="1.2" class="bulb-top phase5" />
<path d="M981.524 545.752C982.66 550.88 980.182 563.344 985.409 564.749C989.826 565.937 993.39 563.46 993.305 559.105C993.216 554.557 984.738 549.793 981.524 545.752Z" fill="url(#paint60_radial_85_432)" stroke="#D1B111" stroke-width="1.2" class="bulb-top phase0" />
<path d="M952.399 557.348C953.535 562.475 951.057 574.94 956.284 576.345C960.701 577.532 964.265 575.056 964.18 570.701C964.091 566.152 955.613 561.389 952.399 557.348Z" fill="url(#paint61_radial_85_432)" stroke="#D1B111" stroke-width="1.2" class="bulb-top phase1" />
<path d="M689.259 664.319C690.395 669.446 687.917 681.91 693.144 683.316C697.561 684.503 701.125 682.026 701.04 677.672C700.951 673.123 692.474 668.36 689.259 664.319Z" fill="url(#paint62_radial_85_432)" stroke="#D1B111" stroke-width="1.2" class="bulb-top phase2" />
<path d="M719.202 653.845C720.339 658.972 717.861 671.436 723.087 672.841C727.505 674.029 731.068 671.552 730.983 667.197C730.895 662.649 722.417 657.886 719.202 653.845Z" fill="url(#paint63_radial_85_432)" stroke="#D1B111" stroke-width="1.2" class="bulb-top phase3" />
<path d="M749.101 640.766C750.237 645.893 747.759 658.358 752.986 659.763C757.403 660.95 760.967 658.474 760.882 654.119C760.793 649.57 752.315 644.807 749.101 640.766Z" fill="url(#paint64_radial_85_432)" stroke="#D1B111" stroke-width="1.2" class="bulb-top phase4" />
<path d="M776.852 628.394C777.988 633.522 775.51 645.986 780.737 647.391C785.154 648.579 788.718 646.102 788.633 641.747C788.544 637.199 780.066 632.435 776.852 628.394Z" fill="url(#paint65_radial_85_432)" stroke="#D1B111" stroke-width="1.2" class="bulb-top phase5" />
<path d="M805.915 616.512C807.052 621.639 804.574 634.104 809.8 635.509C814.217 636.696 817.781 634.22 817.696 629.865C817.608 625.317 809.13 620.553 805.915 616.512Z" fill="url(#paint66_radial_85_432)" stroke="#D1B111" stroke-width="1.2" class="bulb-top phase0" />
<path d="M835.843 605.491C836.979 610.618 834.501 623.082 839.728 624.487C844.145 625.675 847.709 623.198 847.624 618.843C847.535 614.295 839.057 609.532 835.843 605.491Z" fill="url(#paint67_radial_85_432)" stroke="#D1B111" stroke-width="1.2" class="bulb-top phase1" />
<path d="M923.068 568.797C924.205 573.924 921.727 586.388 926.954 587.794C931.371 588.981 934.935 586.504 934.85 582.15C934.761 577.601 926.283 572.838 923.068 568.797Z" fill="url(#paint68_radial_85_432)" stroke="#D1B111" stroke-width="1.2" class="bulb-top phase2" />
<path d="M864.835 593.121C865.972 598.249 863.493 610.713 868.72 612.118C873.137 613.306 876.701 610.829 876.616 606.474C876.528 601.926 868.05 597.163 864.835 593.121Z" fill="url(#paint69_radial_85_432)" stroke="#D1B111" stroke-width="1.2" class="bulb-top phase3" />
<path d="M893.474 580.721C894.61 585.848 892.132 598.313 897.359 599.718C901.776 600.905 905.34 598.429 905.255 594.074C905.166 589.526 896.688 584.762 893.474 580.721Z" fill="url(#paint70_radial_85_432)" stroke="#D1B111" stroke-width="1.2" class="bulb-top phase4" />
<path d="M29.6529 382.358C25.4209 385.47 19.0787 396.484 14.2188 394.102C10.1117 392.09 9.0598 387.88 11.9913 384.658C15.0531 381.292 24.5718 383.285 29.6529 382.358Z" fill="url(#paint71_radial_85_432)" stroke="#D1B111" stroke-width="1.2" class="bulb-top phase5" />
<path d="M44.4101 411.92C40.5328 415.463 35.3967 427.088 30.3113 425.236C26.0135 423.671 24.5203 419.597 27.0928 416.082C29.7796 412.41 39.4563 413.381 44.4101 411.92Z" fill="url(#paint72_radial_85_432)" stroke="#D1B111" stroke-width="1.2" class="bulb-top phase0" />
<path d="M66.0658 432.897C63.8435 437.656 63.557 450.36 58.1498 450.598C53.5801 450.8 50.6388 447.609 51.667 443.376C52.7408 438.955 62.0506 436.144 66.0658 432.897Z" fill="url(#paint73_radial_85_432)" stroke="#D1B111" stroke-width="1.2" class="bulb-top phase1" />
<path d="M92.6636 445.086C91.548 450.218 94.0767 462.672 88.8558 464.099C84.4436 465.304 80.8697 462.842 80.9368 458.487C81.007 453.938 89.4654 449.14 92.6636 445.086Z" fill="url(#paint74_radial_85_432)" stroke="#D1B111" stroke-width="1.2" class="bulb-top phase2" />
<path d="M122.819 457.141C121.703 462.273 124.232 474.727 119.011 476.153C114.599 477.359 111.025 474.896 111.092 470.541C111.162 465.993 119.621 461.195 122.819 457.141Z" fill="url(#paint75_radial_85_432)" stroke="#D1B111" stroke-width="1.2" class="bulb-top phase3" />
<path d="M152.947 467.684C151.831 472.816 154.36 485.27 149.139 486.697C144.727 487.902 141.153 485.44 141.22 481.085C141.29 476.536 149.749 471.738 152.947 467.684Z" fill="url(#paint76_radial_85_432)" stroke="#D1B111" stroke-width="1.2" class="bulb-top phase4" />
<path d="M182.12 479.161C181.004 484.293 183.533 496.747 178.312 498.174C173.9 499.379 170.326 496.917 170.393 492.562C170.463 488.013 178.922 483.215 182.12 479.161Z" fill="url(#paint77_radial_85_432)" stroke="#D1B111" stroke-width="1.2" class="bulb-top phase5" />
<path d="M212.162 490.919C211.046 496.051 213.575 508.505 208.354 509.931C203.942 511.137 200.368 508.674 200.435 504.319C200.505 499.771 208.964 494.973 212.162 490.919Z" fill="url(#paint78_radial_85_432)" stroke="#D1B111" stroke-width="1.2" class="bulb-top phase0" />
<path d="M241.897 502.78C240.781 507.912 243.31 520.366 238.089 521.792C233.677 522.998 230.103 520.536 230.17 516.181C230.24 511.632 238.699 506.834 241.897 502.78Z" fill="url(#paint79_radial_85_432)" stroke="#D1B111" stroke-width="1.2" class="bulb-top phase1" />
<path d="M271.311 514.72C270.195 519.852 272.724 532.306 267.503 533.732C263.091 534.938 259.517 532.476 259.584 528.12C259.654 523.572 268.113 518.774 271.311 514.72Z" fill="url(#paint80_radial_85_432)" stroke="#D1B111" stroke-width="1.2" class="bulb-top phase2" />
<path d="M300.673 526.198C299.558 531.33 302.086 543.785 296.866 545.211C292.453 546.416 288.879 543.954 288.947 539.599C289.017 535.05 297.475 530.253 300.673 526.198Z" fill="url(#paint81_radial_85_432)" stroke="#D1B111" stroke-width="1.2" class="bulb-top phase3" />
<path d="M329.873 537.947C328.757 543.079 331.286 555.534 326.065 556.96C321.653 558.165 318.079 555.703 318.146 551.348C318.216 546.799 326.674 542.002 329.873 537.947Z" fill="url(#paint82_radial_85_432)" stroke="#D1B111" stroke-width="1.2" class="bulb-top phase4" />
<path d="M359.424 549.239C358.309 554.371 360.837 566.826 355.617 568.252C351.204 569.457 347.63 566.995 347.698 562.64C347.768 558.091 356.226 553.294 359.424 549.239Z" fill="url(#paint83_radial_85_432)" stroke="#D1B111" stroke-width="1.2" class="bulb-top phase5" />
<path d="M388.597 560.717C387.482 565.849 390.01 578.303 384.789 579.729C380.377 580.935 376.803 578.473 376.87 574.118C376.941 569.569 385.399 564.771 388.597 560.717Z" fill="url(#paint84_radial_85_432)" stroke="#D1B111" stroke-width="1.2" class="bulb-top phase0" />
<path d="M652.168 666.616C651.053 671.748 653.582 684.203 648.361 685.629C643.948 686.834 640.375 684.372 640.442 680.017C640.512 675.468 648.97 670.671 652.168 666.616Z" fill="url(#paint85_radial_85_432)" stroke="#D1B111" stroke-width="1.2" class="bulb-top phase1" />
<path d="M622.931 657.028C621.816 662.16 624.344 674.615 619.123 676.041C614.711 677.246 611.137 674.784 611.204 670.429C611.275 665.88 619.733 661.083 622.931 657.028Z" fill="url(#paint86_radial_85_432)" stroke="#D1B111" stroke-width="1.2" class="bulb-top phase2" />
<path d="M593.767 644.796C592.651 649.928 595.18 662.382 589.959 663.808C585.547 665.014 581.973 662.551 582.04 658.196C582.11 653.647 590.569 648.85 593.767 644.796Z" fill="url(#paint87_radial_85_432)" stroke="#D1B111" stroke-width="1.2" class="bulb-top phase3" />
<path d="M564.431 631.048C563.316 636.18 565.844 648.635 560.623 650.061C556.211 651.266 552.637 648.804 552.704 644.449C552.775 639.9 561.233 635.103 564.431 631.048Z" fill="url(#paint88_radial_85_432)" stroke="#D1B111" stroke-width="1.2" class="bulb-top phase4" />
<path d="M535.32 619.284C534.204 624.416 536.733 636.871 531.512 638.297C527.1 639.502 523.526 637.04 523.593 632.685C523.663 628.136 532.122 623.339 535.32 619.284Z" fill="url(#paint89_radial_85_432)" stroke="#D1B111" stroke-width="1.2" class="bulb-top phase5" />
<path d="M506.091 607.617C504.976 612.749 507.505 625.204 502.284 626.63C497.871 627.835 494.297 625.373 494.365 621.018C494.435 616.469 502.893 611.672 506.091 607.617Z" fill="url(#paint90_radial_85_432)" stroke="#D1B111" stroke-width="1.2" class="bulb-top phase0" />
<path d="M417.973 572.046C416.858 577.178 419.386 589.632 414.165 591.058C409.753 592.264 406.179 589.802 406.246 585.447C406.317 580.898 414.775 576.1 417.973 572.046Z" fill="url(#paint91_radial_85_432)" stroke="#D1B111" stroke-width="1.2" class="bulb-top phase1" />
<path d="M476.305 596.133C475.19 601.265 477.718 613.72 472.497 615.146C468.085 616.351 464.511 613.889 464.578 609.534C464.649 604.985 473.107 600.188 476.305 596.133Z" fill="url(#paint92_radial_85_432)" stroke="#D1B111" stroke-width="1.2" class="bulb-top phase2" />
<path d="M447.616 583.85C446.5 588.982 449.029 601.436 443.808 602.862C439.396 604.068 435.822 601.605 435.889 597.25C435.959 592.702 444.418 587.904 447.616 583.85Z" fill="url(#paint93_radial_85_432)" stroke="#D1B111" stroke-width="1.2" class="bulb-top phase3" />
<path d="M668.182 670.346L84.958 439.403C17.2708 412.6 -7.57606 296.214 103.878 251.455L666.944 25.3337L1244.16 254.91C1319.9 285.033 1329.69 402.428 1243.06 437.514L668.182 670.346Z" stroke="#E6C77A" stroke-width="16.9371" />
<path d="M664.486 662.445L77.2666 432.104C33.4681 414.924 9.29655 303.266 88.1406 271.978L662.363 44.1018L1251.04 278.994C1305.35 300.661 1301.21 405.594 1247.87 427.113L664.486 662.445Z" stroke="#A86A30" stroke-width="16.4" />
<path d="M669.285 656.754L82.0654 426.414C38.267 409.233 14.0954 297.575 92.9394 266.287L667.162 38.4109L1255.84 273.303C1310.14 294.97 1306.01 399.903 1252.67 421.422L669.285 656.754Z" fill="url(#paint94_linear_85_432)" stroke="#DF9B53" stroke-width="16.4" />
<path d="M701.998 788.934C701.092 789.841 669.011 763.377 667.726 763.382C666.442 763.388 634.601 790.117 633.69 789.216C632.779 788.315 659.38 756.399 659.375 755.121C659.369 753.843 632.501 722.166 633.407 721.26C634.313 720.354 666.394 746.818 667.679 746.812C668.963 746.807 700.804 720.078 701.715 720.979C702.626 721.88 676.025 753.795 676.031 755.074C676.036 756.351 702.904 788.028 701.998 788.934Z" fill="#BA331C" />
<path d="M699.189 784.822C698.373 785.638 669.481 761.805 668.324 761.81C667.167 761.815 638.491 785.887 637.671 785.076C636.85 784.264 660.807 755.521 660.802 754.37C660.797 753.219 636.6 724.691 637.416 723.875C638.232 723.059 667.124 746.892 668.281 746.887C669.438 746.882 698.114 722.81 698.934 723.621C699.754 724.433 675.798 753.176 675.803 754.327C675.807 755.478 700.004 784.006 699.189 784.822Z" stroke="#F2D878" stroke-width="2.97198" />
<path d="M667.858 829.442C666.081 829.284 661.359 764.154 660.101 762.727C658.87 761.331 602.235 757.128 602.376 755.158C602.521 753.145 660.026 747.604 661.29 746.175C662.525 744.777 666.401 680.603 668.139 680.758C669.916 680.916 674.639 746.046 675.897 747.473C677.127 748.869 733.763 753.072 733.621 755.042C733.476 757.055 675.971 762.596 674.708 764.025C673.472 765.423 669.596 829.597 667.858 829.442Z" fill="#DB3C21" />
<path d="M667.081 819.215C665.521 819.076 661.373 761.881 660.269 760.628C659.188 759.402 609.452 755.711 609.577 753.981C609.704 752.213 660.203 747.348 661.313 746.092C662.398 744.865 665.802 688.509 667.328 688.645C668.888 688.784 673.035 745.979 674.14 747.232C675.221 748.458 724.957 752.149 724.832 753.879C724.705 755.647 674.206 760.513 673.096 761.768C672.011 762.995 668.607 819.351 667.081 819.215Z" stroke="#F2D878" stroke-width="2.7181" />
<g clip-path="url(#clip0_85_432)">
<path d="M1138.72 286.536V304.354H1136.61V286.536H1130.9V284.659H1144.42V286.536H1138.72ZM1162.89 304.354V289.401L1157.48 301.291H1155.7L1150.23 289.401V304.387H1148.12V284.659H1150.23L1156.66 298.624L1162.92 284.659H1165.03V304.354H1162.92H1162.89Z" fill="#DB3C21" />
<path d="M486.429 401.944C491.573 401.944 493.981 405.765 493.981 410.112C493.981 418.709 486.99 426.514 479.603 426.514C474.26 426.514 471.787 422.661 471.787 418.346C471.787 409.684 478.844 401.911 486.429 401.911V401.944ZM480.163 423.748C485.769 423.748 489.496 413.966 489.496 409.882C489.496 407.346 488.671 404.744 485.605 404.744C480.031 404.744 476.371 414.493 476.371 418.577C476.371 421.113 477.129 423.715 480.196 423.715L480.163 423.748ZM515.383 392.294C510.568 392.294 507.501 395.818 506.314 400.89C505.984 402.306 504.039 408.729 504.039 408.729C503.709 409.322 503.115 409.552 501.763 410.178C500.18 410.837 499.95 411.067 499.95 411.66C499.95 411.99 500.082 412.319 500.609 412.319H502.951L497.542 430.533C497.015 432.278 496.19 432.641 495.762 432.641C493.915 432.641 493.42 431.224 491.969 431.224C490.518 431.224 489.496 432.311 489.496 433.365C489.496 435.539 491.639 435.967 492.662 435.967C498.367 435.967 501.862 430.763 503.115 426.482L507.304 412.253H512.415L513.932 409.157H508.227L511.689 397.333C512.151 395.851 512.712 395.291 513.899 395.291C515.878 395.291 514.328 397.893 516.9 397.893C517.988 397.893 519.769 397.135 519.769 394.962C519.769 393.71 518.252 392.228 515.383 392.228V392.294ZM538.566 430.17V393.15H544.205V425.131H562.046V430.137H538.566V430.17ZM593.803 430.17L591.263 422.76H576.622L574.082 430.17H568.08L581.667 393.15H586.185L599.772 430.17H593.803ZM584.074 401.549L578.27 417.951H589.681L584.074 401.549ZM617.381 430.5C611.841 430.5 607.818 429.182 604.256 425.592L608.016 421.903C610.72 424.637 613.688 425.461 617.48 425.461C622.295 425.461 625.131 423.353 625.131 419.763C625.131 418.149 624.636 416.798 623.68 415.876C622.757 415.053 621.8 414.625 619.624 414.361L615.238 413.735C612.237 413.34 609.83 412.286 608.214 410.771C606.4 409.025 605.51 406.72 605.51 403.69C605.51 397.234 610.225 392.854 617.909 392.854C622.79 392.854 626.252 394.105 629.451 397.037L625.857 400.561C623.548 398.354 620.91 397.728 617.777 397.728C613.391 397.728 611.017 400.199 611.017 403.492C611.017 404.843 611.445 406.028 612.435 406.95C613.391 407.774 614.908 408.4 616.623 408.663L620.811 409.322C624.274 409.816 626.153 410.672 627.736 412.056C629.748 413.801 630.737 416.469 630.737 419.664C630.737 426.482 625.164 430.533 617.414 430.533L617.381 430.5ZM669.551 430.17H665.165L652.997 393.15H658.834L667.375 420.092L675.883 393.15H681.819L669.551 430.17ZM689.7 430.17V393.15H713.411V398.222H695.339V409.058H710.74V413.999H695.339V425.164H713.411V430.17H689.7ZM744.739 426.284C741.903 429.281 738.441 430.5 734.516 430.5C730.592 430.5 727.36 429.083 724.788 426.547C721.128 422.892 721.194 418.775 721.194 411.693C721.194 404.612 721.128 400.462 724.788 396.806C727.327 394.27 730.559 392.887 734.516 392.887C742.398 392.887 746.982 397.992 748.004 404.381H742.332C741.376 400.297 738.671 397.926 734.516 397.926C732.34 397.926 730.361 398.782 729.042 400.231C727.228 402.175 726.8 404.283 726.8 411.726C726.8 419.17 727.228 421.278 729.042 423.287C730.361 424.703 732.34 425.526 734.516 425.526C736.99 425.526 739.1 424.604 740.584 422.924C741.936 421.376 742.464 419.499 742.464 417.128V415.053H734.516V410.244H748.037V415.909C748.037 420.718 747.18 423.748 744.739 426.383V426.284ZM778.838 430.17L776.265 422.76H761.657L759.117 430.17H753.115L766.702 393.15H771.253L784.84 430.17H778.838ZM769.109 401.549L763.305 417.951H774.715L769.109 401.549ZM801.922 430.5C796.349 430.5 792.325 429.182 788.797 425.592L792.523 421.903C795.227 424.637 798.195 425.461 802.021 425.461C806.868 425.461 809.671 423.353 809.671 419.763C809.671 418.149 809.21 416.798 808.187 415.876C807.297 415.053 806.341 414.625 804.131 414.361L799.778 413.735C796.744 413.34 794.37 412.286 792.754 410.771C790.907 409.025 790.05 406.72 790.05 403.69C790.05 397.234 794.733 392.854 802.416 392.854C807.33 392.854 810.76 394.105 813.925 397.037L810.331 400.561C808.055 398.354 805.384 397.728 802.284 397.728C797.898 397.728 795.491 400.199 795.491 403.492C795.491 404.843 795.92 406.028 796.909 406.95C797.865 407.774 799.349 408.4 801.064 408.663L805.285 409.322C808.715 409.816 810.661 410.672 812.178 412.056C814.255 413.801 815.244 416.469 815.244 419.664C815.244 426.482 809.638 430.533 801.889 430.533L801.922 430.5Z" fill="#DB3C21" />
<path d="M192.404 291.542V357.019H184.555V291.542H165V284.659H211.992V291.575H192.404V291.542ZM266.108 357.019V323.984H235.835V357.019H228.019V284.659H235.835V317.068H266.108V284.659H273.957V357.019H266.108ZM294.337 357.019V284.659H335.294V291.575H302.152V317.101H330.216V324.017H302.152V350.169H335.294V357.085H294.337V357.019ZM406.228 357.645C399.006 357.645 392.411 355.01 387.431 350.103C380.539 343.318 380.539 336.171 380.539 320.823C380.539 305.474 380.539 298.327 387.431 291.542C392.411 286.668 399.006 284 406.228 284C419.386 284 429.18 291.971 431.654 305.606H423.64C421.661 296.746 415.363 290.95 406.228 290.95C401.38 290.95 396.731 292.794 393.565 296.055C388.915 300.732 388.387 305.705 388.387 320.855C388.387 336.006 388.915 340.979 393.565 345.623C396.731 348.884 401.38 350.728 406.228 350.728C415.363 350.728 421.859 344.965 423.838 336.072H431.654C429.312 349.707 419.32 357.645 406.228 357.645ZM490.584 350.103C485.67 354.977 479.141 357.645 471.82 357.645C464.499 357.645 458.002 355.01 453.089 350.103C446.196 343.318 446.196 336.171 446.196 320.823C446.196 305.474 446.196 298.327 453.089 291.542C458.002 286.668 464.532 284 471.82 284C479.108 284 485.67 286.668 490.584 291.542C497.476 298.327 497.476 305.474 497.476 320.823C497.476 336.171 497.476 343.318 490.584 350.103ZM484.516 296.12C481.284 292.86 476.7 290.917 471.82 290.917C466.939 290.917 462.355 292.86 459.156 296.12C454.573 300.797 454.012 305.672 454.012 320.823C454.012 335.973 454.573 340.848 459.156 345.525C462.388 348.785 466.972 350.728 471.82 350.728C476.667 350.728 481.284 348.785 484.516 345.525C489.133 340.848 489.66 335.94 489.66 320.823C489.66 305.705 489.133 300.797 484.516 296.12ZM534.74 357.645C523.759 357.645 516.537 354.911 509.645 348.061L514.987 342.758C521.088 348.785 526.694 350.728 534.938 350.728C545.689 350.728 552.251 345.722 552.251 337.291C552.251 333.536 551.13 330.275 548.755 328.233C546.447 326.191 544.534 325.598 539.192 324.808L530.651 323.49C524.847 322.601 520.362 320.757 517.13 318.023C513.437 314.762 511.623 310.316 511.623 304.486C511.623 292.201 520.593 284.033 535.103 284.033C544.435 284.033 550.668 286.437 556.901 292.003L551.855 296.977C547.304 292.926 542.523 290.785 534.74 290.785C524.979 290.785 519.34 296.153 519.34 304.19C519.34 307.747 520.362 310.579 522.638 312.556C524.88 314.433 528.738 315.915 532.531 316.508L540.544 317.727C547.469 318.78 550.833 320.164 553.933 322.832C557.956 326.158 560.133 331.164 560.133 337.159C560.133 349.872 550.075 357.678 534.773 357.678L534.74 357.645ZM631.495 357.019V302.049L611.379 345.623H604.685L584.272 302.049V357.019H576.456V284.659H584.272L608.18 335.973L631.495 284.659H639.311V357.019H631.495ZM702.165 350.103C697.186 354.977 690.722 357.645 683.401 357.645C676.08 357.645 669.584 355.01 664.604 350.103C657.712 343.318 657.712 336.171 657.712 320.823C657.712 305.474 657.712 298.327 664.604 291.542C669.584 286.668 676.047 284 683.401 284C690.755 284 697.186 286.668 702.165 291.542C709.058 298.327 709.058 305.474 709.058 320.823C709.058 336.171 709.058 343.318 702.165 350.103ZM696.065 296.12C692.932 292.86 688.282 290.917 683.434 290.917C678.587 290.917 673.937 292.86 670.738 296.12C666.121 300.797 665.627 305.672 665.627 320.823C665.627 335.973 666.121 340.848 670.738 345.525C673.97 348.785 678.587 350.728 683.434 350.728C688.282 350.728 692.932 348.785 696.065 345.525C700.681 340.848 701.242 335.94 701.242 320.823C701.242 305.705 700.681 300.797 696.065 296.12ZM754.797 327.278H735.34V357.019H727.525V284.659H754.797C768.186 284.659 777.485 292.893 777.485 305.902C777.485 318.912 768.186 327.311 754.797 327.311V327.278ZM754.071 291.542H735.307V320.328H754.071C763.239 320.328 769.637 315.454 769.637 305.87C769.637 296.285 763.239 291.542 754.071 291.542ZM833.975 350.103C829.062 354.977 822.565 357.645 815.244 357.645C807.923 357.645 801.427 355.01 796.48 350.103C789.588 343.318 789.588 336.171 789.588 320.823C789.588 305.474 789.588 298.327 796.48 291.542C801.427 286.668 807.923 284 815.244 284C822.565 284 829.062 286.668 833.975 291.542C840.9 298.327 840.9 305.474 840.9 320.823C840.9 336.171 840.9 343.318 833.975 350.103ZM827.907 296.12C824.709 292.86 820.092 290.917 815.244 290.917C810.396 290.917 805.78 292.86 802.581 296.12C797.931 300.797 797.469 305.672 797.469 320.823C797.469 335.973 797.931 340.848 802.581 345.525C805.78 348.785 810.396 350.728 815.244 350.728C820.092 350.728 824.709 348.785 827.907 345.525C832.557 340.848 833.052 335.94 833.052 320.823C833.052 305.705 832.557 300.797 827.907 296.12ZM859.335 357.019V284.659H867.216V350.136H904.645V357.052H859.335V357.019ZM918.331 357.019V284.659H926.179V357.019H918.331ZM968.885 291.542V357.019H961.102V291.542H939.865V284.659H990.155V291.575H968.885V291.542ZM1040.41 357.019L1034.54 340.65H1002.49L996.619 357.019H988.275L1015.28 284.659H1021.91L1048.79 357.019H1040.41ZM1018.68 295.725L1004.9 333.964H1032.3L1018.68 295.725ZM1107.36 357.019L1068.41 299.019V357.019H1060.59V284.659H1068.01L1106.96 342.527V284.659H1114.81V357.019H1107.39H1107.36Z" fill="#DB3C21" />
</g>
<defs>
<filter id="vegasBulbBlur" x="-80%" y="-80%" width="260%" height="260%" color-interpolation-filters="sRGB"><feGaussianBlur stdDeviation="7.5" result="blur" /><feColorMatrix in="blur" type="matrix" values="1 0 0 0 0  0 0.84 0 0 0  0 0 0.18 0 0  0 0 0 1 0" /></filter><radialGradient id="paint0_radial_85_432" cx="0" cy="0" r="1" gradientTransform="matrix(4.29049 -3.8831 -4.08527 -4.5106 12.3036 318.035)" gradientUnits="userSpaceOnUse">
<stop stop-color="#F8F0B1" />
<stop offset="1" stop-color="#DCC833" />
</radialGradient>
<radialGradient id="paint1_radial_85_432" cx="0" cy="0" r="1" gradientTransform="matrix(4.67883 -3.40557 -3.58288 -4.91886 24.7583 289.98)" gradientUnits="userSpaceOnUse">
<stop stop-color="#F8F0B1" />
<stop offset="1" stop-color="#DCC833" />
</radialGradient>
<radialGradient id="paint2_radial_85_432" cx="0" cy="0" r="1" gradientTransform="matrix(5.62728 -1.35277 -1.4232 -5.91598 50.6172 262.254)" gradientUnits="userSpaceOnUse">
<stop stop-color="#F8F0B1" />
<stop offset="1" stop-color="#DCC833" />
</radialGradient>
<radialGradient id="paint3_radial_85_432" cx="0" cy="0" r="1" gradientTransform="matrix(5.78721 -0.0764072 -0.0803854 -6.08411 78.7736 244.538)" gradientUnits="userSpaceOnUse">
<stop stop-color="#F8F0B1" />
<stop offset="1" stop-color="#DCC833" />
</radialGradient>
<radialGradient id="paint4_radial_85_432" cx="0" cy="0" r="1" gradientTransform="matrix(5.78722 -0.0764074 -0.0803854 -6.08411 107.41 230.895)" gradientUnits="userSpaceOnUse">
<stop stop-color="#F8F0B1" />
<stop offset="1" stop-color="#DCC833" />
</radialGradient>
<radialGradient id="paint5_radial_85_432" cx="0" cy="0" r="1" gradientTransform="matrix(5.78721 -0.0764072 -0.0803854 -6.08411 142.862 215.817)" gradientUnits="userSpaceOnUse">
<stop stop-color="#F8F0B1" />
<stop offset="1" stop-color="#DCC833" />
</radialGradient>
<radialGradient id="paint6_radial_85_432" cx="0" cy="0" r="1" gradientTransform="matrix(5.78722 -0.0764074 -0.0803854 -6.08411 172.011 204.284)" gradientUnits="userSpaceOnUse">
<stop stop-color="#F8F0B1" />
<stop offset="1" stop-color="#DCC833" />
</radialGradient>
<radialGradient id="paint7_radial_85_432" cx="0" cy="0" r="1" gradientTransform="matrix(5.78722 -0.0764074 -0.0803854 -6.08411 202.03 192.467)" gradientUnits="userSpaceOnUse">
<stop stop-color="#F8F0B1" />
<stop offset="1" stop-color="#DCC833" />
</radialGradient>
<radialGradient id="paint8_radial_85_432" cx="0" cy="0" r="1" gradientTransform="matrix(5.78722 -0.0764074 -0.0803854 -6.08411 231.742 180.546)" gradientUnits="userSpaceOnUse">
<stop stop-color="#F8F0B1" />
<stop offset="1" stop-color="#DCC833" />
</radialGradient>
<radialGradient id="paint9_radial_85_432" cx="0" cy="0" r="1" gradientTransform="matrix(5.78722 -0.0764074 -0.0803854 -6.08411 261.133 168.549)" gradientUnits="userSpaceOnUse">
<stop stop-color="#F8F0B1" />
<stop offset="1" stop-color="#DCC833" />
</radialGradient>
<radialGradient id="paint10_radial_85_432" cx="0" cy="0" r="1" gradientTransform="matrix(5.78722 -0.0764074 -0.0803854 -6.08411 290.472 157.012)" gradientUnits="userSpaceOnUse">
<stop stop-color="#F8F0B1" />
<stop offset="1" stop-color="#DCC833" />
</radialGradient>
<radialGradient id="paint11_radial_85_432" cx="0" cy="0" r="1" gradientTransform="matrix(5.78722 -0.0764074 -0.0803854 -6.08411 319.648 145.207)" gradientUnits="userSpaceOnUse">
<stop stop-color="#F8F0B1" />
<stop offset="1" stop-color="#DCC833" />
</radialGradient>
<radialGradient id="paint12_radial_85_432" cx="0" cy="0" r="1" gradientTransform="matrix(5.78722 -0.0764074 -0.0803854 -6.08411 349.178 133.856)" gradientUnits="userSpaceOnUse">
<stop stop-color="#F8F0B1" />
<stop offset="1" stop-color="#DCC833" />
</radialGradient>
<radialGradient id="paint13_radial_85_432" cx="0" cy="0" r="1" gradientTransform="matrix(5.78722 -0.0764074 -0.0803854 -6.08411 378.327 122.322)" gradientUnits="userSpaceOnUse">
<stop stop-color="#F8F0B1" />
<stop offset="1" stop-color="#DCC833" />
</radialGradient>
<radialGradient id="paint14_radial_85_432" cx="0" cy="0" r="1" gradientTransform="matrix(5.78722 -0.0764074 -0.0803856 -6.08412 641.691 15.903)" gradientUnits="userSpaceOnUse">
<stop stop-color="#F8F0B1" />
<stop offset="1" stop-color="#DCC833" />
</radialGradient>
<radialGradient id="paint15_radial_85_432" cx="0" cy="0" r="1" gradientTransform="matrix(5.78722 -0.0764074 -0.0803855 -6.08412 612.472 25.5491)" gradientUnits="userSpaceOnUse">
<stop stop-color="#F8F0B1" />
<stop offset="1" stop-color="#DCC833" />
</radialGradient>
<radialGradient id="paint16_radial_85_432" cx="0" cy="0" r="1" gradientTransform="matrix(5.78719 -0.076407 -0.0803856 -6.08412 583.332 37.839)" gradientUnits="userSpaceOnUse">
<stop stop-color="#F8F0B1" />
<stop offset="1" stop-color="#DCC833" />
</radialGradient>
<radialGradient id="paint17_radial_85_432" cx="0" cy="0" r="1" gradientTransform="matrix(5.78722 -0.0764074 -0.0803856 -6.08412 555.561 49.3935)" gradientUnits="userSpaceOnUse">
<stop stop-color="#F8F0B1" />
<stop offset="1" stop-color="#DCC833" />
</radialGradient>
<radialGradient id="paint18_radial_85_432" cx="0" cy="0" r="1" gradientTransform="matrix(5.78722 -0.0764074 -0.0803854 -6.08411 524.196 61.9455)" gradientUnits="userSpaceOnUse">
<stop stop-color="#F8F0B1" />
<stop offset="1" stop-color="#DCC833" />
</radialGradient>
<radialGradient id="paint19_radial_85_432" cx="0" cy="0" r="1" gradientTransform="matrix(5.78719 -0.076407 -0.0803854 -6.08411 495.746 73.6782)" gradientUnits="userSpaceOnUse">
<stop stop-color="#F8F0B1" />
<stop offset="1" stop-color="#DCC833" />
</radialGradient>
<radialGradient id="paint20_radial_85_432" cx="0" cy="0" r="1" gradientTransform="matrix(5.78722 -0.0764074 -0.0803854 -6.08411 407.682 110.935)" gradientUnits="userSpaceOnUse">
<stop stop-color="#F8F0B1" />
<stop offset="1" stop-color="#DCC833" />
</radialGradient>
<radialGradient id="paint21_radial_85_432" cx="0" cy="0" r="1" gradientTransform="matrix(5.78719 -0.076407 -0.0803854 -6.08411 466.731 85.9846)" gradientUnits="userSpaceOnUse">
<stop stop-color="#F8F0B1" />
<stop offset="1" stop-color="#DCC833" />
</radialGradient>
<radialGradient id="paint22_radial_85_432" cx="0" cy="0" r="1" gradientTransform="matrix(5.78722 -0.0764074 -0.0803854 -6.08411 437.301 99.0727)" gradientUnits="userSpaceOnUse">
<stop stop-color="#F8F0B1" />
<stop offset="1" stop-color="#DCC833" />
</radialGradient>
<radialGradient id="paint23_radial_85_432" cx="0" cy="0" r="1" gradientTransform="matrix(2.1188 -5.38399 -5.66431 -2.22749 9.3982 353.772)" gradientUnits="userSpaceOnUse">
<stop stop-color="#F8F0B1" />
<stop offset="1" stop-color="#DCC833" />
</radialGradient>
<radialGradient id="paint24_radial_85_432" cx="0" cy="0" r="1" gradientTransform="matrix(-3.20461 -4.81782 5.06866 -3.369 1316.79 310.858)" gradientUnits="userSpaceOnUse">
<stop stop-color="#F8F0B1" />
<stop offset="1" stop-color="#DCC833" />
</radialGradient>
<radialGradient id="paint25_radial_85_432" cx="0" cy="0" r="1" gradientTransform="matrix(-4.68983 -3.3904 3.56693 -4.93041 1302.19 280.869)" gradientUnits="userSpaceOnUse">
<stop stop-color="#F8F0B1" />
<stop offset="1" stop-color="#DCC833" />
</radialGradient>
<radialGradient id="paint26_radial_85_432" cx="0" cy="0" r="1" gradientTransform="matrix(-5.63165 -1.33455 1.40404 -5.92056 1277.88 255.424)" gradientUnits="userSpaceOnUse">
<stop stop-color="#F8F0B1" />
<stop offset="1" stop-color="#DCC833" />
</radialGradient>
<radialGradient id="paint27_radial_85_432" cx="0" cy="0" r="1" gradientTransform="matrix(-5.78744 -0.0576774 0.0606802 -6.08434 1249.75 238.931)" gradientUnits="userSpaceOnUse">
<stop stop-color="#F8F0B1" />
<stop offset="1" stop-color="#DCC833" />
</radialGradient>
<radialGradient id="paint28_radial_85_432" cx="0" cy="0" r="1" gradientTransform="matrix(-5.78744 -0.0576774 0.0606802 -6.08434 1220.66 225.858)" gradientUnits="userSpaceOnUse">
<stop stop-color="#F8F0B1" />
<stop offset="1" stop-color="#DCC833" />
</radialGradient>
<radialGradient id="paint29_radial_85_432" cx="0" cy="0" r="1" gradientTransform="matrix(-5.78744 -0.0576774 0.0606802 -6.08434 1195.31 214.873)" gradientUnits="userSpaceOnUse">
<stop stop-color="#F8F0B1" />
<stop offset="1" stop-color="#DCC833" />
</radialGradient>
<radialGradient id="paint30_radial_85_432" cx="0" cy="0" r="1" gradientTransform="matrix(-5.78744 -0.0576774 0.0606802 -6.08434 1166.1 205.021)" gradientUnits="userSpaceOnUse">
<stop stop-color="#F8F0B1" />
<stop offset="1" stop-color="#DCC833" />
</radialGradient>
<radialGradient id="paint31_radial_85_432" cx="0" cy="0" r="1" gradientTransform="matrix(-5.78744 -0.0576774 0.0606804 -6.08436 1136.04 192.767)" gradientUnits="userSpaceOnUse">
<stop stop-color="#F8F0B1" />
<stop offset="1" stop-color="#DCC833" />
</radialGradient>
<radialGradient id="paint32_radial_85_432" cx="0" cy="0" r="1" gradientTransform="matrix(-5.78744 -0.0576774 0.0606802 -6.08434 1107.89 180.917)" gradientUnits="userSpaceOnUse">
<stop stop-color="#F8F0B1" />
<stop offset="1" stop-color="#DCC833" />
</radialGradient>
<radialGradient id="paint33_radial_85_432" cx="0" cy="0" r="1" gradientTransform="matrix(-5.78744 -0.0576774 0.0606802 -6.08434 1078.46 169.014)" gradientUnits="userSpaceOnUse">
<stop stop-color="#F8F0B1" />
<stop offset="1" stop-color="#DCC833" />
</radialGradient>
<radialGradient id="paint34_radial_85_432" cx="0" cy="0" r="1" gradientTransform="matrix(-5.78744 -0.0576774 0.0606802 -6.08434 1049.08 157.573)" gradientUnits="userSpaceOnUse">
<stop stop-color="#F8F0B1" />
<stop offset="1" stop-color="#DCC833" />
</radialGradient>
<radialGradient id="paint35_radial_85_432" cx="0" cy="0" r="1" gradientTransform="matrix(-5.78744 -0.0576774 0.0606802 -6.08434 1019.87 145.861)" gradientUnits="userSpaceOnUse">
<stop stop-color="#F8F0B1" />
<stop offset="1" stop-color="#DCC833" />
</radialGradient>
<radialGradient id="paint36_radial_85_432" cx="0" cy="0" r="1" gradientTransform="matrix(-5.78744 -0.0576774 0.0606802 -6.08434 990.304 134.607)" gradientUnits="userSpaceOnUse">
<stop stop-color="#F8F0B1" />
<stop offset="1" stop-color="#DCC833" />
</radialGradient>
<radialGradient id="paint37_radial_85_432" cx="0" cy="0" r="1" gradientTransform="matrix(-5.78744 -0.0576774 0.0606802 -6.08434 961.117 123.167)" gradientUnits="userSpaceOnUse">
<stop stop-color="#F8F0B1" />
<stop offset="1" stop-color="#DCC833" />
</radialGradient>
<radialGradient id="paint38_radial_85_432" cx="0" cy="0" r="1" gradientTransform="matrix(-5.78744 -0.0576774 0.0606803 -6.08435 697.411 17.6014)" gradientUnits="userSpaceOnUse">
<stop stop-color="#F8F0B1" />
<stop offset="1" stop-color="#DCC833" />
</radialGradient>
<radialGradient id="paint39_radial_85_432" cx="0" cy="0" r="1" gradientTransform="matrix(-5.78744 -0.0576774 0.0606801 -6.08433 727.41 27.9159)" gradientUnits="userSpaceOnUse">
<stop stop-color="#F8F0B1" />
<stop offset="1" stop-color="#DCC833" />
</radialGradient>
<radialGradient id="paint40_radial_85_432" cx="0" cy="0" r="1" gradientTransform="matrix(-5.78744 -0.0576774 0.0606802 -6.08434 757.378 40.8343)" gradientUnits="userSpaceOnUse">
<stop stop-color="#F8F0B1" />
<stop offset="1" stop-color="#DCC833" />
</radialGradient>
<radialGradient id="paint41_radial_85_432" cx="0" cy="0" r="1" gradientTransform="matrix(-5.78744 -0.0576774 0.0606802 -6.08434 785.195 53.0575)" gradientUnits="userSpaceOnUse">
<stop stop-color="#F8F0B1" />
<stop offset="1" stop-color="#DCC833" />
</radialGradient>
<radialGradient id="paint42_radial_85_432" cx="0" cy="0" r="1" gradientTransform="matrix(-5.78744 -0.0576774 0.0606804 -6.08436 814.321 64.7852)" gradientUnits="userSpaceOnUse">
<stop stop-color="#F8F0B1" />
<stop offset="1" stop-color="#DCC833" />
</radialGradient>
<radialGradient id="paint43_radial_85_432" cx="0" cy="0" r="1" gradientTransform="matrix(-5.78744 -0.0576774 0.0606802 -6.08434 844.308 75.6468)" gradientUnits="userSpaceOnUse">
<stop stop-color="#F8F0B1" />
<stop offset="1" stop-color="#DCC833" />
</radialGradient>
<radialGradient id="paint44_radial_85_432" cx="0" cy="0" r="1" gradientTransform="matrix(-5.78744 -0.0576774 0.0606802 -6.08434 931.727 111.875)" gradientUnits="userSpaceOnUse">
<stop stop-color="#F8F0B1" />
<stop offset="1" stop-color="#DCC833" />
</radialGradient>
<radialGradient id="paint45_radial_85_432" cx="0" cy="0" r="1" gradientTransform="matrix(-5.78744 -0.0576774 0.0606804 -6.08436 873.365 87.8611)" gradientUnits="userSpaceOnUse">
<stop stop-color="#F8F0B1" />
<stop offset="1" stop-color="#DCC833" />
</radialGradient>
<radialGradient id="paint46_radial_85_432" cx="0" cy="0" r="1" gradientTransform="matrix(-5.78744 -0.0576774 0.0606802 -6.08434 902.07 100.108)" gradientUnits="userSpaceOnUse">
<stop stop-color="#F8F0B1" />
<stop offset="1" stop-color="#DCC833" />
</radialGradient>
<radialGradient id="paint47_radial_85_432" cx="0" cy="0" r="1" gradientTransform="matrix(-2.03057 -5.41788 5.69994 -2.13475 1321.77 346.133)" gradientUnits="userSpaceOnUse">
<stop stop-color="#F8F0B1" />
<stop offset="1" stop-color="#DCC833" />
</radialGradient>
<radialGradient id="paint48_radial_85_432" cx="0" cy="0" r="1" gradientTransform="matrix(-3.17884 4.83487 5.08657 3.34194 1318.38 380.003)" gradientUnits="userSpaceOnUse">
<stop stop-color="#F8F0B1" />
<stop offset="1" stop-color="#DCC833" />
</radialGradient>
<radialGradient id="paint49_radial_85_432" cx="0" cy="0" r="1" gradientTransform="matrix(-4.67167 3.41538 3.5932 4.91133 1303.42 410.613)" gradientUnits="userSpaceOnUse">
<stop stop-color="#F8F0B1" />
<stop offset="1" stop-color="#DCC833" />
</radialGradient>
<radialGradient id="paint50_radial_85_432" cx="0" cy="0" r="1" gradientTransform="matrix(-5.62444 1.36457 1.43562 5.91298 1280.85 436.161)" gradientUnits="userSpaceOnUse">
<stop stop-color="#F8F0B1" />
<stop offset="1" stop-color="#DCC833" />
</radialGradient>
<radialGradient id="paint51_radial_85_432" cx="0" cy="0" r="1" gradientTransform="matrix(-5.78705 0.0885486 0.0931587 6.08393 1251.75 453.356)" gradientUnits="userSpaceOnUse">
<stop stop-color="#F8F0B1" />
<stop offset="1" stop-color="#DCC833" />
</radialGradient>
<radialGradient id="paint52_radial_85_432" cx="0" cy="0" r="1" gradientTransform="matrix(-5.78705 0.0885486 0.0931587 6.08393 1221.64 465.533)" gradientUnits="userSpaceOnUse">
<stop stop-color="#F8F0B1" />
<stop offset="1" stop-color="#DCC833" />
</radialGradient>
<radialGradient id="paint53_radial_85_432" cx="0" cy="0" r="1" gradientTransform="matrix(-5.78705 0.0885486 0.093159 6.08395 1191.54 477.267)" gradientUnits="userSpaceOnUse">
<stop stop-color="#F8F0B1" />
<stop offset="1" stop-color="#DCC833" />
</radialGradient>
<radialGradient id="paint54_radial_85_432" cx="0" cy="0" r="1" gradientTransform="matrix(-5.78705 0.0885486 0.0931587 6.08393 1162.95 488.869)" gradientUnits="userSpaceOnUse">
<stop stop-color="#F8F0B1" />
<stop offset="1" stop-color="#DCC833" />
</radialGradient>
<radialGradient id="paint55_radial_85_432" cx="0" cy="0" r="1" gradientTransform="matrix(-5.78705 0.0885486 0.093159 6.08395 1132.95 501.284)" gradientUnits="userSpaceOnUse">
<stop stop-color="#F8F0B1" />
<stop offset="1" stop-color="#DCC833" />
</radialGradient>
<radialGradient id="paint56_radial_85_432" cx="0" cy="0" r="1" gradientTransform="matrix(-5.78705 0.0885486 0.0931587 6.08393 1104.87 513.283)" gradientUnits="userSpaceOnUse">
<stop stop-color="#F8F0B1" />
<stop offset="1" stop-color="#DCC833" />
</radialGradient>
<radialGradient id="paint57_radial_85_432" cx="0" cy="0" r="1" gradientTransform="matrix(-5.78705 0.0885486 0.0931587 6.08393 1075.5 525.342)" gradientUnits="userSpaceOnUse">
<stop stop-color="#F8F0B1" />
<stop offset="1" stop-color="#DCC833" />
</radialGradient>
<radialGradient id="paint58_radial_85_432" cx="0" cy="0" r="1" gradientTransform="matrix(-5.78705 0.0885486 0.0931587 6.08393 1046.19 536.941)" gradientUnits="userSpaceOnUse">
<stop stop-color="#F8F0B1" />
<stop offset="1" stop-color="#DCC833" />
</radialGradient>
<radialGradient id="paint59_radial_85_432" cx="0" cy="0" r="1" gradientTransform="matrix(-5.78705 0.0885486 0.0931587 6.08393 1017.04 548.808)" gradientUnits="userSpaceOnUse">
<stop stop-color="#F8F0B1" />
<stop offset="1" stop-color="#DCC833" />
</radialGradient>
<radialGradient id="paint60_radial_85_432" cx="0" cy="0" r="1" gradientTransform="matrix(-5.78705 0.0885486 0.0931587 6.08393 987.533 560.22)" gradientUnits="userSpaceOnUse">
<stop stop-color="#F8F0B1" />
<stop offset="1" stop-color="#DCC833" />
</radialGradient>
<radialGradient id="paint61_radial_85_432" cx="0" cy="0" r="1" gradientTransform="matrix(-5.78705 0.0885486 0.0931587 6.08393 958.408 571.815)" gradientUnits="userSpaceOnUse">
<stop stop-color="#F8F0B1" />
<stop offset="1" stop-color="#DCC833" />
</radialGradient>
<radialGradient id="paint62_radial_85_432" cx="0" cy="0" r="1" gradientTransform="matrix(-5.78705 0.0885486 0.0931588 6.08394 695.269 678.786)" gradientUnits="userSpaceOnUse">
<stop stop-color="#F8F0B1" />
<stop offset="1" stop-color="#DCC833" />
</radialGradient>
<radialGradient id="paint63_radial_85_432" cx="0" cy="0" r="1" gradientTransform="matrix(-5.78705 0.0885486 0.0931586 6.08392 725.212 668.312)" gradientUnits="userSpaceOnUse">
<stop stop-color="#F8F0B1" />
<stop offset="1" stop-color="#DCC833" />
</radialGradient>
<radialGradient id="paint64_radial_85_432" cx="0" cy="0" r="1" gradientTransform="matrix(-5.78705 0.0885486 0.0931586 6.08392 755.111 655.233)" gradientUnits="userSpaceOnUse">
<stop stop-color="#F8F0B1" />
<stop offset="1" stop-color="#DCC833" />
</radialGradient>
<radialGradient id="paint65_radial_85_432" cx="0" cy="0" r="1" gradientTransform="matrix(-5.78705 0.0885486 0.0931587 6.08393 782.862 642.862)" gradientUnits="userSpaceOnUse">
<stop stop-color="#F8F0B1" />
<stop offset="1" stop-color="#DCC833" />
</radialGradient>
<radialGradient id="paint66_radial_85_432" cx="0" cy="0" r="1" gradientTransform="matrix(-5.78705 0.0885486 0.093159 6.08395 811.925 630.98)" gradientUnits="userSpaceOnUse">
<stop stop-color="#F8F0B1" />
<stop offset="1" stop-color="#DCC833" />
</radialGradient>
<radialGradient id="paint67_radial_85_432" cx="0" cy="0" r="1" gradientTransform="matrix(-5.78705 0.0885486 0.0931587 6.08393 841.853 619.958)" gradientUnits="userSpaceOnUse">
<stop stop-color="#F8F0B1" />
<stop offset="1" stop-color="#DCC833" />
</radialGradient>
<radialGradient id="paint68_radial_85_432" cx="0" cy="0" r="1" gradientTransform="matrix(-5.78705 0.0885486 0.0931587 6.08393 929.078 583.264)" gradientUnits="userSpaceOnUse">
<stop stop-color="#F8F0B1" />
<stop offset="1" stop-color="#DCC833" />
</radialGradient>
<radialGradient id="paint69_radial_85_432" cx="0" cy="0" r="1" gradientTransform="matrix(-5.78705 0.0885486 0.093159 6.08395 870.845 607.589)" gradientUnits="userSpaceOnUse">
<stop stop-color="#F8F0B1" />
<stop offset="1" stop-color="#DCC833" />
</radialGradient>
<radialGradient id="paint70_radial_85_432" cx="0" cy="0" r="1" gradientTransform="matrix(-5.78705 0.0885486 0.0931587 6.08393 899.484 595.188)" gradientUnits="userSpaceOnUse">
<stop stop-color="#F8F0B1" />
<stop offset="1" stop-color="#DCC833" />
</radialGradient>
<radialGradient id="paint71_radial_85_432" cx="0" cy="0" r="1" gradientTransform="matrix(4.29813 3.87465 -4.07638 4.51863 15.6018 389.294)" gradientUnits="userSpaceOnUse">
<stop stop-color="#F8F0B1" />
<stop offset="1" stop-color="#DCC833" />
</radialGradient>
<radialGradient id="paint72_radial_85_432" cx="0" cy="0" r="1" gradientTransform="matrix(4.68553 3.39636 -3.5732 4.9259 31.1756 420.309)" gradientUnits="userSpaceOnUse">
<stop stop-color="#F8F0B1" />
<stop offset="1" stop-color="#DCC833" />
</radialGradient>
<radialGradient id="paint73_radial_85_432" cx="0" cy="0" r="1" gradientTransform="matrix(5.62994 1.3417 -1.41155 5.91877 57.0587 445.716)" gradientUnits="userSpaceOnUse">
<stop stop-color="#F8F0B1" />
<stop offset="1" stop-color="#DCC833" />
</radialGradient>
<radialGradient id="paint74_radial_85_432" cx="0" cy="0" r="1" gradientTransform="matrix(5.78735 0.0650243 -0.0684099 6.08426 86.7126 459.578)" gradientUnits="userSpaceOnUse">
<stop stop-color="#F8F0B1" />
<stop offset="1" stop-color="#DCC833" />
</radialGradient>
<radialGradient id="paint75_radial_85_432" cx="0" cy="0" r="1" gradientTransform="matrix(5.78735 0.0650243 -0.0684099 6.08426 116.868 471.633)" gradientUnits="userSpaceOnUse">
<stop stop-color="#F8F0B1" />
<stop offset="1" stop-color="#DCC833" />
</radialGradient>
<radialGradient id="paint76_radial_85_432" cx="0" cy="0" r="1" gradientTransform="matrix(5.78735 0.0650243 -0.0684099 6.08426 146.996 482.176)" gradientUnits="userSpaceOnUse">
<stop stop-color="#F8F0B1" />
<stop offset="1" stop-color="#DCC833" />
</radialGradient>
<radialGradient id="paint77_radial_85_432" cx="0" cy="0" r="1" gradientTransform="matrix(5.78736 0.0650245 -0.0684099 6.08426 176.169 493.653)" gradientUnits="userSpaceOnUse">
<stop stop-color="#F8F0B1" />
<stop offset="1" stop-color="#DCC833" />
</radialGradient>
<radialGradient id="paint78_radial_85_432" cx="0" cy="0" r="1" gradientTransform="matrix(5.78736 0.0650245 -0.0684099 6.08426 206.211 505.41)" gradientUnits="userSpaceOnUse">
<stop stop-color="#F8F0B1" />
<stop offset="1" stop-color="#DCC833" />
</radialGradient>
<radialGradient id="paint79_radial_85_432" cx="0" cy="0" r="1" gradientTransform="matrix(5.78736 0.0650245 -0.0684099 6.08426 235.946 517.272)" gradientUnits="userSpaceOnUse">
<stop stop-color="#F8F0B1" />
<stop offset="1" stop-color="#DCC833" />
</radialGradient>
<radialGradient id="paint80_radial_85_432" cx="0" cy="0" r="1" gradientTransform="matrix(5.78736 0.0650245 -0.0684099 6.08426 265.36 529.212)" gradientUnits="userSpaceOnUse">
<stop stop-color="#F8F0B1" />
<stop offset="1" stop-color="#DCC833" />
</radialGradient>
<radialGradient id="paint81_radial_85_432" cx="0" cy="0" r="1" gradientTransform="matrix(5.78736 0.0650245 -0.0684099 6.08426 294.722 540.69)" gradientUnits="userSpaceOnUse">
<stop stop-color="#F8F0B1" />
<stop offset="1" stop-color="#DCC833" />
</radialGradient>
<radialGradient id="paint82_radial_85_432" cx="0" cy="0" r="1" gradientTransform="matrix(5.78736 0.0650245 -0.0684099 6.08426 323.922 552.439)" gradientUnits="userSpaceOnUse">
<stop stop-color="#F8F0B1" />
<stop offset="1" stop-color="#DCC833" />
</radialGradient>
<radialGradient id="paint83_radial_85_432" cx="0" cy="0" r="1" gradientTransform="matrix(5.78736 0.0650245 -0.0684099 6.08426 353.473 563.731)" gradientUnits="userSpaceOnUse">
<stop stop-color="#F8F0B1" />
<stop offset="1" stop-color="#DCC833" />
</radialGradient>
<radialGradient id="paint84_radial_85_432" cx="0" cy="0" r="1" gradientTransform="matrix(5.78736 0.0650245 -0.0684099 6.08426 382.646 575.209)" gradientUnits="userSpaceOnUse">
<stop stop-color="#F8F0B1" />
<stop offset="1" stop-color="#DCC833" />
</radialGradient>
<radialGradient id="paint85_radial_85_432" cx="0" cy="0" r="1" gradientTransform="matrix(5.78736 0.0650245 -0.06841 6.08427 646.217 681.108)" gradientUnits="userSpaceOnUse">
<stop stop-color="#F8F0B1" />
<stop offset="1" stop-color="#DCC833" />
</radialGradient>
<radialGradient id="paint86_radial_85_432" cx="0" cy="0" r="1" gradientTransform="matrix(5.78736 0.0650245 -0.0684099 6.08426 616.98 671.52)" gradientUnits="userSpaceOnUse">
<stop stop-color="#F8F0B1" />
<stop offset="1" stop-color="#DCC833" />
</radialGradient>
<radialGradient id="paint87_radial_85_432" cx="0" cy="0" r="1" gradientTransform="matrix(5.78733 0.0650241 -0.06841 6.08427 587.816 659.287)" gradientUnits="userSpaceOnUse">
<stop stop-color="#F8F0B1" />
<stop offset="1" stop-color="#DCC833" />
</radialGradient>
<radialGradient id="paint88_radial_85_432" cx="0" cy="0" r="1" gradientTransform="matrix(5.78736 0.0650245 -0.0684099 6.08426 558.48 645.54)" gradientUnits="userSpaceOnUse">
<stop stop-color="#F8F0B1" />
<stop offset="1" stop-color="#DCC833" />
</radialGradient>
<radialGradient id="paint89_radial_85_432" cx="0" cy="0" r="1" gradientTransform="matrix(5.78736 0.0650245 -0.0684101 6.08428 529.369 633.776)" gradientUnits="userSpaceOnUse">
<stop stop-color="#F8F0B1" />
<stop offset="1" stop-color="#DCC833" />
</radialGradient>
<radialGradient id="paint90_radial_85_432" cx="0" cy="0" r="1" gradientTransform="matrix(5.78736 0.0650245 -0.0684101 6.08428 500.14 622.109)" gradientUnits="userSpaceOnUse">
<stop stop-color="#F8F0B1" />
<stop offset="1" stop-color="#DCC833" />
</radialGradient>
<radialGradient id="paint91_radial_85_432" cx="0" cy="0" r="1" gradientTransform="matrix(5.78736 0.0650245 -0.0684099 6.08426 412.022 586.538)" gradientUnits="userSpaceOnUse">
<stop stop-color="#F8F0B1" />
<stop offset="1" stop-color="#DCC833" />
</radialGradient>
<radialGradient id="paint92_radial_85_432" cx="0" cy="0" r="1" gradientTransform="matrix(5.78736 0.0650245 -0.0684101 6.08428 470.354 610.625)" gradientUnits="userSpaceOnUse">
<stop stop-color="#F8F0B1" />
<stop offset="1" stop-color="#DCC833" />
</radialGradient>
<radialGradient id="paint93_radial_85_432" cx="0" cy="0" r="1" gradientTransform="matrix(5.78736 0.0650245 -0.0684099 6.08426 441.665 598.342)" gradientUnits="userSpaceOnUse">
<stop stop-color="#F8F0B1" />
<stop offset="1" stop-color="#DCC833" />
</radialGradient>
<linearGradient id="paint94_linear_85_432" x1="668.023" y1="347.582" x2="473.171" y2="612.743" gradientUnits="userSpaceOnUse">
<stop stop-color="#F9F9F5" />
<stop offset="1" stop-color="#E9E6D9" />
</linearGradient>
<clipPath id="clip0_85_432">
<rect width="1000" height="152" fill="white" transform="translate(165 284)" />
</clipPath>
</defs>
<g id="vegas-bulb-glow-layer"><path d="M26.3682 324.944C22.1302 321.84 15.7663 310.839 10.9111 313.23C6.80792 315.251 5.76433 319.463 8.70215 322.679C11.7706 326.039 21.2854 324.027 26.3682 324.944Z" fill="#FFD75A" stroke="#F3CD3E" stroke-width="2.16" class="bulb-glow glow phase0" />
<path d="M38.0092 298.343C34.125 294.807 28.966 283.192 23.8842 285.054C19.5896 286.628 18.1044 290.705 20.6838 294.215C23.3779 297.881 33.0526 296.891 38.0092 298.343Z" fill="#FFD75A" stroke="#F3CD3E" stroke-width="2.16" class="bulb-glow glow phase1" />
<path d="M59.6495 275.056C57.4177 270.301 57.1062 257.597 51.6986 257.37C47.1286 257.178 44.1935 260.374 45.23 264.605C46.3125 269.023 55.6279 271.816 59.6495 275.056Z" fill="#FFD75A" stroke="#F3CD3E" stroke-width="2.16" class="bulb-glow glow phase2" />
<path d="M84.7531 259.018C83.6274 253.888 86.1317 241.429 80.908 240.013C76.4933 238.816 72.9243 241.286 73 245.641C73.0791 250.189 81.547 254.97 84.7531 259.018Z" fill="#FFD75A" stroke="#F3CD3E" stroke-width="2.16" class="bulb-glow glow phase3" />
<path d="M113.39 245.375C112.264 240.245 114.768 227.786 109.545 226.37C105.13 225.173 101.561 227.643 101.637 231.998C101.716 236.546 110.184 241.327 113.39 245.375Z" fill="#FFD75A" stroke="#F3CD3E" stroke-width="2.16" class="bulb-glow glow phase4" />
<path d="M148.841 230.297C147.715 225.168 150.22 212.709 144.996 211.292C140.581 210.096 137.012 212.565 137.088 216.92C137.167 221.468 145.635 226.25 148.841 230.297Z" fill="#FFD75A" stroke="#F3CD3E" stroke-width="2.16" class="bulb-glow glow phase5" />
<path d="M177.99 218.764C176.865 213.634 179.369 201.175 174.145 199.759C169.731 198.562 166.162 201.031 166.237 205.386C166.316 209.935 174.784 214.716 177.99 218.764Z" fill="#FFD75A" stroke="#F3CD3E" stroke-width="2.16" class="bulb-glow glow phase0" />
<path d="M208.01 206.947C206.884 201.817 209.389 189.358 204.165 187.942C199.75 186.745 196.181 189.214 196.257 193.569C196.336 198.118 204.804 202.899 208.01 206.947Z" fill="#FFD75A" stroke="#F3CD3E" stroke-width="2.16" class="bulb-glow glow phase1" />
<path d="M237.722 195.026C236.596 189.897 239.1 177.438 233.877 176.021C229.462 174.825 225.893 177.294 225.969 181.649C226.048 186.197 234.516 190.979 237.722 195.026Z" fill="#FFD75A" stroke="#F3CD3E" stroke-width="2.16" class="bulb-glow glow phase2" />
<path d="M267.113 183.029C265.987 177.9 268.491 165.44 263.267 164.024C258.853 162.828 255.284 165.297 255.359 169.652C255.439 174.2 263.906 178.981 267.113 183.029Z" fill="#FFD75A" stroke="#F3CD3E" stroke-width="2.16" class="bulb-glow glow phase3" />
<path d="M296.451 171.492C295.326 166.362 297.83 153.903 292.606 152.487C288.192 151.291 284.623 153.76 284.698 158.115C284.777 162.663 293.245 167.444 296.451 171.492Z" fill="#FFD75A" stroke="#F3CD3E" stroke-width="2.16" class="bulb-glow glow phase4" />
<path d="M325.627 159.687C324.501 154.557 327.006 142.098 321.782 140.682C317.367 139.485 313.798 141.954 313.874 146.309C313.953 150.858 322.421 155.639 325.627 159.687Z" fill="#FFD75A" stroke="#F3CD3E" stroke-width="2.16" class="bulb-glow glow phase5" />
<path d="M355.157 148.336C354.032 143.206 356.536 130.747 351.312 129.331C346.898 128.135 343.329 130.604 343.404 134.959C343.483 139.507 351.951 144.288 355.157 148.336Z" fill="#FFD75A" stroke="#F3CD3E" stroke-width="2.16" class="bulb-glow glow phase0" />
<path d="M384.307 136.802C383.181 131.672 385.685 119.213 380.462 117.797C376.047 116.6 372.478 119.07 372.554 123.425C372.633 127.973 381.101 132.754 384.307 136.802Z" fill="#FFD75A" stroke="#F3CD3E" stroke-width="2.16" class="bulb-glow glow phase1" />
<path d="M647.67 30.3831C646.544 25.2533 649.049 12.7942 643.825 11.3781C639.41 10.1813 635.841 12.6505 635.917 17.0055C635.996 21.554 644.464 26.3352 647.67 30.3831Z" fill="#FFD75A" stroke="#F3CD3E" stroke-width="2.16" class="bulb-glow glow phase2" />
<path d="M618.451 40.0291C617.326 34.8993 619.83 22.4402 614.606 21.0241C610.192 19.8273 606.623 22.2967 606.698 26.6516C606.777 31.2002 615.245 35.9812 618.451 40.0291Z" fill="#FFD75A" stroke="#F3CD3E" stroke-width="2.16" class="bulb-glow glow phase3" />
<path d="M589.312 52.3191C588.186 47.1893 590.69 34.7302 585.467 33.3141C581.052 32.1174 577.483 34.5866 577.559 38.9416C577.638 43.4901 586.106 48.2713 589.312 52.3191Z" fill="#FFD75A" stroke="#F3CD3E" stroke-width="2.16" class="bulb-glow glow phase4" />
<path d="M561.54 63.8736C560.415 58.7438 562.919 46.2847 557.695 44.8686C553.28 43.6719 549.711 46.1411 549.787 50.4961C549.866 55.0446 558.334 59.8257 561.54 63.8736Z" fill="#FFD75A" stroke="#F3CD3E" stroke-width="2.16" class="bulb-glow glow phase5" />
<path d="M530.176 76.4256C529.05 71.2958 531.555 58.8367 526.331 57.4206C521.916 56.2239 518.347 58.6932 518.423 63.0481C518.502 67.5966 526.97 72.3777 530.176 76.4256Z" fill="#FFD75A" stroke="#F3CD3E" stroke-width="2.16" class="bulb-glow glow phase0" />
<path d="M501.726 88.1582C500.6 83.0285 503.104 70.5694 497.881 69.1533C493.466 67.9565 489.897 70.4258 489.973 74.7807C490.052 79.3292 498.52 84.1104 501.726 88.1582Z" fill="#FFD75A" stroke="#F3CD3E" stroke-width="2.16" class="bulb-glow glow phase1" />
<path d="M413.661 125.415C412.536 120.285 415.04 107.826 409.816 106.41C405.402 105.213 401.833 107.682 401.908 112.037C401.987 116.586 410.455 121.367 413.661 125.415Z" fill="#FFD75A" stroke="#F3CD3E" stroke-width="2.16" class="bulb-glow glow phase2" />
<path d="M472.71 100.465C471.584 95.3349 474.089 82.8758 468.865 81.4597C464.45 80.2629 460.881 82.7322 460.957 87.0871C461.036 91.6356 469.504 96.4168 472.71 100.465Z" fill="#FFD75A" stroke="#F3CD3E" stroke-width="2.16" class="bulb-glow glow phase3" />
<path d="M443.281 113.553C442.155 108.423 444.659 95.9639 439.435 94.5478C435.021 93.3511 431.452 95.8203 431.527 100.175C431.606 104.724 440.074 109.505 443.281 113.553Z" fill="#FFD75A" stroke="#F3CD3E" stroke-width="2.16" class="bulb-glow glow phase4" />
<path d="M25.0691 353.718C19.893 352.818 9.30329 345.787 6.01564 350.085C3.23718 353.717 4.17346 357.954 8.23477 359.532C12.4766 361.18 20.1077 355.153 25.0691 353.718Z" fill="#FFD75A" stroke="#F3CD3E" stroke-width="2.16" class="bulb-glow glow phase5" />
<path d="M1301.46 314.101C1306.33 312.133 1315.2 303.032 1319.32 306.542C1322.8 309.509 1322.78 313.848 1319.14 316.244C1315.34 318.747 1306.61 314.46 1301.46 314.101Z" fill="#FFD75A" stroke="#F3CD3E" stroke-width="2.16" class="bulb-glow glow phase0" />
<path d="M1288.97 289.275C1292.84 285.727 1297.96 274.095 1303.05 275.941C1307.35 277.501 1308.85 281.573 1306.28 285.091C1303.6 288.766 1293.92 287.808 1288.97 289.275Z" fill="#FFD75A" stroke="#F3CD3E" stroke-width="2.16" class="bulb-glow glow phase1" />
<path d="M1268.89 268.255C1271.1 263.493 1271.37 250.788 1276.78 250.543C1281.35 250.336 1284.29 253.523 1283.27 257.757C1282.2 262.179 1272.9 265.002 1268.89 268.255Z" fill="#FFD75A" stroke="#F3CD3E" stroke-width="2.16" class="bulb-glow glow phase2" />
<path d="M1243.82 253.43C1244.93 248.297 1242.38 235.846 1247.6 234.413C1252.01 233.202 1255.59 235.659 1255.53 240.015C1255.46 244.563 1247.01 249.372 1243.82 253.43Z" fill="#FFD75A" stroke="#F3CD3E" stroke-width="2.16" class="bulb-glow glow phase3" />
<path d="M1214.73 240.357C1215.84 235.223 1213.29 222.773 1218.51 221.34C1222.92 220.128 1226.5 222.586 1226.44 226.941C1226.37 231.49 1217.92 236.299 1214.73 240.357Z" fill="#FFD75A" stroke="#F3CD3E" stroke-width="2.16" class="bulb-glow glow phase4" />
<path d="M1189.38 229.372C1190.48 224.239 1187.94 211.788 1193.16 210.355C1197.57 209.144 1201.15 211.601 1201.09 215.957C1201.02 220.505 1192.57 225.314 1189.38 229.372Z" fill="#FFD75A" stroke="#F3CD3E" stroke-width="2.16" class="bulb-glow glow phase5" />
<path d="M1160.17 219.52C1161.28 214.387 1158.73 201.936 1163.95 200.503C1168.36 199.292 1171.94 201.749 1171.88 206.104C1171.82 210.653 1163.36 215.462 1160.17 219.52Z" fill="#FFD75A" stroke="#F3CD3E" stroke-width="2.16" class="bulb-glow glow phase0" />
<path d="M1130.1 207.267C1131.21 202.133 1128.67 189.682 1133.89 188.249C1138.3 187.038 1141.88 189.496 1141.81 193.851C1141.75 198.4 1133.3 203.208 1130.1 207.267Z" fill="#FFD75A" stroke="#F3CD3E" stroke-width="2.16" class="bulb-glow glow phase1" />
<path d="M1101.96 195.416C1103.07 190.283 1100.52 177.832 1105.74 176.399C1110.15 175.188 1113.73 177.645 1113.67 182C1113.6 186.549 1105.15 191.358 1101.96 195.416Z" fill="#FFD75A" stroke="#F3CD3E" stroke-width="2.16" class="bulb-glow glow phase2" />
<path d="M1072.53 183.514C1073.64 178.38 1071.09 165.929 1076.31 164.496C1080.72 163.285 1084.3 165.743 1084.24 170.098C1084.17 174.647 1075.72 179.455 1072.53 183.514Z" fill="#FFD75A" stroke="#F3CD3E" stroke-width="2.16" class="bulb-glow glow phase3" />
<path d="M1043.15 172.072C1044.26 166.939 1041.72 154.488 1046.94 153.055C1051.35 151.844 1054.92 154.302 1054.86 158.657C1054.8 163.205 1046.34 168.014 1043.15 172.072Z" fill="#FFD75A" stroke="#F3CD3E" stroke-width="2.16" class="bulb-glow glow phase4" />
<path d="M1013.94 160.361C1015.05 155.227 1012.5 142.776 1017.72 141.343C1022.13 140.132 1025.71 142.59 1025.65 146.945C1025.58 151.494 1017.13 156.303 1013.94 160.361Z" fill="#FFD75A" stroke="#F3CD3E" stroke-width="2.16" class="bulb-glow glow phase5" />
<path d="M984.371 149.107C985.48 143.973 982.936 131.522 988.155 130.089C992.566 128.878 996.143 131.336 996.081 135.691C996.017 140.24 987.564 145.048 984.371 149.107Z" fill="#FFD75A" stroke="#F3CD3E" stroke-width="2.16" class="bulb-glow glow phase0" />
<path d="M955.185 137.666C956.294 132.533 953.749 120.082 958.968 118.649C963.379 117.438 966.956 119.896 966.895 124.251C966.83 128.799 958.378 133.608 955.185 137.666Z" fill="#FFD75A" stroke="#F3CD3E" stroke-width="2.16" class="bulb-glow glow phase1" />
<path d="M691.479 32.1007C692.588 26.9673 690.043 14.5164 695.262 13.0834C699.673 11.8723 703.25 14.33 703.189 18.6851C703.124 23.2339 694.672 28.0425 691.479 32.1007Z" fill="#FFD75A" stroke="#F3CD3E" stroke-width="2.16" class="bulb-glow glow phase2" />
<path d="M721.478 42.4152C722.587 37.2818 720.042 24.8309 725.261 23.3979C729.672 22.1868 733.249 24.6445 733.188 28.9997C733.123 33.5485 724.671 38.357 721.478 42.4152Z" fill="#FFD75A" stroke="#F3CD3E" stroke-width="2.16" class="bulb-glow glow phase3" />
<path d="M751.446 55.3336C752.555 50.2002 750.01 37.7493 755.229 36.3163C759.64 35.1052 763.217 37.563 763.155 41.9181C763.091 46.4669 754.639 51.2754 751.446 55.3336Z" fill="#FFD75A" stroke="#F3CD3E" stroke-width="2.16" class="bulb-glow glow phase4" />
<path d="M779.262 67.5568C780.371 62.4234 777.827 49.9725 783.046 48.5395C787.456 47.3284 791.033 49.7861 790.972 54.1413C790.907 58.69 782.455 63.4986 779.262 67.5568Z" fill="#FFD75A" stroke="#F3CD3E" stroke-width="2.16" class="bulb-glow glow phase5" />
<path d="M808.388 79.2846C809.497 74.1512 806.952 61.7002 812.172 60.2672C816.582 59.0562 820.159 61.5139 820.098 65.869C820.033 70.4178 811.581 75.2263 808.388 79.2846Z" fill="#FFD75A" stroke="#F3CD3E" stroke-width="2.16" class="bulb-glow glow phase0" />
<path d="M838.375 90.1461C839.484 85.0127 836.94 72.5618 842.159 71.1289C846.57 69.9178 850.147 72.3755 850.085 76.7307C850.021 81.2794 841.568 86.0879 838.375 90.1461Z" fill="#FFD75A" stroke="#F3CD3E" stroke-width="2.16" class="bulb-glow glow phase1" />
<path d="M925.794 126.374C926.903 121.241 924.359 108.79 929.578 107.357C933.989 106.146 937.566 108.604 937.504 112.959C937.44 117.507 928.987 122.316 925.794 126.374Z" fill="#FFD75A" stroke="#F3CD3E" stroke-width="2.16" class="bulb-glow glow phase2" />
<path d="M867.432 102.361C868.541 97.2271 865.996 84.7761 871.216 83.3432C875.626 82.1321 879.203 84.5898 879.142 88.945C879.077 93.4937 870.625 98.3023 867.432 102.361Z" fill="#FFD75A" stroke="#F3CD3E" stroke-width="2.16" class="bulb-glow glow phase3" />
<path d="M896.137 114.608C897.246 109.474 894.702 97.0235 899.921 95.5905C904.331 94.3795 907.908 96.8372 907.847 101.192C907.782 105.741 899.33 110.55 896.137 114.608Z" fill="#FFD75A" stroke="#F3CD3E" stroke-width="2.16" class="bulb-glow glow phase4" />
<path d="M1306.1 345.823C1311.29 345.008 1321.99 338.151 1325.21 342.502C1327.93 346.179 1326.93 350.4 1322.84 351.911C1318.57 353.489 1311.04 347.339 1306.1 345.823Z" fill="#FFD75A" stroke="#F3CD3E" stroke-width="2.16" class="bulb-glow glow phase5" />
<path d="M1303.03 376.842C1307.92 378.784 1316.84 387.838 1320.94 384.305C1324.4 381.32 1324.35 376.982 1320.7 374.605C1316.89 372.122 1308.18 376.455 1303.03 376.842Z" fill="#FFD75A" stroke="#F3CD3E" stroke-width="2.16" class="bulb-glow glow phase0" />
<path d="M1290.15 402.278C1294.04 405.806 1299.22 417.409 1304.3 415.537C1308.59 413.954 1310.07 409.874 1307.48 406.369C1304.78 402.708 1295.11 403.718 1290.15 402.278Z" fill="#FFD75A" stroke="#F3CD3E" stroke-width="2.16" class="bulb-glow glow phase1" />
<path d="M1271.79 423.378C1274.03 428.128 1274.37 440.831 1279.77 441.047C1284.34 441.23 1287.27 438.027 1286.23 433.799C1285.14 429.382 1275.81 426.609 1271.79 423.378Z" fill="#FFD75A" stroke="#F3CD3E" stroke-width="2.16" class="bulb-glow glow phase2" />
<path d="M1245.74 438.888C1246.87 444.016 1244.4 456.48 1249.62 457.885C1254.04 459.073 1257.6 456.596 1257.52 452.241C1257.43 447.693 1248.95 442.93 1245.74 438.888Z" fill="#FFD75A" stroke="#F3CD3E" stroke-width="2.16" class="bulb-glow glow phase3" />
<path d="M1215.63 451.066C1216.77 456.193 1214.29 468.657 1219.52 470.063C1223.93 471.25 1227.5 468.773 1227.41 464.419C1227.32 459.87 1218.85 455.107 1215.63 451.066Z" fill="#FFD75A" stroke="#F3CD3E" stroke-width="2.16" class="bulb-glow glow phase4" />
<path d="M1185.53 462.8C1186.67 467.927 1184.19 480.391 1189.42 481.797C1193.84 482.984 1197.4 480.507 1197.32 476.153C1197.23 471.604 1188.75 466.841 1185.53 462.8Z" fill="#FFD75A" stroke="#F3CD3E" stroke-width="2.16" class="bulb-glow glow phase5" />
<path d="M1156.94 474.402C1158.08 479.529 1155.6 491.993 1160.83 493.399C1165.25 494.586 1168.81 492.109 1168.72 487.754C1168.64 483.206 1160.16 478.443 1156.94 474.402Z" fill="#FFD75A" stroke="#F3CD3E" stroke-width="2.16" class="bulb-glow glow phase0" />
<path d="M1126.94 486.816C1128.08 491.944 1125.6 504.408 1130.83 505.813C1135.25 507.001 1138.81 504.524 1138.72 500.169C1138.64 495.621 1130.16 490.857 1126.94 486.816Z" fill="#FFD75A" stroke="#F3CD3E" stroke-width="2.16" class="bulb-glow glow phase1" />
<path d="M1098.86 498.816C1100 503.943 1097.52 516.407 1102.75 517.813C1107.16 519 1110.73 516.523 1110.64 512.169C1110.55 507.62 1102.08 502.857 1098.86 498.816Z" fill="#FFD75A" stroke="#F3CD3E" stroke-width="2.16" class="bulb-glow glow phase2" />
<path d="M1069.49 510.875C1070.63 516.002 1068.15 528.467 1073.38 529.872C1077.8 531.059 1081.36 528.582 1081.28 524.228C1081.19 519.679 1072.71 514.916 1069.49 510.875Z" fill="#FFD75A" stroke="#F3CD3E" stroke-width="2.16" class="bulb-glow glow phase3" />
<path d="M1040.18 522.473C1041.32 527.601 1038.84 540.065 1044.06 541.47C1048.48 542.658 1052.05 540.181 1051.96 535.826C1051.87 531.278 1043.39 526.515 1040.18 522.473Z" fill="#FFD75A" stroke="#F3CD3E" stroke-width="2.16" class="bulb-glow glow phase4" />
<path d="M1011.03 534.34C1012.17 539.468 1009.69 551.932 1014.92 553.337C1019.33 554.525 1022.9 552.048 1022.81 547.693C1022.72 543.145 1014.24 538.381 1011.03 534.34Z" fill="#FFD75A" stroke="#F3CD3E" stroke-width="2.16" class="bulb-glow glow phase5" />
<path d="M981.524 545.752C982.66 550.88 980.182 563.344 985.409 564.749C989.826 565.937 993.39 563.46 993.305 559.105C993.216 554.557 984.738 549.793 981.524 545.752Z" fill="#FFD75A" stroke="#F3CD3E" stroke-width="2.16" class="bulb-glow glow phase0" />
<path d="M952.399 557.348C953.535 562.475 951.057 574.94 956.284 576.345C960.701 577.532 964.265 575.056 964.18 570.701C964.091 566.152 955.613 561.389 952.399 557.348Z" fill="#FFD75A" stroke="#F3CD3E" stroke-width="2.16" class="bulb-glow glow phase1" />
<path d="M689.259 664.319C690.395 669.446 687.917 681.91 693.144 683.316C697.561 684.503 701.125 682.026 701.04 677.672C700.951 673.123 692.474 668.36 689.259 664.319Z" fill="#FFD75A" stroke="#F3CD3E" stroke-width="2.16" class="bulb-glow glow phase2" />
<path d="M719.202 653.845C720.339 658.972 717.861 671.436 723.087 672.841C727.505 674.029 731.068 671.552 730.983 667.197C730.895 662.649 722.417 657.886 719.202 653.845Z" fill="#FFD75A" stroke="#F3CD3E" stroke-width="2.16" class="bulb-glow glow phase3" />
<path d="M749.101 640.766C750.237 645.893 747.759 658.358 752.986 659.763C757.403 660.95 760.967 658.474 760.882 654.119C760.793 649.57 752.315 644.807 749.101 640.766Z" fill="#FFD75A" stroke="#F3CD3E" stroke-width="2.16" class="bulb-glow glow phase4" />
<path d="M776.852 628.394C777.988 633.522 775.51 645.986 780.737 647.391C785.154 648.579 788.718 646.102 788.633 641.747C788.544 637.199 780.066 632.435 776.852 628.394Z" fill="#FFD75A" stroke="#F3CD3E" stroke-width="2.16" class="bulb-glow glow phase5" />
<path d="M805.915 616.512C807.052 621.639 804.574 634.104 809.8 635.509C814.217 636.696 817.781 634.22 817.696 629.865C817.608 625.317 809.13 620.553 805.915 616.512Z" fill="#FFD75A" stroke="#F3CD3E" stroke-width="2.16" class="bulb-glow glow phase0" />
<path d="M835.843 605.491C836.979 610.618 834.501 623.082 839.728 624.487C844.145 625.675 847.709 623.198 847.624 618.843C847.535 614.295 839.057 609.532 835.843 605.491Z" fill="#FFD75A" stroke="#F3CD3E" stroke-width="2.16" class="bulb-glow glow phase1" />
<path d="M923.068 568.797C924.205 573.924 921.727 586.388 926.954 587.794C931.371 588.981 934.935 586.504 934.85 582.15C934.761 577.601 926.283 572.838 923.068 568.797Z" fill="#FFD75A" stroke="#F3CD3E" stroke-width="2.16" class="bulb-glow glow phase2" />
<path d="M864.835 593.121C865.972 598.249 863.493 610.713 868.72 612.118C873.137 613.306 876.701 610.829 876.616 606.474C876.528 601.926 868.05 597.163 864.835 593.121Z" fill="#FFD75A" stroke="#F3CD3E" stroke-width="2.16" class="bulb-glow glow phase3" />
<path d="M893.474 580.721C894.61 585.848 892.132 598.313 897.359 599.718C901.776 600.905 905.34 598.429 905.255 594.074C905.166 589.526 896.688 584.762 893.474 580.721Z" fill="#FFD75A" stroke="#F3CD3E" stroke-width="2.16" class="bulb-glow glow phase4" />
<path d="M29.6529 382.358C25.4209 385.47 19.0787 396.484 14.2188 394.102C10.1117 392.09 9.0598 387.88 11.9913 384.658C15.0531 381.292 24.5718 383.285 29.6529 382.358Z" fill="#FFD75A" stroke="#F3CD3E" stroke-width="2.16" class="bulb-glow glow phase5" />
<path d="M44.4101 411.92C40.5328 415.463 35.3967 427.088 30.3113 425.236C26.0135 423.671 24.5203 419.597 27.0928 416.082C29.7796 412.41 39.4563 413.381 44.4101 411.92Z" fill="#FFD75A" stroke="#F3CD3E" stroke-width="2.16" class="bulb-glow glow phase0" />
<path d="M66.0658 432.897C63.8435 437.656 63.557 450.36 58.1498 450.598C53.5801 450.8 50.6388 447.609 51.667 443.376C52.7408 438.955 62.0506 436.144 66.0658 432.897Z" fill="#FFD75A" stroke="#F3CD3E" stroke-width="2.16" class="bulb-glow glow phase1" />
<path d="M92.6636 445.086C91.548 450.218 94.0767 462.672 88.8558 464.099C84.4436 465.304 80.8697 462.842 80.9368 458.487C81.007 453.938 89.4654 449.14 92.6636 445.086Z" fill="#FFD75A" stroke="#F3CD3E" stroke-width="2.16" class="bulb-glow glow phase2" />
<path d="M122.819 457.141C121.703 462.273 124.232 474.727 119.011 476.153C114.599 477.359 111.025 474.896 111.092 470.541C111.162 465.993 119.621 461.195 122.819 457.141Z" fill="#FFD75A" stroke="#F3CD3E" stroke-width="2.16" class="bulb-glow glow phase3" />
<path d="M152.947 467.684C151.831 472.816 154.36 485.27 149.139 486.697C144.727 487.902 141.153 485.44 141.22 481.085C141.29 476.536 149.749 471.738 152.947 467.684Z" fill="#FFD75A" stroke="#F3CD3E" stroke-width="2.16" class="bulb-glow glow phase4" />
<path d="M182.12 479.161C181.004 484.293 183.533 496.747 178.312 498.174C173.9 499.379 170.326 496.917 170.393 492.562C170.463 488.013 178.922 483.215 182.12 479.161Z" fill="#FFD75A" stroke="#F3CD3E" stroke-width="2.16" class="bulb-glow glow phase5" />
<path d="M212.162 490.919C211.046 496.051 213.575 508.505 208.354 509.931C203.942 511.137 200.368 508.674 200.435 504.319C200.505 499.771 208.964 494.973 212.162 490.919Z" fill="#FFD75A" stroke="#F3CD3E" stroke-width="2.16" class="bulb-glow glow phase0" />
<path d="M241.897 502.78C240.781 507.912 243.31 520.366 238.089 521.792C233.677 522.998 230.103 520.536 230.17 516.181C230.24 511.632 238.699 506.834 241.897 502.78Z" fill="#FFD75A" stroke="#F3CD3E" stroke-width="2.16" class="bulb-glow glow phase1" />
<path d="M271.311 514.72C270.195 519.852 272.724 532.306 267.503 533.732C263.091 534.938 259.517 532.476 259.584 528.12C259.654 523.572 268.113 518.774 271.311 514.72Z" fill="#FFD75A" stroke="#F3CD3E" stroke-width="2.16" class="bulb-glow glow phase2" />
<path d="M300.673 526.198C299.558 531.33 302.086 543.785 296.866 545.211C292.453 546.416 288.879 543.954 288.947 539.599C289.017 535.05 297.475 530.253 300.673 526.198Z" fill="#FFD75A" stroke="#F3CD3E" stroke-width="2.16" class="bulb-glow glow phase3" />
<path d="M329.873 537.947C328.757 543.079 331.286 555.534 326.065 556.96C321.653 558.165 318.079 555.703 318.146 551.348C318.216 546.799 326.674 542.002 329.873 537.947Z" fill="#FFD75A" stroke="#F3CD3E" stroke-width="2.16" class="bulb-glow glow phase4" />
<path d="M359.424 549.239C358.309 554.371 360.837 566.826 355.617 568.252C351.204 569.457 347.63 566.995 347.698 562.64C347.768 558.091 356.226 553.294 359.424 549.239Z" fill="#FFD75A" stroke="#F3CD3E" stroke-width="2.16" class="bulb-glow glow phase5" />
<path d="M388.597 560.717C387.482 565.849 390.01 578.303 384.789 579.729C380.377 580.935 376.803 578.473 376.87 574.118C376.941 569.569 385.399 564.771 388.597 560.717Z" fill="#FFD75A" stroke="#F3CD3E" stroke-width="2.16" class="bulb-glow glow phase0" />
<path d="M652.168 666.616C651.053 671.748 653.582 684.203 648.361 685.629C643.948 686.834 640.375 684.372 640.442 680.017C640.512 675.468 648.97 670.671 652.168 666.616Z" fill="#FFD75A" stroke="#F3CD3E" stroke-width="2.16" class="bulb-glow glow phase1" />
<path d="M622.931 657.028C621.816 662.16 624.344 674.615 619.123 676.041C614.711 677.246 611.137 674.784 611.204 670.429C611.275 665.88 619.733 661.083 622.931 657.028Z" fill="#FFD75A" stroke="#F3CD3E" stroke-width="2.16" class="bulb-glow glow phase2" />
<path d="M593.767 644.796C592.651 649.928 595.18 662.382 589.959 663.808C585.547 665.014 581.973 662.551 582.04 658.196C582.11 653.647 590.569 648.85 593.767 644.796Z" fill="#FFD75A" stroke="#F3CD3E" stroke-width="2.16" class="bulb-glow glow phase3" />
<path d="M564.431 631.048C563.316 636.18 565.844 648.635 560.623 650.061C556.211 651.266 552.637 648.804 552.704 644.449C552.775 639.9 561.233 635.103 564.431 631.048Z" fill="#FFD75A" stroke="#F3CD3E" stroke-width="2.16" class="bulb-glow glow phase4" />
<path d="M535.32 619.284C534.204 624.416 536.733 636.871 531.512 638.297C527.1 639.502 523.526 637.04 523.593 632.685C523.663 628.136 532.122 623.339 535.32 619.284Z" fill="#FFD75A" stroke="#F3CD3E" stroke-width="2.16" class="bulb-glow glow phase5" />
<path d="M506.091 607.617C504.976 612.749 507.505 625.204 502.284 626.63C497.871 627.835 494.297 625.373 494.365 621.018C494.435 616.469 502.893 611.672 506.091 607.617Z" fill="#FFD75A" stroke="#F3CD3E" stroke-width="2.16" class="bulb-glow glow phase0" />
<path d="M417.973 572.046C416.858 577.178 419.386 589.632 414.165 591.058C409.753 592.264 406.179 589.802 406.246 585.447C406.317 580.898 414.775 576.1 417.973 572.046Z" fill="#FFD75A" stroke="#F3CD3E" stroke-width="2.16" class="bulb-glow glow phase1" />
<path d="M476.305 596.133C475.19 601.265 477.718 613.72 472.497 615.146C468.085 616.351 464.511 613.889 464.578 609.534C464.649 604.985 473.107 600.188 476.305 596.133Z" fill="#FFD75A" stroke="#F3CD3E" stroke-width="2.16" class="bulb-glow glow phase2" />
<path d="M447.616 583.85C446.5 588.982 449.029 601.436 443.808 602.862C439.396 604.068 435.822 601.605 435.889 597.25C435.959 592.702 444.418 587.904 447.616 583.85Z" fill="#FFD75A" stroke="#F3CD3E" stroke-width="2.16" class="bulb-glow glow phase3" />
</g></svg>